SplineFontDB: 3.2
FontName: SouthAtlanta
FullName: South Atlanta
FamilyName: South Atlanta
Weight: Book
Copyright: (c)Woodcutter Manero MMXX
Version: 1.00;September 30, 2020;FontCreator 11.0.0.2388 64-bit
ItalicAngle: 0
UnderlinePosition: -292
UnderlineWidth: 150
Ascent: 1638
Descent: 410
InvalidEm: 0
sfntRevision: 0x00010000
LayerCount: 2
Layer: 0 1 "Back" 1
Layer: 1 1 "Fore" 0
XUID: [1021 47 64670262 26302]
StyleMap: 0x0040
FSType: 0
OS2Version: 3
OS2_WeightWidthSlopeOnly: 0
OS2_UseTypoMetrics: 0
CreationTime: 1601369397
ModificationTime: 1628003072
PfmFamily: 17
TTFWeight: 400
TTFWidth: 5
LineGap: 222
VLineGap: 0
Panose: 2 0 5 0 0 0 0 0 0 0
OS2TypoAscent: 1434
OS2TypoAOffset: 0
OS2TypoDescent: -410
OS2TypoDOffset: 0
OS2TypoLinegap: 205
OS2WinAscent: 1716
OS2WinAOffset: 0
OS2WinDescent: 418
OS2WinDOffset: 0
HheadAscent: 1716
HheadAOffset: 0
HheadDescent: -418
HheadDOffset: 0
OS2SubXSize: 1434
OS2SubYSize: 1331
OS2SubXOff: 0
OS2SubYOff: 283
OS2SupXSize: 1434
OS2SupYSize: 1331
OS2SupXOff: 0
OS2SupYOff: 977
OS2StrikeYSize: 102
OS2StrikeYPos: 530
OS2CapHeight: 1434
OS2XHeight: 1024
OS2Vendor: 'HL  '
OS2CodePages: 20000001.00000000
OS2UnicodeRanges: 00000003.10000000.00000000.00000000
DEI: 91125
TtTable: prep
SVTCA[y-axis]
MPPEM
PUSHW_1
 200
GT
IF
PUSHB_2
 1
 1
INSTCTRL
EIF
PUSHB_1
 1
PUSHW_2
 2048
 2048
MUL
WCVTF
PUSHB_2
 0
 7
WS
PUSHB_3
 31
 1
 0
LOOPCALL
PUSHB_2
 0
 7
WS
PUSHB_4
 12
 14
 1
 8
LOOPCALL
PUSHB_2
 0
 7
WS
PUSHB_4
 28
 6
 1
 8
LOOPCALL
PUSHB_2
 0
 8
WS
PUSHW_3
 832
 1
 9
LOOPCALL
PUSHB_2
 0
 9
WS
PUSHW_3
 448
 1
 9
LOOPCALL
PUSHB_2
 3
 0
WCVTP
PUSHB_2
 36
 1
GETINFO
LTEQ
IF
PUSHB_1
 64
GETINFO
IF
PUSHB_2
 3
 100
WCVTP
PUSHB_2
 38
 1
GETINFO
LTEQ
IF
PUSHW_3
 2176
 1
 1088
GETINFO
MUL
EQ
IF
PUSHB_2
 3
 0
WCVTP
EIF
EIF
EIF
EIF
PUSHB_4
 20
 8
 1
 12
LOOPCALL
PUSHW_1
 511
SCANCTRL
PUSHB_1
 4
SCANTYPE
PUSHB_2
 2
 0
WCVTP
PUSHB_4
 5
 100
 6
 0
WCVTP
WCVTP
EndTTInstrs
TtTable: fpgm
PUSHB_1
 0
FDEF
DUP
PUSHB_1
 0
NEQ
IF
RCVT
EIF
DUP
DUP
MPPEM
PUSHW_1
 14
LTEQ

StartChar: .notdef
Encoding: 65536 -1 0
Width: 1024
Flags: W
LayerCount: 2
Fore
SplineSet
100 0 m 1,0,-1
 100 1434 l 1,1,-1
 924 1434 l 1,2,-1
 924 0 l 1,3,-1
 100 0 l 1,0,-1
150 50 m 1,4,-1
 874 50 l 1,5,-1
 874 1384 l 1,6,-1
 150 1384 l 1,7,-1
 150 50 l 1,4,-1
325 1148 m 1,8,9
 356 1176 356 1176 383 1191 c 0,10,11
 436 1221 436 1221 495 1221 c 0,12,13
 587 1221 587 1221 643 1173.5 c 128,-1,14
 699 1126 699 1126 699 1046 c 0,15,16
 699 997 699 997 676 947.5 c 128,-1,17
 653 898 653 898 589 818 c 0,18,19
 526 738 526 738 490 686 c 128,-1,20
 454 634 454 634 454 587 c 0,21,22
 454 549 454 549 478 454 c 1,23,-1
 446 454 l 1,24,25
 411 551 411 551 411 602 c 0,26,27
 411 678 411 678 492.5 820 c 128,-1,28
 574 962 574 962 574 1037 c 0,29,30
 574 1094 574 1094 541 1127 c 128,-1,31
 508 1160 508 1160 450 1160 c 0,32,33
 412 1160 412 1160 381 1143 c 0,34,35
 355 1128 355 1128 325 1103 c 1,36,-1
 325 1148 l 1,8,9
389 334 m 2,37,-1
 446 392 l 2,38,39
 457 402 457 402 466 402 c 0,40,41
 476 402 476 402 488 391 c 2,42,-1
 544 331 l 2,43,44
 553 320 553 320 553 311 c 0,45,46
 553 300 553 300 543 289 c 2,47,-1
 487 227 l 2,48,49
 473 213 473 213 466 213 c 0,50,51
 455 213 455 213 446 223 c 2,52,-1
 385 294 l 2,53,54
 378 303 378 303 378 312 c 0,55,56
 378 322 378 322 389 334 c 2,37,-1
EndSplineSet
Validated: 1
EndChar

StartChar: exclam
Encoding: 33 33 4
Width: 439
GlyphClass: 2
Flags: W
LayerCount: 2
Fore
SplineSet
185 1455 m 2,0,1
 335 1455 335 1455 335 1335 c 2,2,-1
 335 665 l 2,3,4
 332 650 332 650 299 650 c 1,5,-1
 299 644 l 1,6,7
 335 644 335 644 335 634 c 2,8,-1
 335 592 l 2,9,10
 335 587 335 587 330 587 c 1,11,-1
 335 577 l 1,12,13
 335 395 335 395 278 395 c 1,14,15
 278 383 278 383 200 379 c 1,16,-1
 174 379 l 2,17,18
 60 379 60 379 60 483 c 2,19,-1
 60 603 l 1,20,21
 70 616 70 616 70 618 c 1,22,23
 60 618 60 618 60 629 c 2,24,-1
 60 670 l 2,25,26
 60 676 60 676 65 676 c 1,27,-1
 60 686 l 1,28,-1
 60 1335 l 2,29,30
 60 1455 60 1455 159 1455 c 2,31,-1
 185 1455 l 2,0,1
128 608 m 1,32,-1
 128 603 l 1,33,-1
 174 603 l 1,34,-1
 174 608 l 1,35,-1
 128 608 l 1,32,-1
148 270 m 1,36,37
 165 260 165 260 180 260 c 2,38,-1
 221 260 l 2,39,40
 224 260 224 260 237 270 c 1,41,42
 323 270 323 270 330 171 c 1,43,44
 325 171 325 171 325 166 c 1,45,-1
 143 182 l 1,46,47
 123 177 123 177 107 177 c 0,48,49
 65 186 65 186 65 197 c 2,50,-1
 65 203 l 2,51,52
 67 213 67 213 76 213 c 1,53,-1
 70 223 l 1,54,55
 90 270 90 270 148 270 c 1,36,37
226 229 m 1,56,57
 226 221 226 221 242 213 c 0,58,59
 249 213 249 213 257 229 c 1,60,-1
 226 229 l 1,56,57
102 166 m 0,61,62
 159 153 159 153 159 140 c 2,63,-1
 159 135 l 2,64,65
 159 127 159 127 138 120 c 1,66,67
 60 123 60 123 60 135 c 2,68,-1
 60 161 l 1,69,70
 89 166 89 166 102 166 c 0,61,62
211 146 m 1,71,-1
 216 146 l 2,72,73
 223 146 223 146 231 130 c 1,74,75
 231 120 231 120 221 120 c 2,76,-1
 195 120 l 2,77,78
 185 120 185 120 185 130 c 2,79,-1
 185 140 l 1,80,-1
 211 146 l 1,71,-1
320 146 m 0,81,82
 330 144 330 144 330 135 c 2,83,-1
 330 114 l 2,84,85
 330 104 330 104 320 104 c 0,86,87
 263 104 263 104 263 120 c 2,88,-1
 263 130 l 2,89,90
 263 146 263 146 320 146 c 0,81,82
169 109 m 1,91,92
 208 109 208 109 268 94 c 1,93,-1
 315 94 l 2,94,95
 317 94 317 94 330 83 c 1,96,97
 324 42 324 42 309 42 c 0,98,99
 253 47 253 47 211 47 c 1,100,-1
 200 62 l 1,101,102
 173 57 173 57 169 57 c 0,103,104
 65 57 65 57 65 78 c 1,105,106
 161 98 161 98 169 109 c 1,91,92
107 36 m 2,107,-1
 180 31 l 1,108,109
 208 36 208 36 221 36 c 1,110,111
 221 29 221 29 237 21 c 1,112,-1
 278 21 l 1,113,-1
 278 16 l 2,114,115
 275 0 275 0 237 0 c 2,116,-1
 195 0 l 2,117,118
 86 0 86 0 86 26 c 1,119,120
 99 36 99 36 107 36 c 2,107,-1
EndSplineSet
Validated: 1
EndChar

StartChar: quotedbl
Encoding: 34 34 5
Width: 756
GlyphClass: 2
Flags: W
LayerCount: 2
Fore
SplineSet
180 1671 m 2,0,-1
 201 1671 l 2,1,2
 330 1671 330 1671 345 1629 c 1,3,-1
 345 1623 l 1,4,-1
 339 1613 l 1,5,-1
 95 1634 l 1,6,-1
 95 1639 l 2,7,8
 95 1668 95 1668 180 1671 c 2,0,-1
90 1623 m 0,9,10
 284 1591 284 1591 313 1591 c 2,11,-1
 339 1591 l 1,12,13
 355 1586 355 1586 355 1560 c 1,14,-1
 350 1549 l 1,15,16
 260 1560 260 1560 185 1560 c 1,17,18
 196 1547 196 1547 196 1538 c 1,19,-1
 207 1538 l 1,20,-1
 239 1533 l 1,21,22
 258 1544 258 1544 281 1544 c 0,23,24
 355 1544 355 1544 355 1528 c 2,25,-1
 355 1491 l 2,26,27
 355 1485 355 1485 350 1485 c 1,28,-1
 355 1475 l 1,29,-1
 355 1369 l 2,30,31
 355 1246 355 1246 334 1209 c 1,32,-1
 334 1204 l 1,33,-1
 302 1204 l 1,34,35
 226 1228 226 1228 85 1406 c 1,36,37
 85 1421 85 1421 74 1491 c 1,38,-1
 85 1496 l 2,39,40
 93 1496 93 1496 159 1491 c 1,41,42
 176 1501 176 1501 191 1501 c 1,43,-1
 191 1512 l 1,44,45
 180 1512 180 1512 180 1517 c 1,46,47
 161 1506 161 1506 138 1506 c 2,48,-1
 127 1506 l 2,49,50
 119 1506 119 1506 111 1522 c 1,51,-1
 85 1517 l 1,52,-1
 74 1517 l 1,53,-1
 74 1544 l 1,54,55
 91 1544 91 1544 138 1565 c 1,56,57
 159 1560 159 1560 175 1560 c 1,58,59
 175 1570 175 1570 164 1570 c 2,60,-1
 90 1570 l 2,61,62
 79 1570 79 1570 79 1581 c 2,63,-1
 79 1613 l 2,64,65
 81 1623 81 1623 90 1623 c 0,9,10
329 1491 m 1,66,-1
 329 1485 l 1,67,-1
 345 1485 l 1,68,-1
 345 1491 l 1,69,-1
 329 1491 l 1,66,-1
308 1284 m 1,70,-1
 308 1278 l 1,71,-1
 323 1278 l 1,72,-1
 323 1284 l 1,73,-1
 308 1284 l 1,70,-1
507 1671 m 1,74,-1
 528 1671 l 2,75,76
 657 1671 657 1671 671 1628 c 1,77,-1
 671 1623 l 1,78,-1
 666 1612 l 1,79,-1
 422 1633 l 1,80,-1
 422 1639 l 2,81,82
 422 1667 422 1667 507 1671 c 1,74,-1
417 1623 m 0,83,84
 611 1591 611 1591 640 1591 c 2,85,-1
 666 1591 l 1,86,87
 682 1586 682 1586 682 1559 c 1,88,-1
 677 1549 l 1,89,90
 586 1559 586 1559 512 1559 c 1,91,92
 523 1546 523 1546 523 1538 c 1,93,-1
 533 1538 l 1,94,-1
 565 1533 l 1,95,96
 585 1543 585 1543 608 1543 c 0,97,98
 682 1543 682 1543 682 1527 c 2,99,-1
 682 1490 l 2,100,101
 682 1485 682 1485 677 1485 c 1,102,-1
 682 1474 l 1,103,-1
 682 1368 l 2,104,105
 682 1246 682 1246 661 1209 c 1,106,-1
 661 1204 l 1,107,-1
 629 1204 l 1,108,109
 553 1228 553 1228 411 1405 c 1,110,111
 411 1421 411 1421 401 1490 c 1,112,-1
 411 1496 l 1,113,114
 419 1496 419 1496 486 1490 c 1,115,116
 503 1501 503 1501 518 1501 c 1,117,-1
 518 1511 l 1,118,119
 507 1511 507 1511 507 1517 c 1,120,121
 487 1506 487 1506 464 1506 c 2,122,-1
 454 1506 l 2,123,124
 446 1506 446 1506 438 1522 c 1,125,-1
 411 1517 l 1,126,-1
 401 1517 l 1,127,-1
 401 1543 l 1,128,129
 417 1543 417 1543 464 1564 c 1,130,131
 486 1559 486 1559 502 1559 c 1,132,133
 502 1570 502 1570 491 1570 c 2,134,-1
 417 1570 l 2,135,136
 406 1570 406 1570 406 1580 c 2,137,-1
 406 1612 l 2,138,139
 408 1623 408 1623 417 1623 c 0,83,84
655 1490 m 1,140,-1
 655 1485 l 1,141,-1
 671 1485 l 1,142,-1
 671 1490 l 1,143,-1
 655 1490 l 1,140,-1
634 1283 m 1,144,-1
 634 1278 l 1,145,-1
 650 1278 l 1,146,-1
 650 1283 l 1,147,-1
 634 1283 l 1,144,-1
EndSplineSet
Validated: 1
EndChar

StartChar: numbersign
Encoding: 35 35 6
Width: 2076
GlyphClass: 2
Flags: W
LayerCount: 2
Fore
SplineSet
1035 1661 m 0,0,1
 1404 1661 1404 1661 1698 1377 c 1,2,3
 1825 1236 1825 1236 1879 1119 c 0,4,5
 1982 899 1982 899 1982 680 c 2,6,-1
 1982 645 l 2,7,8
 1982 263 1982 263 1700 -49 c 1,9,10
 1406 -336 1406 -336 1035 -336 c 0,11,12
 649 -336 649 -336 351 -31 c 1,13,14
 85 272 85 272 85 665 c 0,15,16
 85 1064 85 1064 365 1370 c 1,17,18
 657 1661 657 1661 1035 1661 c 0,0,1
1008 1615 m 1,19,20
 1013 1536 1013 1536 1013 1505 c 0,21,22
 1015 1500 1015 1500 1015 1498 c 2,23,-1
 1006 1491 l 1,24,-1
 988 1491 l 2,25,26
 977 1491 977 1491 977 1606 c 1,27,28
 975 1606 975 1606 975 1613 c 1,29,30
 953 1610 953 1610 942 1610 c 2,31,-1
 935 1610 l 1,32,33
 938 1596 938 1596 940 1542 c 1,34,35
 937 1542 937 1542 927 1529 c 1,36,37
 942 1522 942 1522 942 1509 c 2,38,-1
 942 1487 l 2,39,40
 942 1456 942 1456 973 1456 c 2,41,-1
 977 1456 l 2,42,43
 1052 1456 1052 1456 1052 1476 c 0,44,45
 1052 1478 1052 1478 1054 1489 c 0,46,47
 1052 1512 1052 1512 1052 1524 c 1,48,49
 1055 1524 1055 1524 1065 1538 c 1,50,51
 1059 1538 1059 1538 1050 1551 c 1,52,-1
 1050 1555 l 2,53,54
 1050 1574 1050 1574 1048 1615 c 1,55,-1
 1008 1615 l 1,19,20
1121 1610 m 1,56,57
 1118 1605 1118 1605 1114 1577 c 1,58,59
 1154 1574 1154 1574 1154 1566 c 0,60,61
 1154 1536 1154 1536 1134 1527 c 1,62,63
 1137 1527 1137 1527 1145 1513 c 1,64,65
 1136 1453 1136 1453 1134 1449 c 1,66,67
 1148 1449 1148 1449 1173 1443 c 1,68,69
 1180 1516 1180 1516 1200 1516 c 1,70,-1
 1189 1531 l 1,71,72
 1191 1554 1191 1554 1195 1564 c 1,73,74
 1230 1557 1230 1557 1235 1557 c 1,75,-1
 1235 1560 l 2,76,77
 1235 1567 1235 1567 1240 1591 c 1,78,79
 1135 1610 1135 1610 1121 1610 c 1,56,57
761 1551 m 0,80,81
 761 1537 761 1537 772 1502 c 1,82,83
 769 1502 769 1502 764 1491 c 1,84,-1
 764 1487 l 1,85,86
 782 1487 782 1487 790 1441 c 1,87,88
 800 1425 800 1425 816 1425 c 0,89,90
 896 1440 896 1440 896 1458 c 2,91,-1
 896 1467 l 2,92,93
 896 1478 896 1478 889 1502 c 1,94,95
 854 1491 854 1491 849 1491 c 1,96,97
 854 1481 854 1481 854 1472 c 1,98,99
 843 1465 843 1465 825 1465 c 1,100,101
 819 1479 819 1479 819 1496 c 1,102,103
 825 1498 825 1498 825 1509 c 1,104,105
 807 1509 807 1509 803 1544 c 1,106,107
 810 1549 810 1549 830 1553 c 1,108,109
 836 1545 836 1545 836 1535 c 1,110,-1
 876 1546 l 1,111,112
 869 1591 869 1591 845 1591 c 2,113,-1
 836 1591 l 1,114,115
 761 1579 761 1579 761 1551 c 0,80,81
1292 1573 m 1,116,117
 1281 1547 1281 1547 1281 1544 c 0,118,119
 1319 1530 1319 1530 1319 1527 c 0,120,121
 1309 1491 1309 1491 1290 1491 c 1,122,123
 1297 1480 1297 1480 1297 1474 c 0,124,125
 1277 1423 1277 1423 1277 1414 c 1,126,127
 1306 1401 1306 1401 1312 1401 c 1,128,129
 1331 1467 1331 1467 1352 1467 c 1,130,131
 1345 1478 1345 1478 1345 1485 c 0,132,133
 1353 1513 1353 1513 1359 1513 c 0,134,135
 1388 1500 1388 1500 1394 1500 c 1,136,-1
 1407 1531 l 1,137,138
 1305 1573 1305 1573 1292 1575 c 1,139,-1
 1292 1573 l 1,116,117
574 1483 m 1,140,141
 601 1434 601 1434 605 1421 c 1,142,-1
 600 1405 l 1,143,144
 623 1405 623 1405 634 1370 c 0,145,146
 636 1370 636 1370 649 1346 c 1,147,148
 737 1386 737 1386 737 1408 c 0,149,150
 737 1420 737 1420 715 1456 c 1,151,152
 719 1464 719 1464 719 1474 c 1,153,154
 699 1474 699 1474 691 1502 c 1,155,156
 680 1524 680 1524 658 1524 c 0,157,158
 649 1524 649 1524 574 1483 c 1,140,141
1467 1498 m 1,159,160
 1433 1441 1433 1441 1427 1441 c 0,161,162
 1415 1438 1415 1438 1414 1438 c 1,163,164
 1414 1434 1414 1434 1418 1423 c 1,165,166
 1383 1369 1383 1369 1383 1366 c 0,167,168
 1468 1308 1468 1308 1475 1308 c 1,169,170
 1489 1329 1489 1329 1489 1337 c 1,171,172
 1439 1368 1439 1368 1433 1377 c 1,173,174
 1447 1394 1447 1394 1449 1394 c 2,175,-1
 1451 1394 l 1,176,-1
 1489 1370 l 2,177,178
 1493 1372 1493 1372 1508 1399 c 1,179,180
 1469 1420 1469 1420 1469 1427 c 0,181,182
 1477 1444 1477 1444 1484 1447 c 1,183,184
 1486 1443 1486 1443 1539 1410 c 0,185,186
 1544 1411 1544 1411 1559 1438 c 1,187,188
 1554 1440 1554 1440 1467 1498 c 1,159,160
653 1483 m 0,189,190
 656 1483 656 1483 693 1414 c 1,191,-1
 693 1412 l 1,192,193
 679 1397 679 1397 667 1397 c 1,194,195
 635 1451 635 1451 627 1472 c 1,196,197
 647 1483 647 1483 653 1483 c 0,189,190
429 1353 m 2,198,199
 429 1342 429 1342 462 1304 c 1,200,-1
 459 1289 l 1,201,-1
 475 1289 l 1,202,203
 508 1251 508 1251 521 1251 c 0,204,205
 544 1251 544 1251 589 1306 c 1,206,-1
 592 1317 l 2,207,208
 592 1327 592 1327 561 1364 c 1,209,-1
 561 1366 l 1,210,-1
 563 1379 l 1,211,-1
 548 1379 l 1,212,213
 512 1419 512 1419 497 1419 c 0,214,215
 477 1419 477 1419 431 1364 c 1,216,-1
 429 1353 l 2,198,199
1614 1390 m 1,217,218
 1614 1387 1614 1387 1566 1342 c 1,219,-1
 1555 1344 l 1,220,-1
 1550 1344 l 1,221,-1
 1550 1326 l 1,222,-1
 1506 1280 l 2,223,224
 1506 1277 1506 1277 1533 1253 c 1,225,-1
 1566 1284 l 1,226,-1
 1568 1284 l 1,227,228
 1555 1233 1555 1233 1555 1229 c 2,229,-1
 1586 1200 l 1,230,-1
 1601 1256 l 1,231,232
 1617 1251 1617 1251 1619 1251 c 2,233,-1
 1623 1251 l 2,234,235
 1642 1251 1642 1251 1680 1304 c 1,236,-1
 1680 1311 l 2,237,238
 1680 1332 1680 1332 1614 1390 c 1,217,218
490 1375 m 1,239,-1
 495 1375 l 1,240,241
 511 1360 511 1360 548 1315 c 1,242,-1
 548 1311 l 2,243,244
 548 1308 548 1308 530 1295 c 1,245,-1
 526 1295 l 1,246,247
 510 1308 510 1308 473 1355 c 1,248,-1
 473 1359 l 2,249,250
 473 1361 473 1361 490 1375 c 1,239,-1
609 991 m 1,251,-1
 611 976 l 1,252,-1
 611 861 l 1,253,254
 552 839 552 839 552 760 c 0,255,256
 552 675 552 675 581 608 c 0,257,258
 585 606 585 606 627 522 c 1,259,260
 660 480 660 480 660 473 c 2,261,-1
 660 469 l 1,262,-1
 658 453 l 1,263,264
 660 428 660 428 667 396 c 1,265,266
 662 384 662 384 662 361 c 0,267,268
 664 345 664 345 664 343 c 2,269,-1
 662 339 l 1,270,271
 669 262 669 262 680 262 c 1,272,273
 702 243 702 243 702 213 c 1,274,275
 710 192 710 192 741 167 c 1,276,277
 757 136 757 136 779 136 c 1,278,279
 814 86 814 86 814 81 c 0,280,281
 844 8 844 8 872 8 c 0,282,283
 883 8 883 8 889 -34 c 1,284,285
 905 -57 905 -57 944 -69 c 1,286,287
 961 -90 961 -90 1017 -104 c 0,288,289
 1030 -104 1030 -104 1032 -106 c 0,290,291
 1066 -100 1066 -100 1145 -98 c 1,292,293
 1169 -89 1169 -89 1191 -73 c 1,294,295
 1225 -73 1225 -73 1262 -38 c 1,296,297
 1330 -38 1330 -38 1339 44 c 1,298,299
 1356 67 1356 67 1378 156 c 1,300,301
 1416 197 1416 197 1416 257 c 1,302,303
 1429 277 1429 277 1429 301 c 2,304,-1
 1429 317 l 1,305,306
 1449 367 1449 367 1449 390 c 0,307,308
 1447 409 1447 409 1442 416 c 1,309,310
 1444 438 1444 438 1444 451 c 2,311,-1
 1444 460 l 2,312,313
 1444 467 1444 467 1442 471 c 0,314,315
 1444 480 1444 480 1444 486 c 0,316,317
 1444 527 1444 527 1418 581 c 1,318,319
 1420 605 1420 605 1422 605 c 1,320,-1
 1420 610 l 1,321,-1
 1420 632 l 2,322,323
 1420 652 1420 652 1409 685 c 1,324,325
 1427 699 1427 699 1427 722 c 2,326,-1
 1425 738 l 1,327,328
 1436 766 1436 766 1436 797 c 2,329,-1
 1436 810 l 1,330,331
 1444 835 1444 835 1444 848 c 2,332,-1
 1425 916 l 1,333,-1
 1427 951 l 2,334,335
 1427 979 1427 979 1392 1075 c 1,336,337
 1360 1149 1360 1149 1299 1205 c 1,338,339
 1253 1274 1253 1274 1191 1295 c 0,340,341
 1051 1342 1051 1342 955 1342 c 2,342,-1
 938 1342 l 2,343,344
 888 1342 888 1342 810 1315 c 0,345,346
 766 1299 766 1299 708 1251 c 1,347,348
 659 1189 659 1189 625 1110 c 1,349,350
 616 1076 616 1076 609 991 c 1,251,-1
1619 1337 m 1,351,352
 1638 1322 1638 1322 1638 1313 c 1,353,-1
 1614 1291 l 1,354,-1
 1610 1291 l 2,355,356
 1607 1291 1607 1291 1592 1308 c 1,357,-1
 1592 1311 l 2,358,359
 1592 1314 1592 1314 1619 1337 c 1,351,352
916 1319 m 1,360,361
 1061 1319 1061 1319 1173 1278 c 1,362,363
 1259 1231 1259 1231 1273 1207 c 1,364,365
 1299 1185 1299 1185 1332 1108 c 1,366,367
 1364 1072 1364 1072 1392 956 c 1,368,-1
 1392 954 l 2,369,370
 1392 947 1392 947 1389 912 c 1,371,372
 1398 886 1398 886 1403 857 c 0,373,374
 1406 857 1406 857 1409 850 c 2,375,-1
 1409 846 l 2,376,377
 1409 830 1409 830 1398 828 c 1,378,-1
 1403 806 l 1,379,380
 1403 770 1403 770 1383 731 c 1,381,382
 1392 730 1392 730 1392 724 c 2,383,-1
 1392 718 l 2,384,385
 1392 715 1392 715 1385 711 c 1,386,-1
 1372 711 l 1,387,388
 1372 704 1372 704 1365 691 c 1,389,390
 1375 691 1375 691 1387 625 c 1,391,-1
 1387 616 l 1,392,393
 1383 583 1383 583 1383 568 c 1,394,395
 1397 552 1397 552 1407 506 c 0,396,397
 1407 504 1407 504 1409 489 c 2,398,-1
 1407 473 l 1,399,400
 1411 451 1411 451 1411 447 c 256,401,402
 1411 443 1411 443 1403 416 c 1,403,404
 1414 397 1414 397 1414 387 c 0,405,406
 1414 376 1414 376 1394 323 c 1,407,408
 1394 286 1394 286 1381 255 c 1,409,410
 1381 219 1381 219 1359 187 c 1,411,412
 1344 175 1344 175 1328 105 c 0,413,414
 1328 100 1328 100 1301 44 c 1,415,-1
 1301 41 l 2,416,417
 1301 40 1301 40 1303 33 c 1,418,419
 1291 -3 1291 -3 1264 -3 c 0,420,421
 1245 -3 1245 -3 1206 -36 c 1,422,423
 1177 -36 1177 -36 1145 -60 c 1,424,-1
 1035 -71 l 1,425,-1
 1032 -71 l 2,426,427
 1011 -71 1011 -71 966 -45 c 1,428,429
 966 -35 966 -35 927 -25 c 1,430,431
 918 -15 918 -15 918 6 c 0,432,433
 918 9 918 9 920 28 c 1,434,435
 863 42 863 42 863 63 c 1,436,437
 847 83 847 83 847 96 c 0,438,439
 847 100 847 100 852 110 c 1,440,441
 833 110 833 110 801 169 c 1,442,443
 776 169 776 169 766 191 c 0,444,445
 766 197 766 197 741 215 c 1,446,-1
 724 268 l 1,447,448
 700 279 700 279 700 326 c 0,449,450
 697 334 697 334 697 343 c 2,451,-1
 697 345 l 2,452,453
 697 348 697 348 700 348 c 1,454,-1
 697 352 l 1,455,456
 700 401 700 401 700 405 c 0,457,458
 693 449 693 449 693 460 c 2,459,-1
 695 471 l 1,460,-1
 689 504 l 1,461,462
 666 512 666 512 603 647 c 1,463,464
 587 711 587 711 587 755 c 2,465,-1
 587 764 l 2,466,467
 587 819 587 819 634 832 c 1,468,-1
 649 832 l 1,469,-1
 649 835 l 2,470,471
 649 865 649 865 645 901 c 1,472,473
 647 922 647 922 647 940 c 0,474,475
 647 961 647 961 645 991 c 0,476,477
 645 1146 645 1146 739 1238 c 0,478,479
 789 1290 789 1290 854 1311 c 0,480,481
 860 1311 860 1311 916 1319 c 1,360,361
667 1015 m 0,482,483
 667 1013 667 1013 669 1009 c 0,484,485
 664 997 664 997 664 985 c 0,486,487
 664 969 664 969 667 936 c 1,488,489
 664 906 664 906 664 899 c 0,490,491
 669 843 669 843 669 828 c 1,492,493
 722 808 722 808 722 784 c 1,494,-1
 724 784 l 1,495,496
 724 793 724 793 735 799 c 1,497,-1
 739 799 l 1,498,-1
 753 788 l 1,499,500
 783 793 783 793 792 793 c 1,501,-1
 799 784 l 1,502,-1
 799 780 l 1,503,504
 770 657 770 657 770 603 c 1,505,506
 781 580 781 580 788 550 c 1,507,508
 814 537 814 537 814 517 c 1,509,510
 843 513 843 513 843 482 c 1,511,-1
 869 484 l 1,512,-1
 900 482 l 1,513,514
 916 491 916 491 922 491 c 0,515,516
 925 491 925 491 929 484 c 1,517,518
 924 468 924 468 924 464 c 0,519,520
 929 450 929 450 929 445 c 0,521,522
 927 440 927 440 927 438 c 0,523,524
 953 421 953 421 953 405 c 2,525,-1
 953 396 l 1,526,527
 973 396 973 396 982 363 c 1,528,529
 975 336 975 336 975 328 c 0,530,531
 977 316 977 316 977 310 c 1,532,-1
 979 310 l 1,533,534
 1000 358 1000 358 1041 414 c 0,535,536
 1068 456 1068 456 1085 497 c 1,537,-1
 1092 497 l 2,538,539
 1098 497 1098 497 1098 489 c 0,540,541
 1095 464 1095 464 1065 420 c 1,542,-1
 1068 420 l 1,543,544
 1119 432 1119 432 1121 445 c 0,545,546
 1125 445 1125 445 1129 447 c 0,547,548
 1148 445 1148 445 1160 445 c 0,549,550
 1164 445 1164 445 1187 453 c 1,551,-1
 1187 456 l 1,552,-1
 1180 456 l 2,553,554
 1171 456 1171 456 1151 451 c 1,555,556
 1107 461 1107 461 1107 486 c 2,557,-1
 1107 493 l 2,558,559
 1109 506 1109 506 1114 506 c 2,560,-1
 1121 506 l 2,561,562
 1125 506 1125 506 1127 482 c 1,563,564
 1139 471 1139 471 1147 471 c 0,565,566
 1175 475 1175 475 1182 475 c 0,567,568
 1231 451 1231 451 1253 451 c 0,569,570
 1290 451 1290 451 1290 495 c 0,571,572
 1290 557 1290 557 1264 603 c 1,573,574
 1251 661 1251 661 1251 700 c 2,575,-1
 1251 705 l 2,576,577
 1251 733 1251 733 1299 780 c 1,578,579
 1316 780 1316 780 1365 846 c 0,580,581
 1368 846 1368 846 1383 854 c 1,582,583
 1378 888 1378 888 1370 912 c 1,584,585
 1372 934 1372 934 1372 947 c 2,586,-1
 1372 951 l 1,587,588
 1355 1033 1355 1033 1334 1070 c 2,589,-1
 1297 1137 l 1,590,591
 1282 1150 1282 1150 1259 1189 c 1,592,593
 1205 1245 1205 1245 1147 1264 c 0,594,595
 1027 1300 1027 1300 982 1300 c 2,596,-1
 960 1300 l 1,597,-1
 946 1297 l 2,598,599
 943 1300 943 1300 938 1300 c 0,600,601
 811 1282 811 1282 792 1251 c 1,602,603
 754 1220 754 1220 715 1172 c 0,604,605
 667 1115 667 1115 667 1015 c 0,482,483
307 1207 m 2,606,607
 307 1198 307 1198 349 1165 c 1,608,609
 351 1156 351 1156 351 1150 c 1,610,-1
 371 1152 l 1,611,612
 398 1126 398 1126 420 1126 c 1,613,614
 454 1148 454 1148 475 1192 c 1,615,-1
 475 1200 l 2,616,617
 475 1215 475 1215 435 1242 c 1,618,-1
 435 1258 l 1,619,-1
 431 1258 l 1,620,-1
 415 1256 l 1,621,622
 384 1284 384 1284 367 1284 c 0,623,624
 343 1284 343 1284 307 1216 c 1,625,-1
 307 1207 l 2,606,607
880 1260 m 1,626,627
 909 1251 909 1251 909 1234 c 2,628,-1
 909 1227 l 1,629,630
 905 1218 905 1218 858 1194 c 1,631,-1
 849 1194 l 1,632,633
 827 1203 827 1203 827 1220 c 2,634,-1
 827 1223 l 2,635,636
 827 1247 827 1247 880 1260 c 1,626,627
845 1216 m 1,637,-1
 849 1214 l 1,638,-1
 856 1214 l 1,639,-1
 889 1234 l 1,640,641
 887 1240 887 1240 876 1240 c 0,642,643
 845 1232 845 1232 845 1216 c 1,637,-1
365 1240 m 2,644,-1
 371 1240 l 1,645,646
 429 1199 429 1199 433 1189 c 1,647,648
 424 1172 424 1172 418 1170 c 2,649,-1
 413 1170 l 1,650,651
 349 1213 349 1213 349 1220 c 0,652,653
 359 1237 359 1237 365 1240 c 2,644,-1
781 1189 m 2,654,-1
 788 1189 l 2,655,656
 808 1187 808 1187 808 1170 c 2,657,-1
 808 1161 l 2,658,659
 808 1151 808 1151 779 1117 c 1,660,661
 766 1035 766 1035 724 1035 c 1,662,663
 706 1042 706 1042 706 1064 c 2,664,-1
 706 1084 l 2,665,666
 706 1138 706 1138 768 1185 c 0,667,668
 775 1189 775 1189 781 1189 c 2,654,-1
1614 1167 m 2,669,-1
 1614 1165 l 2,670,671
 1614 1152 1614 1152 1630 1141 c 1,672,-1
 1638 1141 l 1,673,674
 1652 1149 1652 1149 1652 1152 c 2,675,-1
 1652 1156 l 1,676,677
 1646 1181 1646 1181 1632 1181 c 1,678,679
 1615 1172 1615 1172 1614 1167 c 2,669,-1
724 1081 m 2,680,-1
 724 1064 l 1,681,-1
 726 1053 l 1,682,-1
 730 1053 l 2,683,684
 748 1053 748 1053 764 1128 c 1,685,686
 785 1151 785 1151 792 1163 c 1,687,-1
 792 1167 l 2,688,689
 792 1171 792 1171 786 1174 c 1,690,691
 756 1162 756 1162 733 1119 c 0,692,693
 724 1098 724 1098 724 1081 c 2,680,-1
1740 1132 m 0,694,695
 1733 1134 1733 1134 1724 1134 c 1,696,697
 1724 1116 1724 1116 1660 1090 c 1,698,699
 1701 1016 1701 1016 1711 991 c 1,700,701
 1736 1002 1736 1002 1742 1009 c 1,702,-1
 1711 1070 l 1,703,-1
 1733 1081 l 1,704,705
 1755 1046 1755 1046 1755 1040 c 1,706,707
 1761 1040 1761 1040 1786 1053 c 1,708,709
 1786 1061 1786 1061 1766 1095 c 1,710,-1
 1766 1097 l 2,711,712
 1766 1102 1766 1102 1788 1108 c 1,713,-1
 1790 1108 l 1,714,715
 1801 1081 1801 1081 1821 1048 c 1,716,717
 1846 1062 1846 1062 1850 1062 c 1,718,719
 1850 1072 1850 1072 1799 1161 c 1,720,721
 1746 1132 1746 1132 1740 1132 c 0,694,695
246 1132 m 1,722,723
 246 1126 246 1126 232 1097 c 1,724,725
 328 1057 328 1057 336 1051 c 1,726,-1
 336 1048 l 1,727,728
 329 1026 329 1026 321 1026 c 0,729,730
 303 1026 303 1026 299 1048 c 1,731,732
 288 1042 288 1042 281 1042 c 2,733,-1
 219 1068 l 1,734,-1
 206 1031 l 1,735,-1
 206 1029 l 1,736,737
 272 1008 272 1008 272 989 c 2,738,-1
 272 987 l 1,739,740
 283 993 283 993 290 993 c 0,741,742
 306 991 306 991 307 985 c 0,743,744
 302 960 302 960 296 960 c 2,745,-1
 294 960 l 1,746,-1
 191 1000 l 1,747,-1
 191 998 l 1,748,749
 177 967 177 967 177 962 c 1,750,751
 243 940 243 940 243 929 c 2,752,-1
 243 923 l 1,753,-1
 246 923 l 2,754,755
 248 923 248 923 263 927 c 1,756,-1
 292 916 l 1,757,758
 349 936 349 936 349 976 c 0,759,760
 349 981 349 981 343 993 c 1,761,762
 366 1002 366 1002 373 1024 c 0,763,764
 373 1030 373 1030 378 1037 c 1,765,766
 365 1090 365 1090 351 1090 c 0,767,768
 327 1097 327 1097 327 1115 c 1,769,770
 316 1108 316 1108 312 1108 c 2,771,-1
 248 1132 l 1,772,-1
 246 1132 l 1,722,723
1828 996 m 1,773,774
 1828 985 1828 985 1797 971 c 1,775,-1
 1793 956 l 1,776,-1
 1793 954 l 2,777,778
 1793 940 1793 940 1804 905 c 1,779,780
 1795 899 1795 899 1784 899 c 0,781,782
 1777 899 1777 899 1773 925 c 1,783,784
 1788 930 1788 930 1788 934 c 0,785,786
 1777 966 1777 966 1777 969 c 1,787,788
 1735 961 1735 961 1735 940 c 2,789,-1
 1735 927 l 1,790,791
 1746 854 1746 854 1779 854 c 1,792,-1
 1790 857 l 1,793,794
 1790 853 1790 853 1804 848 c 1,795,796
 1804 859 1804 859 1837 874 c 1,797,-1
 1841 890 l 1,798,-1
 1841 892 l 2,799,800
 1841 907 1841 907 1830 940 c 1,801,802
 1843 949 1843 949 1852 949 c 1,803,804
 1861 936 1861 936 1861 923 c 0,805,806
 1860 916 1860 916 1846 916 c 1,807,-1
 1857 877 l 1,808,809
 1901 885 1901 885 1901 910 c 0,810,811
 1888 991 1888 991 1859 991 c 2,812,-1
 1854 991 l 2,813,814
 1849 991 1849 991 1846 989 c 0,815,816
 1837 996 1837 996 1828 996 c 1,773,774
1162 991 m 0,817,818
 1181 991 1181 991 1240 971 c 1,819,-1
 1244 971 l 2,820,821
 1251 971 1251 971 1288 985 c 0,822,823
 1291 985 1291 985 1295 978 c 1,824,-1
 1295 971 l 2,825,826
 1295 961 1295 961 1235 951 c 0,827,828
 1226 951 1226 951 1180 969 c 1,829,-1
 1160 971 l 1,830,-1
 1127 965 l 1,831,-1
 1125 965 l 2,832,833
 1121 965 1121 965 1121 969 c 2,834,-1
 1121 976 l 2,835,836
 1121 987 1121 987 1162 991 c 0,817,818
973 978 m 2,837,-1
 979 978 l 2,838,839
 993 978 993 978 1050 956 c 1,840,841
 1076 953 1076 953 1076 947 c 2,842,-1
 1076 940 l 2,843,844
 1074 934 1074 934 1063 934 c 0,845,846
 1047 934 1047 934 988 958 c 0,847,848
 979 958 979 958 979 960 c 1,849,850
 959 960 959 960 929 936 c 1,851,-1
 922 936 l 2,852,853
 919 936 919 936 916 943 c 2,854,-1
 916 949 l 1,855,856
 945 978 945 978 973 978 c 2,837,-1
979 921 m 2,857,-1
 986 921 l 1,858,859
 1043 916 1043 916 1043 907 c 0,860,861
 1039 897 1039 897 1035 896 c 2,862,-1
 1021 896 l 2,863,864
 1013 896 1013 896 982 903 c 1,865,866
 946 903 946 903 916 859 c 1,867,-1
 913 859 l 2,868,869
 905 862 905 862 905 866 c 2,870,-1
 905 868 l 1,871,872
 925 921 925 921 979 921 c 2,857,-1
1220 896 m 2,873,-1
 1226 896 l 2,874,875
 1232 896 1232 896 1303 892 c 1,876,-1
 1303 890 l 1,877,-1
 1325 894 l 1,878,879
 1334 891 1334 891 1334 888 c 2,880,-1
 1334 881 l 2,881,882
 1334 874 1334 874 1312 870 c 1,883,884
 1251 877 1251 877 1233 877 c 2,885,-1
 1231 877 l 2,886,887
 1220 877 1220 877 1198 874 c 1,888,-1
 1195 879 l 1,889,-1
 1195 885 l 2,890,891
 1195 893 1195 893 1220 896 c 2,873,-1
964 870 m 2,892,-1
 973 870 l 2,893,894
 1012 870 1012 870 1103 839 c 1,895,896
 1156 807 1156 807 1156 791 c 2,897,-1
 1156 782 l 1,898,899
 1148 769 1148 769 1136 769 c 2,900,-1
 1132 769 l 2,901,902
 1120 769 1120 769 1052 799 c 1,903,904
 1033 799 1033 799 1008 802 c 1,905,906
 1008 798 1008 798 1002 795 c 2,907,-1
 979 795 l 2,908,909
 964 795 964 795 887 773 c 1,910,-1
 883 773 l 1,911,-1
 876 782 l 1,912,913
 877 798 877 798 929 854 c 0,914,915
 948 870 948 870 964 870 c 2,892,-1
618 804 m 1,916,-1
 618 802 l 1,917,918
 692 802 692 802 719 689 c 1,919,-1
 722 689 l 1,920,-1
 722 696 l 2,921,922
 722 701 722 701 719 705 c 1,923,924
 722 707 722 707 722 751 c 1,925,926
 711 751 711 751 700 793 c 1,927,928
 674 813 674 813 649 813 c 2,929,-1
 640 813 l 2,930,931
 635 813 635 813 618 804 c 1,916,-1
1378 810 m 1,932,933
 1372 795 1372 795 1297 755 c 1,934,-1
 1286 738 l 1,935,-1
 1288 738 l 1,936,937
 1303 744 1303 744 1319 744 c 2,938,-1
 1325 744 l 2,939,940
 1339 744 1339 744 1363 735 c 1,941,942
 1383 765 1383 765 1383 808 c 1,943,-1
 1378 810 l 1,932,933
607 780 m 1,944,-1
 607 749 l 2,945,946
 607 658 607 658 653 590 c 1,947,948
 670 545 670 545 697 524 c 1,949,950
 706 539 706 539 706 546 c 2,951,-1
 706 557 l 1,952,-1
 695 619 l 1,953,954
 703 671 703 671 708 683 c 1,955,956
 700 683 700 683 689 731 c 1,957,958
 655 784 655 784 627 784 c 0,959,960
 624 784 624 784 607 780 c 1,944,-1
202 782 m 1,961,-1
 202 740 l 1,962,-1
 195 731 l 1,963,-1
 202 722 l 1,964,-1
 202 683 l 1,965,-1
 224 683 l 1,966,-1
 224 724 l 1,967,-1
 228 724 l 1,968,-1
 246 685 l 2,969,970
 250 685 250 685 265 722 c 1,971,-1
 270 722 l 1,972,-1
 270 683 l 1,973,-1
 292 683 l 1,974,-1
 292 722 l 1,975,-1
 299 731 l 1,976,-1
 292 740 l 1,977,-1
 292 782 l 1,978,-1
 272 782 l 2,979,980
 268 782 268 782 250 740 c 1,981,-1
 243 740 l 1,982,983
 243 745 243 745 226 782 c 1,984,-1
 202 782 l 1,961,-1
323 782 m 1,985,-1
 323 742 l 2,986,987
 323 741 323 741 314 731 c 1,988,989
 323 728 323 728 323 716 c 2,990,-1
 323 683 l 1,991,-1
 343 683 l 1,992,-1
 343 724 l 1,993,-1
 345 724 l 2,994,995
 350 724 350 724 365 685 c 1,996,-1
 389 724 l 1,997,-1
 391 724 l 1,998,-1
 391 683 l 1,999,-1
 411 683 l 1,1000,-1
 411 722 l 1,1001,-1
 420 733 l 1,1002,1003
 411 733 411 733 411 740 c 2,1004,-1
 411 782 l 1,1005,-1
 391 782 l 2,1006,1007
 387 782 387 782 369 740 c 1,1008,-1
 367 740 l 2,1009,1010
 362 740 362 740 345 782 c 1,1011,-1
 323 782 l 1,985,-1
435 782 m 1,1012,-1
 435 780 l 2,1013,1014
 435 777 435 777 459 733 c 1,1015,1016
 435 686 435 686 435 683 c 1,1017,-1
 459 683 l 2,1018,1019
 464 683 464 683 470 702 c 1,1020,-1
 473 702 l 2,1021,1022
 478 702 478 702 484 683 c 1,1023,-1
 510 683 l 1,1024,-1
 510 685 l 1,1025,1026
 488 727 488 727 488 733 c 2,1027,-1
 510 782 l 1,1028,-1
 484 782 l 1,1029,1030
 478 762 478 762 473 762 c 2,1031,-1
 470 762 l 1,1032,1033
 464 782 464 782 459 782 c 2,1034,-1
 435 782 l 1,1012,-1
1475 782 m 1,1035,-1
 1475 742 l 1,1036,1037
 1467 732 1467 732 1467 731 c 0,1038,1039
 1475 728 1475 728 1475 716 c 2,1040,-1
 1475 683 l 1,1041,-1
 1495 683 l 1,1042,-1
 1495 724 l 1,1043,-1
 1497 724 l 2,1044,1045
 1503 724 1503 724 1517 685 c 1,1046,-1
 1541 724 l 1,1047,-1
 1544 724 l 1,1048,-1
 1544 683 l 1,1049,-1
 1563 683 l 1,1050,-1
 1563 722 l 1,1051,-1
 1572 733 l 1,1052,1053
 1563 733 1563 733 1563 740 c 2,1054,-1
 1563 782 l 1,1055,-1
 1544 782 l 2,1056,1057
 1539 782 1539 782 1522 740 c 1,1058,-1
 1519 740 l 2,1059,1060
 1515 740 1515 740 1497 782 c 1,1061,-1
 1475 782 l 1,1035,-1
1594 782 m 1,1062,-1
 1594 742 l 1,1063,-1
 1586 731 l 1,1064,1065
 1594 728 1594 728 1594 716 c 2,1066,-1
 1594 683 l 1,1067,-1
 1614 683 l 1,1068,-1
 1614 724 l 1,1069,-1
 1616 724 l 2,1070,1071
 1622 724 1622 724 1636 685 c 1,1072,-1
 1660 724 l 1,1073,-1
 1663 724 l 1,1074,-1
 1663 683 l 1,1075,-1
 1682 683 l 1,1076,-1
 1682 722 l 1,1077,-1
 1691 733 l 1,1078,1079
 1682 733 1682 733 1682 740 c 2,1080,-1
 1682 782 l 1,1081,-1
 1663 782 l 2,1082,1083
 1658 782 1658 782 1641 740 c 1,1084,-1
 1638 740 l 2,1085,1086
 1634 740 1634 740 1616 782 c 1,1087,-1
 1594 782 l 1,1062,-1
1707 782 m 1,1088,1089
 1731 735 1731 735 1731 731 c 2,1090,-1
 1707 683 l 1,1091,-1
 1731 683 l 2,1092,1093
 1736 683 1736 683 1742 702 c 1,1094,-1
 1744 702 l 2,1095,1096
 1749 702 1749 702 1755 683 c 1,1097,-1
 1784 683 l 1,1098,1099
 1760 729 1760 729 1760 733 c 2,1100,-1
 1784 782 l 1,1101,-1
 1755 782 l 1,1102,1103
 1749 762 1749 762 1744 762 c 2,1104,-1
 1742 762 l 1,1105,1106
 1736 782 1736 782 1731 782 c 2,1107,-1
 1707 782 l 1,1088,1089
1801 782 m 1,1108,1109
 1826 735 1826 735 1826 731 c 2,1110,-1
 1801 683 l 1,1111,-1
 1826 683 l 2,1112,1113
 1831 683 1831 683 1837 702 c 1,1114,-1
 1839 702 l 2,1115,1116
 1844 702 1844 702 1850 683 c 1,1117,-1
 1879 683 l 1,1118,1119
 1854 729 1854 729 1854 733 c 2,1120,-1
 1879 782 l 1,1121,-1
 1850 782 l 1,1122,1123
 1844 762 1844 762 1839 762 c 2,1124,-1
 1837 762 l 1,1125,1126
 1831 782 1831 782 1826 782 c 2,1127,-1
 1801 782 l 1,1108,1109
1021 777 m 1,1128,1129
 1082 770 1082 770 1087 755 c 1,1130,-1
 1087 749 l 2,1131,1132
 1087 746 1087 746 1081 742 c 1,1133,1134
 1046 758 1046 758 1024 758 c 2,1135,-1
 1021 758 l 1,1136,1137
 962 747 962 747 962 733 c 1,1138,1139
 957 727 957 727 955 727 c 2,1140,-1
 949 727 l 2,1141,1142
 942 729 942 729 942 740 c 0,1143,1144
 942 763 942 763 1021 777 c 1,1128,1129
649 753 m 0,1145,1146
 658 750 658 750 662 742 c 1,1147,-1
 653 669 l 1,1148,1149
 658 630 658 630 669 630 c 1,1150,-1
 678 634 l 1,1151,1152
 686 631 686 631 686 628 c 2,1153,-1
 686 621 l 2,1154,1155
 686 618 686 618 675 610 c 1,1156,-1
 667 610 l 2,1157,1158
 641 610 641 610 634 669 c 1,1159,1160
 640 710 640 710 640 727 c 2,1161,-1
 640 735 l 1,1162,-1
 638 747 l 1,1163,1164
 645 753 645 753 649 753 c 0,1145,1146
1030 749 m 256,1165,1166
 1076 749 1076 749 1112 709 c 1,1167,-1
 1112 702 l 1,1168,1169
 1082 665 1082 665 1028 665 c 1,1170,1171
 951 678 951 678 951 711 c 2,1172,-1
 951 716 l 1,1173,1174
 984 749 984 749 1030 749 c 256,1165,1166
1125 740 m 1,1175,-1
 1132 740 l 1,1176,1177
 1156 721 1156 721 1156 705 c 0,1178,1179
 1153 683 1153 683 1143 683 c 0,1180,1181
 1134 686 1134 686 1134 689 c 2,1182,-1
 1134 709 l 1,1183,-1
 1118 727 l 1,1184,-1
 1118 733 l 2,1185,1186
 1118 736 1118 736 1125 740 c 1,1175,-1
1035 729 m 1,1187,1188
 1039 722 1039 722 1039 716 c 2,1189,-1
 1039 705 l 2,1190,1191
 1039 699 1039 699 1035 685 c 1,1192,-1
 1037 685 l 1,1193,1194
 1085 690 1085 690 1085 709 c 1,1195,1196
 1058 729 1058 729 1035 729 c 1,1187,1188
1321 727 m 1,1197,1198
 1325 718 1325 718 1325 713 c 0,1199,1200
 1323 700 1323 700 1317 689 c 1,1201,-1
 1319 689 l 2,1202,1203
 1354 689 1354 689 1354 718 c 1,1204,1205
 1337 727 1337 727 1321 727 c 1,1197,1198
973 711 m 1,1206,-1
 973 707 l 1,1207,-1
 975 707 l 1,1208,-1
 975 711 l 1,1209,-1
 973 711 l 1,1206,-1
1270 705 m 1,1210,-1
 1270 696 l 2,1211,1212
 1271 691 1271 691 1275 691 c 1,1213,-1
 1275 694 l 1,1214,-1
 1273 705 l 1,1215,-1
 1270 705 l 1,1210,-1
675 696 m 0,1216,1217
 681 696 681 696 689 691 c 1,1218,1219
 684 676 684 676 684 667 c 2,1220,-1
 686 647 l 1,1221,-1
 678 643 l 1,1222,1223
 666 643 666 643 662 669 c 1,1224,1225
 667 696 667 696 675 696 c 0,1216,1217
1118 687 m 2,1226,-1
 1125 687 l 2,1227,1228
 1128 687 1128 687 1132 680 c 1,1229,-1
 1132 678 l 2,1230,1231
 1132 660 1132 660 1092 616 c 1,1232,-1
 1090 616 l 2,1233,1234
 1084 616 1084 616 1079 628 c 1,1235,-1
 1112 674 l 1,1236,1237
 1114 687 1114 687 1118 687 c 2,1226,-1
1297 669 m 2,1238,-1
 1281 669 l 1,1239,-1
 1270 672 l 1,1240,1241
 1272 628 1272 628 1306 548 c 1,1242,1243
 1308 519 1308 519 1308 502 c 2,1244,-1
 1308 493 l 2,1245,1246
 1308 474 1308 474 1299 460 c 1,1247,1248
 1309 460 1309 460 1341 431 c 1,1249,-1
 1343 431 l 1,1250,1251
 1343 435 1343 435 1354 506 c 2,1252,-1
 1367 632 l 2,1253,1254
 1366 652 1366 652 1361 652 c 1,1255,1256
 1361 617 1361 617 1323 590 c 1,1257,-1
 1319 590 l 2,1258,1259
 1316 590 1316 590 1312 597 c 1,1260,-1
 1312 601 l 1,1261,1262
 1345 632 1345 632 1345 669 c 2,1263,-1
 1345 676 l 1,1264,1265
 1318 669 1318 669 1297 669 c 2,1238,-1
1187 645 m 2,1266,-1
 1195 645 l 2,1267,1268
 1201 645 1201 645 1202 628 c 2,1269,-1
 1200 616 l 1,1270,-1
 1206 586 l 1,1271,-1
 1206 581 l 2,1272,1273
 1204 575 1204 575 1193 575 c 0,1274,1275
 1183 575 1183 575 1180 634 c 2,1276,-1
 1180 639 l 2,1277,1278
 1180 642 1180 642 1187 645 c 2,1266,-1
933 643 m 2,1279,-1
 942 643 l 1,1280,1281
 971 610 971 610 1008 610 c 2,1282,-1
 1019 610 l 2,1283,1284
 1030 610 1030 610 1068 621 c 1,1285,-1
 1070 616 l 1,1286,-1
 1070 608 l 1,1287,1288
 1056 590 1056 590 1017 590 c 1,1289,1290
 929 602 929 602 929 636 c 2,1291,-1
 929 639 l 2,1292,1293
 930 643 930 643 933 643 c 2,1279,-1
1806 628 m 1,1294,1295
 1804 602 1804 602 1804 590 c 1,1296,1297
 1809 590 1809 590 1832 570 c 0,1298,1299
 1832 567 1832 567 1799 553 c 1,1300,-1
 1795 517 l 1,1301,1302
 1863 550 1863 550 1868 550 c 2,1303,-1
 1876 550 l 1,1304,-1
 1887 539 l 2,1305,1306
 1891 539 1891 539 1896 548 c 1,1307,-1
 1912 546 l 1,1308,-1
 1920 546 l 1,1309,-1
 1920 559 l 1,1310,-1
 1923 575 l 1,1311,1312
 1900 575 1900 575 1892 588 c 1,1313,1314
 1881 582 1881 582 1881 579 c 1,1315,1316
 1865 579 1865 579 1826 614 c 1,1317,-1
 1806 628 l 1,1294,1295
226 612 m 1,1318,1319
 226 603 226 603 197 594 c 1,1320,-1
 193 579 l 1,1321,1322
 195 547 195 547 195 544 c 0,1323,1324
 188 539 188 539 182 539 c 2,1325,-1
 180 539 l 2,1326,1327
 174 539 174 539 173 561 c 1,1328,1329
 178 566 178 566 186 566 c 1,1330,1331
 185 597 185 597 182 597 c 0,1332,1333
 146 597 146 597 146 575 c 0,1334,1335
 146 509 146 509 171 509 c 0,1336,1337
 177 509 177 509 188 500 c 1,1338,1339
 188 509 188 509 217 515 c 1,1340,-1
 224 535 l 2,1341,1342
 224 540 224 540 219 566 c 1,1343,1344
 229 572 229 572 237 572 c 1,1345,1346
 241 567 241 567 243 550 c 1,1347,1348
 230 545 230 545 230 544 c 0,1349,1350
 230 542 230 542 232 515 c 1,1351,-1
 235 515 l 2,1352,1353
 270 515 270 515 270 537 c 0,1354,1355
 270 603 270 603 243 603 c 0,1356,1357
 237 603 237 603 228 612 c 1,1358,-1
 226 612 l 1,1318,1319
1132 594 m 2,1359,-1
 1138 594 l 2,1360,1361
 1141 594 1141 594 1145 588 c 1,1362,1363
 1129 531 1129 531 1118 531 c 2,1364,-1
 1114 531 l 2,1365,1366
 1111 531 1111 531 1107 539 c 1,1367,1368
 1126 592 1126 592 1132 594 c 2,1359,-1
1160 544 m 0,1369,1370
 1189 535 1189 535 1189 526 c 2,1371,-1
 1189 520 l 2,1372,1373
 1189 515 1189 515 1184 515 c 2,1374,-1
 1180 515 l 1,1375,1376
 1151 524 1151 524 1151 531 c 2,1377,-1
 1151 537 l 2,1378,1379
 1151 543 1151 543 1160 544 c 0,1369,1370
1775 425 m 1,1380,1381
 1830 413 1830 413 1830 405 c 2,1382,-1
 1830 401 l 1,1383,-1
 1841 407 l 1,1384,1385
 1877 401 1877 401 1892 401 c 1,1386,-1
 1898 427 l 1,1387,1388
 1871 434 1871 434 1865 434 c 1,1389,-1
 1865 436 l 2,1390,1391
 1868 439 1868 439 1905 453 c 1,1392,-1
 1912 484 l 1,1393,1394
 1875 473 1875 473 1868 473 c 1,1395,1396
 1868 497 1868 497 1819 504 c 1,1397,-1
 1808 504 l 2,1398,1399
 1786 504 1786 504 1775 425 c 1,1380,1381
224 480 m 1,1400,1401
 224 483 224 483 215 486 c 1,1402,1403
 215 472 215 472 164 462 c 0,1404,1405
 162 462 162 462 162 460 c 0,1406,1407
 166 434 166 434 171 434 c 0,1408,1409
 198 440 198 440 208 440 c 1,1410,1411
 216 392 216 392 230 392 c 2,1412,-1
 232 392 l 1,1413,1414
 294 396 294 396 294 420 c 2,1415,-1
 294 425 l 1,1416,-1
 279 491 l 1,1417,1418
 234 480 234 480 224 480 c 1,1400,1401
1815 471 m 0,1419,1420
 1841 471 1841 471 1841 460 c 0,1421,1422
 1840 442 1840 442 1835 442 c 0,1423,1424
 1808 445 1808 445 1808 453 c 0,1425,1426
 1809 471 1809 471 1815 471 c 0,1419,1420
259 453 m 1,1427,1428
 265 441 265 441 265 431 c 1,1429,1430
 258 425 258 425 237 425 c 1,1431,1432
 230 438 230 438 230 447 c 1,1433,1434
 249 453 249 453 259 453 c 1,1427,1428
1742 330 m 1,1435,1436
 1742 311 1742 311 1784 299 c 1,1437,1438
 1788 286 1788 286 1790 286 c 0,1439,1440
 1801 293 1801 293 1804 293 c 0,1441,1442
 1812 287 1812 287 1837 282 c 1,1443,1444
 1859 282 1859 282 1872 343 c 1,1445,-1
 1872 348 l 2,1446,1447
 1872 364 1872 364 1832 376 c 1,1448,1449
 1831 387 1831 387 1826 387 c 2,1450,-1
 1819 383 l 1,1451,-1
 1815 383 l 1,1452,-1
 1777 394 l 1,1453,1454
 1758 394 1758 394 1742 330 c 1,1435,1436
257 374 m 0,1455,1456
 251 374 251 374 243 378 c 1,1457,1458
 243 368 243 368 224 359 c 1,1459,1460
 193 352 193 352 193 343 c 0,1461,1462
 202 319 202 319 204 319 c 0,1463,1464
 239 334 239 334 246 334 c 0,1465,1466
 251 334 251 334 257 308 c 1,1467,1468
 217 293 217 293 215 293 c 1,1469,-1
 215 290 l 1,1470,1471
 221 264 221 264 226 264 c 0,1472,1473
 267 279 267 279 274 279 c 0,1474,1475
 277 277 277 277 285 277 c 1,1476,1477
 285 290 285 290 336 306 c 1,1478,-1
 336 310 l 1,1479,1480
 312 368 312 368 305 392 c 1,1481,1482
 262 374 262 374 257 374 c 0,1455,1456
1782 359 m 0,1483,1484
 1792 359 1792 359 1841 339 c 1,1485,-1
 1841 337 l 2,1486,1487
 1838 315 1838 315 1832 315 c 0,1488,1489
 1773 336 1773 336 1773 339 c 0,1490,1491
 1777 359 1777 359 1782 359 c 0,1483,1484
290 352 m 0,1492,1493
 295 346 295 346 301 326 c 1,1494,1495
 288 319 288 319 283 319 c 1,1496,1497
 275 330 275 330 272 345 c 1,1498,1499
 285 352 285 352 290 352 c 0,1492,1493
1187 317 m 2,1500,-1
 1182 319 l 1,1501,1502
 1170 313 1170 313 1140 310 c 1,1503,1504
 1131 297 1131 297 1110 297 c 0,1505,1506
 1106 297 1106 297 1096 301 c 1,1507,1508
 1084 295 1084 295 1079 295 c 1,1509,1510
 1079 290 1079 290 1083 290 c 2,1511,-1
 1121 290 l 1,1512,1513
 1259 305 1259 305 1259 328 c 1,1514,1515
 1237 330 1237 330 1226 330 c 2,1516,-1
 1224 330 l 1,1517,1518
 1194 317 1194 317 1187 317 c 2,1500,-1
1729 304 m 1,1519,-1
 1687 220 l 1,1520,1521
 1701 211 1701 211 1711 211 c 1,1522,1523
 1722 231 1722 231 1722 235 c 1,1524,-1
 1724 235 l 1,1525,1526
 1751 231 1751 231 1751 211 c 1,1527,1528
 1758 215 1758 215 1764 215 c 0,1529,1530
 1769 215 1769 215 1808 193 c 1,1531,-1
 1810 193 l 1,1532,1533
 1821 218 1821 218 1821 222 c 0,1534,1535
 1775 240 1775 240 1775 257 c 1,1536,1537
 1766 253 1766 253 1762 253 c 0,1538,1539
 1740 263 1740 263 1740 266 c 0,1540,1541
 1751 285 1751 285 1751 295 c 1,1542,1543
 1735 304 1735 304 1729 304 c 1,1519,-1
301 259 m 2,1544,1545
 297 259 297 259 288 264 c 1,1546,1547
 288 246 288 246 241 226 c 1,1548,1549
 250 206 250 206 257 200 c 1,1550,1551
 303 226 303 226 310 226 c 1,1552,1553
 299 204 299 204 277 167 c 0,1554,1555
 277 160 277 160 290 138 c 1,1556,-1
 334 163 l 2,1557,1558
 336 160 336 160 347 160 c 1,1559,1560
 347 176 347 176 387 191 c 0,1561,1562
 393 196 393 196 393 200 c 0,1563,1564
 382 219 382 219 382 222 c 1,1565,-1
 329 198 l 1,1566,-1
 329 200 l 1,1567,-1
 360 255 l 1,1568,1569
 360 265 360 265 345 284 c 1,1570,-1
 301 259 l 2,1544,1545
1233 262 m 1,1571,1572
 1235 226 1235 226 1242 226 c 2,1573,-1
 1246 226 l 2,1574,1575
 1253 229 1253 229 1253 240 c 2,1576,-1
 1253 248 l 2,1577,1578
 1253 260 1253 260 1244 264 c 1,1579,-1
 1237 264 l 1,1580,-1
 1233 262 l 1,1571,1572
1198 253 m 1,1581,1582
 1193 248 1193 248 1191 229 c 1,1583,1584
 1194 213 1194 213 1202 213 c 0,1585,1586
 1206 215 1206 215 1209 215 c 1,1587,-1
 1209 242 l 2,1588,1589
 1209 244 1209 244 1211 244 c 1,1590,1591
 1209 253 1209 253 1198 253 c 1,1581,1582
1149 242 m 1,1592,-1
 1151 220 l 1,1593,-1
 1151 207 l 2,1594,1595
 1151 203 1151 203 1158 200 c 2,1596,-1
 1162 200 l 2,1597,1598
 1167 200 1167 200 1167 204 c 2,1599,-1
 1167 233 l 1,1600,-1
 1165 244 l 1,1601,-1
 1154 244 l 1,1602,-1
 1149 242 l 1,1592,-1
1678 207 m 1,1603,-1
 1627 134 l 2,1604,1605
 1627 132 1627 132 1669 101 c 1,1606,-1
 1669 90 l 1,1607,-1
 1682 92 l 1,1608,1609
 1697 83 1697 83 1724 63 c 1,1610,-1
 1727 63 l 1,1611,1612
 1727 67 1727 67 1742 88 c 1,1613,-1
 1705 116 l 1,1614,1615
 1716 138 1716 138 1722 138 c 0,1616,1617
 1733 132 1733 132 1757 114 c 1,1618,-1
 1762 114 l 1,1619,1620
 1762 117 1762 117 1777 138 c 1,1621,1622
 1736 165 1736 165 1735 169 c 2,1623,-1
 1735 180 l 1,1624,-1
 1733 180 l 1,1625,-1
 1718 178 l 1,1626,1627
 1714 184 1714 184 1678 207 c 1,1603,-1
1229 156 m 0,1628,1629
 1229 152 1229 152 1233 152 c 2,1630,-1
 1244 152 l 1,1631,1632
 1248 176 1248 176 1248 187 c 0,1633,1634
 1246 191 1246 191 1246 193 c 1,1635,-1
 1237 193 l 2,1636,1637
 1229 193 1229 193 1229 156 c 0,1628,1629
369 145 m 1,1638,-1
 356 147 l 1,1639,1640
 356 129 356 129 329 118 c 0,1641,1642
 329 116 329 116 314 105 c 1,1643,1644
 329 81 329 81 332 81 c 2,1645,-1
 373 110 l 1,1646,-1
 387 107 l 1,1647,-1
 387 118 l 1,1648,-1
 429 152 l 1,1649,1650
 413 173 413 173 413 176 c 1,1651,1652
 411 176 411 176 369 145 c 1,1638,-1
1171 156 m 2,1653,-1
 1171 136 l 2,1654,1655
 1172 132 1172 132 1176 132 c 2,1656,-1
 1182 132 l 2,1657,1658
 1189 132 1189 132 1189 160 c 2,1659,-1
 1189 174 l 1,1660,-1
 1178 174 l 2,1661,1662
 1171 172 1171 172 1171 156 c 2,1653,-1
1682 165 m 2,1663,-1
 1685 165 l 1,1664,1665
 1698 157 1698 157 1698 154 c 0,1666,1667
 1686 134 1686 134 1680 132 c 1,1668,1669
 1667 140 1667 140 1667 143 c 2,1670,-1
 1667 145 l 1,1671,1672
 1679 164 1679 164 1682 165 c 2,1663,-1
426 110 m 1,1673,-1
 418 110 l 1,1674,-1
 413 112 l 1,1675,1676
 413 95 413 95 402 83 c 1,1677,-1
 402 74 l 2,1678,1679
 402 63 402 63 426 37 c 1,1680,-1
 426 35 l 2,1681,1682
 426 32 426 32 415 24 c 1,1683,-1
 413 24 l 2,1684,1685
 409 24 409 24 400 39 c 1,1686,-1
 400 41 l 1,1687,-1
 407 50 l 1,1688,1689
 388 72 388 72 387 72 c 0,1690,1691
 369 59 369 59 367 52 c 2,1692,-1
 367 44 l 2,1693,1694
 367 25 367 25 411 -9 c 1,1695,-1
 424 -9 l 1,1696,1697
 432 -3 432 -3 440 -3 c 2,1698,-1
 442 -3 l 1,1699,-1
 446 -5 l 1,1700,1701
 446 9 446 9 459 24 c 1,1702,-1
 459 33 l 2,1703,1704
 459 43 459 43 435 70 c 1,1705,-1
 435 72 l 2,1706,1707
 435 75 435 75 446 83 c 1,1708,-1
 448 83 l 1,1709,1710
 462 75 462 75 462 63 c 1,1711,1712
 458 63 458 63 455 57 c 0,1713,1714
 455 56 455 56 475 35 c 1,1715,1716
 495 49 495 49 495 61 c 2,1717,-1
 495 63 l 2,1718,1719
 495 82 495 82 451 116 c 1,1720,-1
 442 116 l 2,1721,1722
 434 116 434 116 426 110 c 1,1673,-1
1204 112 m 2,1723,-1
 1204 94 l 1,1724,-1
 1206 83 l 1,1725,-1
 1213 83 l 1,1726,1727
 1222 87 1222 87 1222 99 c 2,1728,-1
 1222 103 l 2,1729,1730
 1222 114 1222 114 1215 116 c 2,1731,-1
 1209 116 l 2,1732,1733
 1204 116 1204 116 1204 112 c 2,1723,-1
1557 55 m 1,1734,-1
 1557 50 l 1,1735,1736
 1561 50 1561 50 1594 17 c 1,1737,-1
 1594 6 l 1,1738,-1
 1605 6 l 2,1739,1740
 1608 6 1608 6 1643 -27 c 1,1741,-1
 1647 -27 l 1,1742,1743
 1647 -23 1647 -23 1665 -5 c 1,1744,1745
 1643 17 1643 17 1638 17 c 1,1746,-1
 1638 21 l 1,1747,-1
 1682 13 l 1,1748,-1
 1705 37 l 1,1749,1750
 1670 46 1670 46 1660 50 c 1,1751,1752
 1665 59 1665 59 1665 66 c 1,1753,1754
 1636 107 1636 107 1619 107 c 2,1755,-1
 1614 107 l 2,1756,1757
 1601 107 1601 107 1557 55 c 1,1734,-1
1160 37 m 1,1758,-1
 1165 35 l 1,1759,-1
 1171 35 l 1,1760,1761
 1176 39 1176 39 1184 68 c 0,1762,1763
 1182 72 1182 72 1182 74 c 1,1764,-1
 1171 74 l 2,1765,1766
 1165 74 1165 74 1160 37 c 1,1758,-1
1614 74 m 0,1767,1768
 1624 71 1624 71 1632 59 c 1,1769,-1
 1632 52 l 2,1770,1771
 1632 49 1632 49 1619 39 c 1,1772,1773
 1597 56 1597 56 1597 59 c 0,1774,1775
 1608 74 1608 74 1614 74 c 0,1767,1768
1200 30 m 2,1776,-1
 1200 21 l 2,1777,1778
 1200 18 1200 18 1206 15 c 2,1779,-1
 1211 15 l 2,1780,1781
 1217 15 1217 15 1220 44 c 1,1782,-1
 1213 48 l 1,1783,-1
 1209 48 l 2,1784,1785
 1203 48 1203 48 1200 30 c 2,1776,-1
475 4 m 1,1786,-1
 477 -1 l 1,1787,-1
 477 -12 l 1,1788,-1
 446 -49 l 1,1789,1790
 465 -68 465 -68 470 -69 c 1,1791,1792
 491 -41 491 -41 501 -34 c 1,1793,1794
 521 -49 521 -49 521 -51 c 2,1795,-1
 521 -53 l 1,1796,1797
 503 -74 503 -74 492 -89 c 1,1798,-1
 492 -91 l 1,1799,1800
 496 -91 496 -91 517 -109 c 1,1801,1802
 517 -104 517 -104 550 -69 c 1,1803,-1
 561 -69 l 1,1804,-1
 561 -56 l 1,1805,1806
 592 -18 592 -18 592 -14 c 2,1807,-1
 570 4 l 1,1808,-1
 567 4 l 1,1809,1810
 567 -1 567 -1 539 -31 c 1,1811,1812
 519 -16 519 -16 519 -14 c 2,1813,-1
 519 -12 l 2,1814,1815
 519 -10 519 -10 545 21 c 1,1816,-1
 545 24 l 2,1817,1818
 545 25 545 25 526 41 c 1,1819,-1
 523 41 l 1,1820,1821
 492 4 492 4 484 4 c 2,1822,-1
 475 4 l 1,1786,-1
1480 -20 m 2,1823,-1
 1480 -25 l 2,1824,1825
 1480 -33 1480 -33 1502 -60 c 1,1826,-1
 1502 -69 l 1,1827,-1
 1500 -73 l 1,1828,1829
 1518 -73 1518 -73 1526 -86 c 0,1830,1831
 1526 -93 1526 -93 1541 -102 c 1,1832,-1
 1550 -102 l 2,1833,1834
 1569 -102 1569 -102 1603 -60 c 0,1835,1836
 1605 -56 1605 -56 1605 -53 c 0,1837,1838
 1605 -44 1605 -44 1583 -18 c 1,1839,-1
 1583 -9 l 1,1840,-1
 1586 -5 l 1,1841,1842
 1566 -5 1566 -5 1552 19 c 1,1843,1844
 1542 28 1542 28 1533 28 c 1,1845,1846
 1480 -1 1480 -1 1480 -20 c 2,1823,-1
1533 -5 m 1,1847,1848
 1570 -50 1570 -50 1570 -58 c 1,1849,1850
 1558 -69 1558 -69 1557 -69 c 2,1851,-1
 1552 -69 l 2,1852,1853
 1550 -68 1550 -68 1513 -23 c 1,1854,-1
 1513 -18 l 1,1855,1856
 1525 -5 1525 -5 1533 -5 c 1,1847,1848
1385 -71 m 1,1857,-1
 1385 -75 l 1,1858,-1
 1409 -115 l 1,1859,-1
 1407 -131 l 1,1860,1861
 1425 -131 1425 -131 1440 -168 c 0,1862,1863
 1444 -168 1444 -168 1444 -175 c 1,1864,1865
 1513 -144 1513 -144 1513 -124 c 2,1866,-1
 1513 -120 l 2,1867,1868
 1513 -109 1513 -109 1486 -75 c 1,1869,1870
 1471 -36 1471 -36 1453 -36 c 0,1871,1872
 1444 -36 1444 -36 1385 -71 c 1,1857,-1
1447 -69 m 0,1873,1874
 1453 -71 1453 -71 1453 -82 c 1,1875,1876
 1444 -95 1444 -95 1433 -95 c 1,1877,-1
 1425 -80 l 1,1878,1879
 1439 -69 1439 -69 1447 -69 c 0,1873,1874
684 -75 m 1,1880,1881
 667 -124 667 -124 649 -124 c 1,1882,1883
 653 -131 653 -131 653 -137 c 0,1884,1885
 653 -142 653 -142 634 -183 c 1,1886,-1
 636 -183 l 1,1887,1888
 656 -194 656 -194 662 -194 c 1,1889,-1
 680 -155 l 1,1890,-1
 682 -155 l 2,1891,1892
 689 -155 689 -155 717 -170 c 1,1893,1894
 717 -166 717 -166 728 -146 c 1,1895,1896
 714 -141 714 -141 693 -128 c 1,1897,1898
 701 -111 701 -111 704 -111 c 0,1899,1900
 746 -133 746 -133 753 -133 c 2,1901,-1
 755 -133 l 1,1902,1903
 755 -126 755 -126 764 -111 c 1,1904,1905
 686 -73 686 -73 684 -73 c 1,1906,-1
 684 -75 l 1,1880,1881
1277 -122 m 1,1907,1908
 1297 -164 1297 -164 1297 -170 c 0,1909,1910
 1297 -174 1297 -174 1292 -181 c 1,1911,1912
 1308 -181 1308 -181 1323 -232 c 1,1913,1914
 1352 -224 1352 -224 1352 -219 c 0,1915,1916
 1336 -185 1336 -185 1336 -175 c 1,1917,1918
 1359 -166 1359 -166 1361 -166 c 0,1919,1920
 1380 -208 1380 -208 1383 -208 c 2,1921,-1
 1409 -197 l 1,1922,-1
 1389 -153 l 1,1923,-1
 1394 -137 l 1,1924,1925
 1378 -137 1378 -137 1363 -86 c 1,1926,1927
 1358 -86 1358 -86 1277 -122 c 1,1907,1908
1467 -109 m 1,1928,-1
 1471 -109 l 2,1929,1930
 1474 -109 1474 -109 1480 -120 c 1,1931,-1
 1480 -122 l 2,1932,1933
 1477 -128 1477 -128 1460 -137 c 1,1934,-1
 1451 -124 l 1,1935,-1
 1451 -120 l 2,1936,1937
 1451 -117 1451 -117 1467 -109 c 1,1928,-1
748 -172 m 0,1938,1939
 753 -180 753 -180 753 -186 c 0,1940,1941
 746 -210 746 -210 746 -214 c 2,1942,-1
 746 -219 l 2,1943,1944
 746 -240 746 -240 803 -250 c 1,1945,-1
 812 -250 l 2,1946,1947
 830 -250 830 -250 838 -210 c 1,1948,1949
 849 -205 849 -205 849 -203 c 0,1950,1951
 845 -196 845 -196 845 -190 c 0,1952,1953
 854 -158 854 -158 854 -155 c 0,1954,1955
 854 -133 854 -133 786 -122 c 0,1956,1957
 771 -122 771 -122 759 -166 c 1,1958,1959
 748 -170 748 -170 748 -172 c 0,1938,1939
1343 -124 m 2,1960,-1
 1345 -124 l 1,1961,1962
 1350 -138 1350 -138 1350 -142 c 2,1963,-1
 1325 -153 l 1,1964,1965
 1320 -146 1320 -146 1317 -135 c 1,1966,1967
 1334 -124 1334 -124 1343 -124 c 2,1960,-1
1187 -148 m 2,1968,-1
 1198 -197 l 1,1969,-1
 1191 -208 l 1,1970,-1
 1191 -210 l 1,1971,1972
 1207 -210 1207 -210 1215 -263 c 1,1973,-1
 1217 -263 l 1,1974,-1
 1295 -243 l 1,1975,1976
 1288 -222 1288 -222 1288 -219 c 1,1977,-1
 1240 -230 l 1,1978,1979
 1233 -214 1233 -214 1233 -203 c 1,1980,1981
 1236 -203 1236 -203 1240 -194 c 1,1982,1983
 1224 -194 1224 -194 1217 -146 c 0,1984,1985
 1215 -146 1215 -146 1215 -139 c 1,1986,1987
 1187 -145 1187 -145 1187 -148 c 2,1968,-1
880 -148 m 1,1988,1989
 874 -205 874 -205 863 -205 c 0,1990,1991
 860 -205 860 -205 860 -208 c 0,1992,1993
 865 -209 865 -209 869 -219 c 1,1994,-1
 863 -267 l 1,1995,-1
 865 -267 l 2,1996,1997
 866 -267 866 -267 894 -269 c 1,1998,-1
 894 -267 l 1,1999,-1
 900 -212 l 1,2000,-1
 902 -212 l 1,2001,2002
 906 -217 906 -217 933 -276 c 1,2003,2004
 956 -280 956 -280 962 -280 c 1,2005,2006
 962 -231 962 -231 979 -225 c 1,2007,2008
 975 -215 975 -215 971 -214 c 1,2009,-1
 979 -161 l 1,2010,-1
 949 -157 l 1,2011,2012
 943 -214 943 -214 938 -214 c 1,2013,2014
 912 -150 912 -150 905 -150 c 0,2015,2016
 889 -148 889 -148 880 -148 c 1,1988,1989
799 -153 m 0,2017,2018
 821 -155 821 -155 821 -161 c 0,2019,2020
 805 -221 805 -221 797 -221 c 0,2021,2022
 779 -217 779 -217 779 -212 c 0,2023,2024
 793 -153 793 -153 799 -153 c 0,2017,2018
988 -161 m 1,2025,-1
 988 -188 l 1,2026,-1
 1019 -188 l 2,2027,2028
 1024 -189 1024 -189 1024 -192 c 2,2029,-1
 1024 -205 l 2,2030,2031
 1024 -215 1024 -215 1013 -223 c 1,2032,-1
 1013 -225 l 1,2033,2034
 1019 -225 1019 -225 1024 -234 c 1,2035,-1
 1024 -283 l 1,2036,-1
 1054 -283 l 1,2037,-1
 1054 -232 l 1,2038,-1
 1063 -223 l 1,2039,-1
 1052 -210 l 1,2040,-1
 1052 -190 l 2,2041,2042
 1053 -186 1053 -186 1057 -186 c 2,2043,-1
 1085 -186 l 1,2044,-1
 1085 -161 l 1,2045,-1
 988 -161 l 1,2025,-1
EndSplineSet
Validated: 129
EndChar

StartChar: dollar
Encoding: 36 36 7
Width: 884
GlyphClass: 2
Flags: W
LayerCount: 2
Fore
SplineSet
454 1614 m 1,0,-1
 479 1599 l 1,1,-1
 508 1599 l 2,2,3
 548 1599 548 1599 568 1564 c 1,4,5
 568 1554 568 1554 558 1554 c 2,6,-1
 523 1554 l 1,7,-1
 523 1549 l 2,8,9
 523 1534 523 1534 543 1534 c 1,10,-1
 553 1539 l 1,11,12
 575 1539 575 1539 583 1450 c 1,13,14
 594 1408 594 1408 723 1340 c 1,15,16
 792 1291 792 1291 792 1225 c 0,17,18
 792 1175 792 1175 663 1121 c 0,19,20
 655 1116 655 1116 638 1116 c 2,21,-1
 618 1116 l 1,22,23
 505 1166 505 1166 459 1166 c 0,24,25
 367 1166 367 1166 324 1091 c 0,26,27
 309 1066 309 1066 304 1036 c 1,28,29
 304 925 304 925 429 867 c 1,30,31
 560 835 560 835 593 822 c 0,32,33
 690 777 690 777 782 642 c 1,34,35
 807 572 807 572 807 568 c 0,36,37
 797 566 797 566 797 558 c 1,38,39
 817 558 817 558 817 528 c 2,40,-1
 817 523 l 2,41,42
 817 512 817 512 812 503 c 1,43,44
 817 496 817 496 822 448 c 1,45,46
 817 448 817 448 817 443 c 1,47,-1
 773 448 l 1,48,-1
 743 448 l 1,49,-1
 743 443 l 1,50,51
 766 443 766 443 822 433 c 1,52,53
 819 383 819 383 812 383 c 1,54,-1
 817 373 l 1,55,56
 817 263 817 263 693 124 c 1,57,58
 573 62 573 62 573 -45 c 0,59,60
 573 -100 573 -100 558 -100 c 2,61,-1
 528 -95 l 1,62,63
 502 -100 502 -100 479 -100 c 1,64,65
 462 -90 462 -90 449 -90 c 2,66,-1
 429 -90 l 1,67,-1
 429 -95 l 1,68,69
 553 -108 553 -108 553 -120 c 1,70,71
 538 -150 538 -150 498 -150 c 0,72,73
 464 -150 464 -150 464 -140 c 1,74,75
 447 -150 447 -150 439 -150 c 0,76,77
 314 -150 314 -150 314 -85 c 0,78,79
 314 47 314 47 180 89 c 1,80,81
 80 159 80 159 80 214 c 0,82,83
 80 249 80 249 135 298 c 1,84,85
 214 343 214 343 239 343 c 2,86,-1
 284 343 l 1,87,88
 361 298 361 298 414 298 c 0,89,90
 461 298 461 298 523 343 c 1,91,-1
 543 343 l 1,92,-1
 543 348 l 1,93,94
 528 348 528 348 528 358 c 1,95,96
 553 399 553 399 553 443 c 0,97,98
 553 571 553 571 344 617 c 1,99,100
 180 667 180 667 130 762 c 1,101,102
 51 896 51 896 40 996 c 1,103,-1
 40 1021 l 1,104,105
 72 1217 72 1217 145 1290 c 1,106,107
 309 1414 309 1414 309 1465 c 0,108,109
 309 1589 309 1589 339 1589 c 1,110,111
 339 1614 339 1614 454 1614 c 1,0,-1
334 1569 m 1,112,-1
 334 1564 l 1,113,-1
 359 1564 l 1,114,-1
 359 1569 l 1,115,-1
 334 1569 l 1,112,-1
434 1559 m 1,116,-1
 434 1549 l 1,117,-1
 459 1549 l 1,118,-1
 493 1554 l 1,119,-1
 493 1559 l 1,120,-1
 434 1559 l 1,116,-1
718 568 m 1,121,-1
 718 563 l 1,122,-1
 733 563 l 1,123,-1
 733 568 l 1,124,-1
 718 568 l 1,121,-1
633 458 m 1,125,-1
 633 453 l 1,126,-1
 643 453 l 1,127,-1
 643 458 l 1,128,-1
 633 458 l 1,125,-1
369 -85 m 1,129,-1
 369 -90 l 1,130,-1
 419 -95 l 1,131,-1
 419 -85 l 1,132,-1
 369 -85 l 1,129,-1
EndSplineSet
Validated: 1
EndChar

StartChar: percent
Encoding: 37 37 8
Width: 1184
GlyphClass: 2
Flags: W
LayerCount: 2
Fore
SplineSet
264 1442 m 2,0,1
 339 1442 339 1442 424 1352 c 1,2,3
 454 1312 454 1312 454 1247 c 2,4,-1
 454 1178 l 2,5,6
 454 1106 454 1106 459 1013 c 1,7,8
 459 913 459 913 249 888 c 1,9,-1
 240 888 l 2,10,11
 95 888 95 888 45 968 c 0,12,13
 21 1004 21 1004 20 1038 c 0,14,15
 20 1048 20 1048 35 1048 c 1,16,-1
 35 1053 l 1,17,18
 0 1053 0 1053 0 1143 c 1,19,20
 24 1372 24 1372 70 1372 c 1,21,22
 127 1424 127 1424 249 1442 c 1,23,-1
 264 1442 l 2,0,1
828 1422 m 0,24,25
 938 1422 938 1422 938 1367 c 2,26,-1
 938 1352 l 2,27,28
 938 1326 938 1326 853 1108 c 2,29,-1
 639 554 l 1,30,31
 519 229 519 229 454 75 c 1,32,33
 424 20 424 20 324 20 c 2,34,-1
 304 20 l 2,35,36
 195 20 195 20 195 75 c 0,37,38
 201 180 201 180 230 180 c 1,39,-1
 225 190 l 1,40,41
 259 283 259 283 279 359 c 1,42,43
 325 438 325 438 449 783 c 1,44,45
 478 888 478 888 604 1188 c 1,46,47
 668 1417 668 1417 753 1417 c 1,48,49
 775 1422 775 1422 828 1422 c 0,24,25
180 1207 m 2,50,-1
 180 1133 l 2,51,52
 180 1088 180 1088 225 1058 c 1,53,-1
 249 1058 l 1,54,55
 294 1088 294 1088 294 1133 c 2,56,-1
 294 1193 l 2,57,58
 294 1245 294 1245 244 1272 c 1,59,-1
 220 1272 l 1,60,61
 180 1252 180 1252 180 1207 c 2,50,-1
903 554 m 2,62,-1
 933 554 l 2,63,64
 1070 554 1070 554 1128 399 c 1,65,-1
 1128 180 l 2,66,67
 1128 59 1128 59 963 5 c 1,68,69
 919 0 919 0 908 0 c 0,70,71
 813 0 813 0 728 85 c 1,72,73
 664 137 664 137 664 294 c 0,74,75
 664 493 664 493 808 539 c 0,76,77
 846 554 846 554 903 554 c 2,62,-1
853 299 m 2,78,-1
 853 279 l 2,79,80
 853 180 853 180 908 180 c 2,81,-1
 923 180 l 2,82,83
 947 180 947 180 963 259 c 1,84,-1
 963 309 l 2,85,86
 963 384 963 384 898 384 c 1,87,88
 853 369 853 369 853 299 c 2,78,-1
240 180 m 1,89,-1
 240 175 l 1,90,-1
 264 175 l 1,91,-1
 264 180 l 1,92,-1
 240 180 l 1,89,-1
EndSplineSet
Validated: 1
EndChar

StartChar: ampersand
Encoding: 38 38 9
Width: 2076
GlyphClass: 2
Flags: W
LayerCount: 2
Fore
SplineSet
1035 1661 m 0,0,1
 1404 1661 1404 1661 1698 1377 c 1,2,3
 1825 1236 1825 1236 1879 1119 c 0,4,5
 1982 899 1982 899 1982 680 c 2,6,-1
 1982 645 l 2,7,8
 1982 263 1982 263 1700 -49 c 1,9,10
 1406 -336 1406 -336 1035 -336 c 0,11,12
 649 -336 649 -336 351 -31 c 1,13,14
 85 272 85 272 85 665 c 0,15,16
 85 1064 85 1064 365 1370 c 1,17,18
 657 1661 657 1661 1035 1661 c 0,0,1
1008 1615 m 1,19,20
 1013 1536 1013 1536 1013 1505 c 0,21,22
 1015 1500 1015 1500 1015 1498 c 2,23,-1
 1006 1491 l 1,24,-1
 988 1491 l 2,25,26
 977 1491 977 1491 977 1606 c 1,27,28
 975 1606 975 1606 975 1613 c 1,29,30
 953 1610 953 1610 942 1610 c 2,31,-1
 935 1610 l 1,32,33
 938 1596 938 1596 940 1542 c 1,34,35
 937 1542 937 1542 927 1529 c 1,36,37
 942 1522 942 1522 942 1509 c 2,38,-1
 942 1487 l 2,39,40
 942 1456 942 1456 973 1456 c 2,41,-1
 977 1456 l 2,42,43
 1052 1456 1052 1456 1052 1476 c 0,44,45
 1052 1478 1052 1478 1054 1489 c 0,46,47
 1052 1512 1052 1512 1052 1524 c 1,48,49
 1055 1524 1055 1524 1065 1538 c 1,50,51
 1059 1538 1059 1538 1050 1551 c 1,52,-1
 1050 1555 l 2,53,54
 1050 1574 1050 1574 1048 1615 c 1,55,-1
 1008 1615 l 1,19,20
1121 1610 m 1,56,57
 1118 1605 1118 1605 1114 1577 c 1,58,59
 1154 1574 1154 1574 1154 1566 c 0,60,61
 1154 1536 1154 1536 1134 1527 c 1,62,63
 1137 1527 1137 1527 1145 1513 c 1,64,65
 1136 1453 1136 1453 1134 1449 c 1,66,67
 1148 1449 1148 1449 1173 1443 c 1,68,69
 1180 1516 1180 1516 1200 1516 c 1,70,-1
 1189 1531 l 1,71,72
 1191 1554 1191 1554 1195 1564 c 1,73,74
 1230 1557 1230 1557 1235 1557 c 1,75,-1
 1235 1560 l 2,76,77
 1235 1567 1235 1567 1240 1591 c 1,78,79
 1135 1610 1135 1610 1121 1610 c 1,56,57
761 1551 m 0,80,81
 761 1537 761 1537 772 1502 c 1,82,83
 769 1502 769 1502 764 1491 c 1,84,-1
 764 1487 l 1,85,86
 782 1487 782 1487 790 1441 c 1,87,88
 800 1425 800 1425 816 1425 c 0,89,90
 896 1440 896 1440 896 1458 c 2,91,-1
 896 1467 l 2,92,93
 896 1478 896 1478 889 1502 c 1,94,95
 854 1491 854 1491 849 1491 c 1,96,97
 854 1481 854 1481 854 1472 c 1,98,99
 843 1465 843 1465 825 1465 c 1,100,101
 819 1479 819 1479 819 1496 c 1,102,103
 825 1498 825 1498 825 1509 c 1,104,105
 807 1509 807 1509 803 1544 c 1,106,107
 810 1549 810 1549 830 1553 c 1,108,109
 836 1545 836 1545 836 1535 c 1,110,-1
 876 1546 l 1,111,112
 869 1591 869 1591 845 1591 c 2,113,-1
 836 1591 l 1,114,115
 761 1579 761 1579 761 1551 c 0,80,81
1292 1573 m 1,116,117
 1281 1547 1281 1547 1281 1544 c 0,118,119
 1319 1530 1319 1530 1319 1527 c 0,120,121
 1309 1491 1309 1491 1290 1491 c 1,122,123
 1297 1480 1297 1480 1297 1474 c 0,124,125
 1277 1423 1277 1423 1277 1414 c 1,126,127
 1306 1401 1306 1401 1312 1401 c 1,128,129
 1331 1467 1331 1467 1352 1467 c 1,130,131
 1345 1478 1345 1478 1345 1485 c 0,132,133
 1353 1513 1353 1513 1359 1513 c 0,134,135
 1388 1500 1388 1500 1394 1500 c 1,136,-1
 1407 1531 l 1,137,138
 1305 1573 1305 1573 1292 1575 c 1,139,-1
 1292 1573 l 1,116,117
574 1483 m 1,140,141
 601 1434 601 1434 605 1421 c 1,142,-1
 600 1405 l 1,143,144
 623 1405 623 1405 634 1370 c 0,145,146
 636 1370 636 1370 649 1346 c 1,147,148
 737 1386 737 1386 737 1408 c 0,149,150
 737 1420 737 1420 715 1456 c 1,151,152
 719 1464 719 1464 719 1474 c 1,153,154
 699 1474 699 1474 691 1502 c 1,155,156
 680 1524 680 1524 658 1524 c 0,157,158
 649 1524 649 1524 574 1483 c 1,140,141
1467 1498 m 1,159,160
 1433 1441 1433 1441 1427 1441 c 0,161,162
 1415 1438 1415 1438 1414 1438 c 1,163,164
 1414 1434 1414 1434 1418 1423 c 1,165,166
 1383 1369 1383 1369 1383 1366 c 0,167,168
 1468 1308 1468 1308 1475 1308 c 1,169,170
 1489 1329 1489 1329 1489 1337 c 1,171,172
 1439 1368 1439 1368 1433 1377 c 1,173,174
 1447 1394 1447 1394 1449 1394 c 2,175,-1
 1451 1394 l 1,176,-1
 1489 1370 l 2,177,178
 1493 1372 1493 1372 1508 1399 c 1,179,180
 1469 1420 1469 1420 1469 1427 c 0,181,182
 1477 1444 1477 1444 1484 1447 c 1,183,184
 1486 1443 1486 1443 1539 1410 c 0,185,186
 1544 1411 1544 1411 1559 1438 c 1,187,188
 1554 1440 1554 1440 1467 1498 c 1,159,160
653 1483 m 0,189,190
 656 1483 656 1483 693 1414 c 1,191,-1
 693 1412 l 1,192,193
 679 1397 679 1397 667 1397 c 1,194,195
 635 1451 635 1451 627 1472 c 1,196,197
 647 1483 647 1483 653 1483 c 0,189,190
429 1353 m 2,198,199
 429 1342 429 1342 462 1304 c 1,200,-1
 459 1289 l 1,201,-1
 475 1289 l 1,202,203
 508 1251 508 1251 521 1251 c 0,204,205
 544 1251 544 1251 589 1306 c 1,206,-1
 592 1317 l 2,207,208
 592 1327 592 1327 561 1364 c 1,209,-1
 561 1366 l 1,210,-1
 563 1379 l 1,211,-1
 548 1379 l 1,212,213
 512 1419 512 1419 497 1419 c 0,214,215
 477 1419 477 1419 431 1364 c 1,216,-1
 429 1353 l 2,198,199
1614 1390 m 1,217,218
 1614 1387 1614 1387 1566 1342 c 1,219,-1
 1555 1344 l 1,220,-1
 1550 1344 l 1,221,-1
 1550 1326 l 1,222,-1
 1506 1280 l 2,223,224
 1506 1277 1506 1277 1533 1253 c 1,225,-1
 1566 1284 l 1,226,-1
 1568 1284 l 1,227,228
 1555 1233 1555 1233 1555 1229 c 2,229,-1
 1586 1200 l 1,230,-1
 1601 1256 l 1,231,232
 1617 1251 1617 1251 1619 1251 c 2,233,-1
 1623 1251 l 2,234,235
 1642 1251 1642 1251 1680 1304 c 1,236,-1
 1680 1311 l 2,237,238
 1680 1332 1680 1332 1614 1390 c 1,217,218
490 1375 m 1,239,-1
 495 1375 l 1,240,241
 511 1360 511 1360 548 1315 c 1,242,-1
 548 1311 l 2,243,244
 548 1308 548 1308 530 1295 c 1,245,-1
 526 1295 l 1,246,247
 510 1308 510 1308 473 1355 c 1,248,-1
 473 1359 l 2,249,250
 473 1361 473 1361 490 1375 c 1,239,-1
609 991 m 1,251,-1
 611 976 l 1,252,-1
 611 861 l 1,253,254
 552 839 552 839 552 760 c 0,255,256
 552 675 552 675 581 608 c 0,257,258
 585 606 585 606 627 522 c 1,259,260
 660 480 660 480 660 473 c 2,261,-1
 660 469 l 1,262,-1
 658 453 l 1,263,264
 660 428 660 428 667 396 c 1,265,266
 662 384 662 384 662 361 c 0,267,268
 664 345 664 345 664 343 c 2,269,-1
 662 339 l 1,270,271
 669 262 669 262 680 262 c 1,272,273
 702 243 702 243 702 213 c 1,274,275
 710 192 710 192 741 167 c 1,276,277
 757 136 757 136 779 136 c 1,278,279
 814 86 814 86 814 81 c 0,280,281
 844 8 844 8 872 8 c 0,282,283
 883 8 883 8 889 -34 c 1,284,285
 905 -57 905 -57 944 -69 c 1,286,287
 961 -90 961 -90 1017 -104 c 0,288,289
 1030 -104 1030 -104 1032 -106 c 0,290,291
 1066 -100 1066 -100 1145 -98 c 1,292,293
 1169 -89 1169 -89 1191 -73 c 1,294,295
 1225 -73 1225 -73 1262 -38 c 1,296,297
 1330 -38 1330 -38 1339 44 c 1,298,299
 1356 67 1356 67 1378 156 c 1,300,301
 1416 197 1416 197 1416 257 c 1,302,303
 1429 277 1429 277 1429 301 c 2,304,-1
 1429 317 l 1,305,306
 1449 367 1449 367 1449 390 c 0,307,308
 1447 409 1447 409 1442 416 c 1,309,310
 1444 438 1444 438 1444 451 c 2,311,-1
 1444 460 l 2,312,313
 1444 467 1444 467 1442 471 c 0,314,315
 1444 480 1444 480 1444 486 c 0,316,317
 1444 527 1444 527 1418 581 c 1,318,319
 1420 605 1420 605 1422 605 c 1,320,-1
 1420 610 l 1,321,-1
 1420 632 l 2,322,323
 1420 652 1420 652 1409 685 c 1,324,325
 1427 699 1427 699 1427 722 c 2,326,-1
 1425 738 l 1,327,328
 1436 766 1436 766 1436 797 c 2,329,-1
 1436 810 l 1,330,331
 1444 835 1444 835 1444 848 c 2,332,-1
 1425 916 l 1,333,-1
 1427 951 l 2,334,335
 1427 979 1427 979 1392 1075 c 1,336,337
 1360 1149 1360 1149 1299 1205 c 1,338,339
 1253 1274 1253 1274 1191 1295 c 0,340,341
 1051 1342 1051 1342 955 1342 c 2,342,-1
 938 1342 l 2,343,344
 888 1342 888 1342 810 1315 c 0,345,346
 766 1299 766 1299 708 1251 c 1,347,348
 659 1189 659 1189 625 1110 c 1,349,350
 616 1076 616 1076 609 991 c 1,251,-1
1619 1337 m 1,351,352
 1638 1322 1638 1322 1638 1313 c 1,353,-1
 1614 1291 l 1,354,-1
 1610 1291 l 2,355,356
 1607 1291 1607 1291 1592 1308 c 1,357,-1
 1592 1311 l 2,358,359
 1592 1314 1592 1314 1619 1337 c 1,351,352
916 1319 m 1,360,361
 1061 1319 1061 1319 1173 1278 c 1,362,363
 1259 1231 1259 1231 1273 1207 c 1,364,365
 1299 1185 1299 1185 1332 1108 c 1,366,367
 1364 1072 1364 1072 1392 956 c 1,368,-1
 1392 954 l 2,369,370
 1392 947 1392 947 1389 912 c 1,371,372
 1398 886 1398 886 1403 857 c 0,373,374
 1406 857 1406 857 1409 850 c 2,375,-1
 1409 846 l 2,376,377
 1409 830 1409 830 1398 828 c 1,378,-1
 1403 806 l 1,379,380
 1403 770 1403 770 1383 731 c 1,381,382
 1392 730 1392 730 1392 724 c 2,383,-1
 1392 718 l 2,384,385
 1392 715 1392 715 1385 711 c 1,386,-1
 1372 711 l 1,387,388
 1372 704 1372 704 1365 691 c 1,389,390
 1375 691 1375 691 1387 625 c 1,391,-1
 1387 616 l 1,392,393
 1383 583 1383 583 1383 568 c 1,394,395
 1397 552 1397 552 1407 506 c 0,396,397
 1407 504 1407 504 1409 489 c 2,398,-1
 1407 473 l 1,399,400
 1411 451 1411 451 1411 447 c 256,401,402
 1411 443 1411 443 1403 416 c 1,403,404
 1414 397 1414 397 1414 387 c 0,405,406
 1414 376 1414 376 1394 323 c 1,407,408
 1394 286 1394 286 1381 255 c 1,409,410
 1381 219 1381 219 1359 187 c 1,411,412
 1344 175 1344 175 1328 105 c 0,413,414
 1328 100 1328 100 1301 44 c 1,415,-1
 1301 41 l 2,416,417
 1301 40 1301 40 1303 33 c 1,418,419
 1291 -3 1291 -3 1264 -3 c 0,420,421
 1245 -3 1245 -3 1206 -36 c 1,422,423
 1177 -36 1177 -36 1145 -60 c 1,424,-1
 1035 -71 l 1,425,-1
 1032 -71 l 2,426,427
 1011 -71 1011 -71 966 -45 c 1,428,429
 966 -35 966 -35 927 -25 c 1,430,431
 918 -15 918 -15 918 6 c 0,432,433
 918 9 918 9 920 28 c 1,434,435
 863 42 863 42 863 63 c 1,436,437
 847 83 847 83 847 96 c 0,438,439
 847 100 847 100 852 110 c 1,440,441
 833 110 833 110 801 169 c 1,442,443
 776 169 776 169 766 191 c 0,444,445
 766 197 766 197 741 215 c 1,446,-1
 724 268 l 1,447,448
 700 279 700 279 700 326 c 0,449,450
 697 334 697 334 697 343 c 2,451,-1
 697 345 l 2,452,453
 697 348 697 348 700 348 c 1,454,-1
 697 352 l 1,455,456
 700 401 700 401 700 405 c 0,457,458
 693 449 693 449 693 460 c 2,459,-1
 695 471 l 1,460,-1
 689 504 l 1,461,462
 666 512 666 512 603 647 c 1,463,464
 587 711 587 711 587 755 c 2,465,-1
 587 764 l 2,466,467
 587 819 587 819 634 832 c 1,468,-1
 649 832 l 1,469,-1
 649 835 l 2,470,471
 649 865 649 865 645 901 c 1,472,473
 647 922 647 922 647 940 c 0,474,475
 647 961 647 961 645 991 c 0,476,477
 645 1146 645 1146 739 1238 c 0,478,479
 789 1290 789 1290 854 1311 c 0,480,481
 860 1311 860 1311 916 1319 c 1,360,361
667 1015 m 0,482,483
 667 1013 667 1013 669 1009 c 0,484,485
 664 997 664 997 664 985 c 0,486,487
 664 969 664 969 667 936 c 1,488,489
 664 906 664 906 664 899 c 0,490,491
 669 843 669 843 669 828 c 1,492,493
 722 808 722 808 722 784 c 1,494,-1
 724 784 l 1,495,496
 724 793 724 793 735 799 c 1,497,-1
 739 799 l 1,498,-1
 753 788 l 1,499,500
 783 793 783 793 792 793 c 1,501,-1
 799 784 l 1,502,-1
 799 780 l 1,503,504
 770 657 770 657 770 603 c 1,505,506
 781 580 781 580 788 550 c 1,507,508
 814 537 814 537 814 517 c 1,509,510
 843 513 843 513 843 482 c 1,511,-1
 869 484 l 1,512,-1
 900 482 l 1,513,514
 916 491 916 491 922 491 c 0,515,516
 925 491 925 491 929 484 c 1,517,518
 924 468 924 468 924 464 c 0,519,520
 929 450 929 450 929 445 c 0,521,522
 927 440 927 440 927 438 c 0,523,524
 953 421 953 421 953 405 c 2,525,-1
 953 396 l 1,526,527
 973 396 973 396 982 363 c 1,528,529
 975 336 975 336 975 328 c 0,530,531
 977 316 977 316 977 310 c 1,532,-1
 979 310 l 1,533,534
 1000 358 1000 358 1041 414 c 0,535,536
 1068 456 1068 456 1085 497 c 1,537,-1
 1092 497 l 2,538,539
 1098 497 1098 497 1098 489 c 0,540,541
 1095 464 1095 464 1065 420 c 1,542,-1
 1068 420 l 1,543,544
 1119 432 1119 432 1121 445 c 0,545,546
 1125 445 1125 445 1129 447 c 0,547,548
 1148 445 1148 445 1160 445 c 0,549,550
 1164 445 1164 445 1187 453 c 1,551,-1
 1187 456 l 1,552,-1
 1180 456 l 2,553,554
 1171 456 1171 456 1151 451 c 1,555,556
 1107 461 1107 461 1107 486 c 2,557,-1
 1107 493 l 2,558,559
 1109 506 1109 506 1114 506 c 2,560,-1
 1121 506 l 2,561,562
 1125 506 1125 506 1127 482 c 1,563,564
 1139 471 1139 471 1147 471 c 0,565,566
 1175 475 1175 475 1182 475 c 0,567,568
 1231 451 1231 451 1253 451 c 0,569,570
 1290 451 1290 451 1290 495 c 0,571,572
 1290 557 1290 557 1264 603 c 1,573,574
 1251 661 1251 661 1251 700 c 2,575,-1
 1251 705 l 2,576,577
 1251 733 1251 733 1299 780 c 1,578,579
 1316 780 1316 780 1365 846 c 0,580,581
 1368 846 1368 846 1383 854 c 1,582,583
 1378 888 1378 888 1370 912 c 1,584,585
 1372 934 1372 934 1372 947 c 2,586,-1
 1372 951 l 1,587,588
 1355 1033 1355 1033 1334 1070 c 2,589,-1
 1297 1137 l 1,590,591
 1282 1150 1282 1150 1259 1189 c 1,592,593
 1205 1245 1205 1245 1147 1264 c 0,594,595
 1027 1300 1027 1300 982 1300 c 2,596,-1
 960 1300 l 1,597,-1
 946 1297 l 2,598,599
 943 1300 943 1300 938 1300 c 0,600,601
 811 1282 811 1282 792 1251 c 1,602,603
 754 1220 754 1220 715 1172 c 0,604,605
 667 1115 667 1115 667 1015 c 0,482,483
307 1207 m 2,606,607
 307 1198 307 1198 349 1165 c 1,608,609
 351 1156 351 1156 351 1150 c 1,610,-1
 371 1152 l 1,611,612
 398 1126 398 1126 420 1126 c 1,613,614
 454 1148 454 1148 475 1192 c 1,615,-1
 475 1200 l 2,616,617
 475 1215 475 1215 435 1242 c 1,618,-1
 435 1258 l 1,619,-1
 431 1258 l 1,620,-1
 415 1256 l 1,621,622
 384 1284 384 1284 367 1284 c 0,623,624
 343 1284 343 1284 307 1216 c 1,625,-1
 307 1207 l 2,606,607
880 1260 m 1,626,627
 909 1251 909 1251 909 1234 c 2,628,-1
 909 1227 l 1,629,630
 905 1218 905 1218 858 1194 c 1,631,-1
 849 1194 l 1,632,633
 827 1203 827 1203 827 1220 c 2,634,-1
 827 1223 l 2,635,636
 827 1247 827 1247 880 1260 c 1,626,627
845 1216 m 1,637,-1
 849 1214 l 1,638,-1
 856 1214 l 1,639,-1
 889 1234 l 1,640,641
 887 1240 887 1240 876 1240 c 0,642,643
 845 1232 845 1232 845 1216 c 1,637,-1
365 1240 m 2,644,-1
 371 1240 l 1,645,646
 429 1199 429 1199 433 1189 c 1,647,648
 424 1172 424 1172 418 1170 c 2,649,-1
 413 1170 l 1,650,651
 349 1213 349 1213 349 1220 c 0,652,653
 359 1237 359 1237 365 1240 c 2,644,-1
781 1189 m 2,654,-1
 788 1189 l 2,655,656
 808 1187 808 1187 808 1170 c 2,657,-1
 808 1161 l 2,658,659
 808 1151 808 1151 779 1117 c 1,660,661
 766 1035 766 1035 724 1035 c 1,662,663
 706 1042 706 1042 706 1064 c 2,664,-1
 706 1084 l 2,665,666
 706 1138 706 1138 768 1185 c 0,667,668
 775 1189 775 1189 781 1189 c 2,654,-1
1614 1167 m 2,669,-1
 1614 1165 l 2,670,671
 1614 1152 1614 1152 1630 1141 c 1,672,-1
 1638 1141 l 1,673,674
 1652 1149 1652 1149 1652 1152 c 2,675,-1
 1652 1156 l 1,676,677
 1646 1181 1646 1181 1632 1181 c 1,678,679
 1615 1172 1615 1172 1614 1167 c 2,669,-1
724 1081 m 2,680,-1
 724 1064 l 1,681,-1
 726 1053 l 1,682,-1
 730 1053 l 2,683,684
 748 1053 748 1053 764 1128 c 1,685,686
 785 1151 785 1151 792 1163 c 1,687,-1
 792 1167 l 2,688,689
 792 1171 792 1171 786 1174 c 1,690,691
 756 1162 756 1162 733 1119 c 0,692,693
 724 1098 724 1098 724 1081 c 2,680,-1
1740 1132 m 0,694,695
 1733 1134 1733 1134 1724 1134 c 1,696,697
 1724 1116 1724 1116 1660 1090 c 1,698,699
 1701 1016 1701 1016 1711 991 c 1,700,701
 1736 1002 1736 1002 1742 1009 c 1,702,-1
 1711 1070 l 1,703,-1
 1733 1081 l 1,704,705
 1755 1046 1755 1046 1755 1040 c 1,706,707
 1761 1040 1761 1040 1786 1053 c 1,708,709
 1786 1061 1786 1061 1766 1095 c 1,710,-1
 1766 1097 l 2,711,712
 1766 1102 1766 1102 1788 1108 c 1,713,-1
 1790 1108 l 1,714,715
 1801 1081 1801 1081 1821 1048 c 1,716,717
 1846 1062 1846 1062 1850 1062 c 1,718,719
 1850 1072 1850 1072 1799 1161 c 1,720,721
 1746 1132 1746 1132 1740 1132 c 0,694,695
246 1132 m 1,722,723
 246 1126 246 1126 232 1097 c 1,724,725
 328 1057 328 1057 336 1051 c 1,726,-1
 336 1048 l 1,727,728
 329 1026 329 1026 321 1026 c 0,729,730
 303 1026 303 1026 299 1048 c 1,731,732
 288 1042 288 1042 281 1042 c 2,733,-1
 219 1068 l 1,734,-1
 206 1031 l 1,735,-1
 206 1029 l 1,736,737
 272 1008 272 1008 272 989 c 2,738,-1
 272 987 l 1,739,740
 283 993 283 993 290 993 c 0,741,742
 306 991 306 991 307 985 c 0,743,744
 302 960 302 960 296 960 c 2,745,-1
 294 960 l 1,746,-1
 191 1000 l 1,747,-1
 191 998 l 1,748,749
 177 967 177 967 177 962 c 1,750,751
 243 940 243 940 243 929 c 2,752,-1
 243 923 l 1,753,-1
 246 923 l 2,754,755
 248 923 248 923 263 927 c 1,756,-1
 292 916 l 1,757,758
 349 936 349 936 349 976 c 0,759,760
 349 981 349 981 343 993 c 1,761,762
 366 1002 366 1002 373 1024 c 0,763,764
 373 1030 373 1030 378 1037 c 1,765,766
 365 1090 365 1090 351 1090 c 0,767,768
 327 1097 327 1097 327 1115 c 1,769,770
 316 1108 316 1108 312 1108 c 2,771,-1
 248 1132 l 1,772,-1
 246 1132 l 1,722,723
1828 996 m 1,773,774
 1828 985 1828 985 1797 971 c 1,775,-1
 1793 956 l 1,776,-1
 1793 954 l 2,777,778
 1793 940 1793 940 1804 905 c 1,779,780
 1795 899 1795 899 1784 899 c 0,781,782
 1777 899 1777 899 1773 925 c 1,783,784
 1788 930 1788 930 1788 934 c 0,785,786
 1777 966 1777 966 1777 969 c 1,787,788
 1735 961 1735 961 1735 940 c 2,789,-1
 1735 927 l 1,790,791
 1746 854 1746 854 1779 854 c 1,792,-1
 1790 857 l 1,793,794
 1790 853 1790 853 1804 848 c 1,795,796
 1804 859 1804 859 1837 874 c 1,797,-1
 1841 890 l 1,798,-1
 1841 892 l 2,799,800
 1841 907 1841 907 1830 940 c 1,801,802
 1843 949 1843 949 1852 949 c 1,803,804
 1861 936 1861 936 1861 923 c 0,805,806
 1860 916 1860 916 1846 916 c 1,807,-1
 1857 877 l 1,808,809
 1901 885 1901 885 1901 910 c 0,810,811
 1888 991 1888 991 1859 991 c 2,812,-1
 1854 991 l 2,813,814
 1849 991 1849 991 1846 989 c 0,815,816
 1837 996 1837 996 1828 996 c 1,773,774
1162 991 m 0,817,818
 1181 991 1181 991 1240 971 c 1,819,-1
 1244 971 l 2,820,821
 1251 971 1251 971 1288 985 c 0,822,823
 1291 985 1291 985 1295 978 c 1,824,-1
 1295 971 l 2,825,826
 1295 961 1295 961 1235 951 c 0,827,828
 1226 951 1226 951 1180 969 c 1,829,-1
 1160 971 l 1,830,-1
 1127 965 l 1,831,-1
 1125 965 l 2,832,833
 1121 965 1121 965 1121 969 c 2,834,-1
 1121 976 l 2,835,836
 1121 987 1121 987 1162 991 c 0,817,818
973 978 m 2,837,-1
 979 978 l 2,838,839
 993 978 993 978 1050 956 c 1,840,841
 1076 953 1076 953 1076 947 c 2,842,-1
 1076 940 l 2,843,844
 1074 934 1074 934 1063 934 c 0,845,846
 1047 934 1047 934 988 958 c 0,847,848
 979 958 979 958 979 960 c 1,849,850
 959 960 959 960 929 936 c 1,851,-1
 922 936 l 2,852,853
 919 936 919 936 916 943 c 2,854,-1
 916 949 l 1,855,856
 945 978 945 978 973 978 c 2,837,-1
979 921 m 2,857,-1
 986 921 l 1,858,859
 1043 916 1043 916 1043 907 c 0,860,861
 1039 897 1039 897 1035 896 c 2,862,-1
 1021 896 l 2,863,864
 1013 896 1013 896 982 903 c 1,865,866
 946 903 946 903 916 859 c 1,867,-1
 913 859 l 2,868,869
 905 862 905 862 905 866 c 2,870,-1
 905 868 l 1,871,872
 925 921 925 921 979 921 c 2,857,-1
1220 896 m 2,873,-1
 1226 896 l 2,874,875
 1232 896 1232 896 1303 892 c 1,876,-1
 1303 890 l 1,877,-1
 1325 894 l 1,878,879
 1334 891 1334 891 1334 888 c 2,880,-1
 1334 881 l 2,881,882
 1334 874 1334 874 1312 870 c 1,883,884
 1251 877 1251 877 1233 877 c 2,885,-1
 1231 877 l 2,886,887
 1220 877 1220 877 1198 874 c 1,888,-1
 1195 879 l 1,889,-1
 1195 885 l 2,890,891
 1195 893 1195 893 1220 896 c 2,873,-1
964 870 m 2,892,-1
 973 870 l 2,893,894
 1012 870 1012 870 1103 839 c 1,895,896
 1156 807 1156 807 1156 791 c 2,897,-1
 1156 782 l 1,898,899
 1148 769 1148 769 1136 769 c 2,900,-1
 1132 769 l 2,901,902
 1120 769 1120 769 1052 799 c 1,903,904
 1033 799 1033 799 1008 802 c 1,905,906
 1008 798 1008 798 1002 795 c 2,907,-1
 979 795 l 2,908,909
 964 795 964 795 887 773 c 1,910,-1
 883 773 l 1,911,-1
 876 782 l 1,912,913
 877 798 877 798 929 854 c 0,914,915
 948 870 948 870 964 870 c 2,892,-1
618 804 m 1,916,-1
 618 802 l 1,917,918
 692 802 692 802 719 689 c 1,919,-1
 722 689 l 1,920,-1
 722 696 l 2,921,922
 722 701 722 701 719 705 c 1,923,924
 722 707 722 707 722 751 c 1,925,926
 711 751 711 751 700 793 c 1,927,928
 674 813 674 813 649 813 c 2,929,-1
 640 813 l 2,930,931
 635 813 635 813 618 804 c 1,916,-1
1378 810 m 1,932,933
 1372 795 1372 795 1297 755 c 1,934,-1
 1286 738 l 1,935,-1
 1288 738 l 1,936,937
 1303 744 1303 744 1319 744 c 2,938,-1
 1325 744 l 2,939,940
 1339 744 1339 744 1363 735 c 1,941,942
 1383 765 1383 765 1383 808 c 1,943,-1
 1378 810 l 1,932,933
607 780 m 1,944,-1
 607 749 l 2,945,946
 607 658 607 658 653 590 c 1,947,948
 670 545 670 545 697 524 c 1,949,950
 706 539 706 539 706 546 c 2,951,-1
 706 557 l 1,952,-1
 695 619 l 1,953,954
 703 671 703 671 708 683 c 1,955,956
 700 683 700 683 689 731 c 1,957,958
 655 784 655 784 627 784 c 0,959,960
 624 784 624 784 607 780 c 1,944,-1
202 782 m 1,961,-1
 202 740 l 1,962,-1
 195 731 l 1,963,-1
 202 722 l 1,964,-1
 202 683 l 1,965,-1
 224 683 l 1,966,-1
 224 724 l 1,967,-1
 228 724 l 1,968,-1
 246 685 l 2,969,970
 250 685 250 685 265 722 c 1,971,-1
 270 722 l 1,972,-1
 270 683 l 1,973,-1
 292 683 l 1,974,-1
 292 722 l 1,975,-1
 299 731 l 1,976,-1
 292 740 l 1,977,-1
 292 782 l 1,978,-1
 272 782 l 2,979,980
 268 782 268 782 250 740 c 1,981,-1
 243 740 l 1,982,983
 243 745 243 745 226 782 c 1,984,-1
 202 782 l 1,961,-1
323 782 m 1,985,-1
 323 742 l 2,986,987
 323 741 323 741 314 731 c 1,988,989
 323 728 323 728 323 716 c 2,990,-1
 323 683 l 1,991,-1
 343 683 l 1,992,-1
 343 724 l 1,993,-1
 345 724 l 2,994,995
 350 724 350 724 365 685 c 1,996,-1
 389 724 l 1,997,-1
 391 724 l 1,998,-1
 391 683 l 1,999,-1
 411 683 l 1,1000,-1
 411 722 l 1,1001,-1
 420 733 l 1,1002,1003
 411 733 411 733 411 740 c 2,1004,-1
 411 782 l 1,1005,-1
 391 782 l 2,1006,1007
 387 782 387 782 369 740 c 1,1008,-1
 367 740 l 2,1009,1010
 362 740 362 740 345 782 c 1,1011,-1
 323 782 l 1,985,-1
435 782 m 1,1012,-1
 435 780 l 2,1013,1014
 435 777 435 777 459 733 c 1,1015,1016
 435 686 435 686 435 683 c 1,1017,-1
 459 683 l 2,1018,1019
 464 683 464 683 470 702 c 1,1020,-1
 473 702 l 2,1021,1022
 478 702 478 702 484 683 c 1,1023,-1
 510 683 l 1,1024,-1
 510 685 l 1,1025,1026
 488 727 488 727 488 733 c 2,1027,-1
 510 782 l 1,1028,-1
 484 782 l 1,1029,1030
 478 762 478 762 473 762 c 2,1031,-1
 470 762 l 1,1032,1033
 464 782 464 782 459 782 c 2,1034,-1
 435 782 l 1,1012,-1
1475 782 m 1,1035,-1
 1475 742 l 1,1036,1037
 1467 732 1467 732 1467 731 c 0,1038,1039
 1475 728 1475 728 1475 716 c 2,1040,-1
 1475 683 l 1,1041,-1
 1495 683 l 1,1042,-1
 1495 724 l 1,1043,-1
 1497 724 l 2,1044,1045
 1503 724 1503 724 1517 685 c 1,1046,-1
 1541 724 l 1,1047,-1
 1544 724 l 1,1048,-1
 1544 683 l 1,1049,-1
 1563 683 l 1,1050,-1
 1563 722 l 1,1051,-1
 1572 733 l 1,1052,1053
 1563 733 1563 733 1563 740 c 2,1054,-1
 1563 782 l 1,1055,-1
 1544 782 l 2,1056,1057
 1539 782 1539 782 1522 740 c 1,1058,-1
 1519 740 l 2,1059,1060
 1515 740 1515 740 1497 782 c 1,1061,-1
 1475 782 l 1,1035,-1
1594 782 m 1,1062,-1
 1594 742 l 1,1063,-1
 1586 731 l 1,1064,1065
 1594 728 1594 728 1594 716 c 2,1066,-1
 1594 683 l 1,1067,-1
 1614 683 l 1,1068,-1
 1614 724 l 1,1069,-1
 1616 724 l 2,1070,1071
 1622 724 1622 724 1636 685 c 1,1072,-1
 1660 724 l 1,1073,-1
 1663 724 l 1,1074,-1
 1663 683 l 1,1075,-1
 1682 683 l 1,1076,-1
 1682 722 l 1,1077,-1
 1691 733 l 1,1078,1079
 1682 733 1682 733 1682 740 c 2,1080,-1
 1682 782 l 1,1081,-1
 1663 782 l 2,1082,1083
 1658 782 1658 782 1641 740 c 1,1084,-1
 1638 740 l 2,1085,1086
 1634 740 1634 740 1616 782 c 1,1087,-1
 1594 782 l 1,1062,-1
1707 782 m 1,1088,1089
 1731 735 1731 735 1731 731 c 2,1090,-1
 1707 683 l 1,1091,-1
 1731 683 l 2,1092,1093
 1736 683 1736 683 1742 702 c 1,1094,-1
 1744 702 l 2,1095,1096
 1749 702 1749 702 1755 683 c 1,1097,-1
 1784 683 l 1,1098,1099
 1760 729 1760 729 1760 733 c 2,1100,-1
 1784 782 l 1,1101,-1
 1755 782 l 1,1102,1103
 1749 762 1749 762 1744 762 c 2,1104,-1
 1742 762 l 1,1105,1106
 1736 782 1736 782 1731 782 c 2,1107,-1
 1707 782 l 1,1088,1089
1801 782 m 1,1108,1109
 1826 735 1826 735 1826 731 c 2,1110,-1
 1801 683 l 1,1111,-1
 1826 683 l 2,1112,1113
 1831 683 1831 683 1837 702 c 1,1114,-1
 1839 702 l 2,1115,1116
 1844 702 1844 702 1850 683 c 1,1117,-1
 1879 683 l 1,1118,1119
 1854 729 1854 729 1854 733 c 2,1120,-1
 1879 782 l 1,1121,-1
 1850 782 l 1,1122,1123
 1844 762 1844 762 1839 762 c 2,1124,-1
 1837 762 l 1,1125,1126
 1831 782 1831 782 1826 782 c 2,1127,-1
 1801 782 l 1,1108,1109
1021 777 m 1,1128,1129
 1082 770 1082 770 1087 755 c 1,1130,-1
 1087 749 l 2,1131,1132
 1087 746 1087 746 1081 742 c 1,1133,1134
 1046 758 1046 758 1024 758 c 2,1135,-1
 1021 758 l 1,1136,1137
 962 747 962 747 962 733 c 1,1138,1139
 957 727 957 727 955 727 c 2,1140,-1
 949 727 l 2,1141,1142
 942 729 942 729 942 740 c 0,1143,1144
 942 763 942 763 1021 777 c 1,1128,1129
649 753 m 0,1145,1146
 658 750 658 750 662 742 c 1,1147,-1
 653 669 l 1,1148,1149
 658 630 658 630 669 630 c 1,1150,-1
 678 634 l 1,1151,1152
 686 631 686 631 686 628 c 2,1153,-1
 686 621 l 2,1154,1155
 686 618 686 618 675 610 c 1,1156,-1
 667 610 l 2,1157,1158
 641 610 641 610 634 669 c 1,1159,1160
 640 710 640 710 640 727 c 2,1161,-1
 640 735 l 1,1162,-1
 638 747 l 1,1163,1164
 645 753 645 753 649 753 c 0,1145,1146
1030 749 m 256,1165,1166
 1076 749 1076 749 1112 709 c 1,1167,-1
 1112 702 l 1,1168,1169
 1082 665 1082 665 1028 665 c 1,1170,1171
 951 678 951 678 951 711 c 2,1172,-1
 951 716 l 1,1173,1174
 984 749 984 749 1030 749 c 256,1165,1166
1125 740 m 1,1175,-1
 1132 740 l 1,1176,1177
 1156 721 1156 721 1156 705 c 0,1178,1179
 1153 683 1153 683 1143 683 c 0,1180,1181
 1134 686 1134 686 1134 689 c 2,1182,-1
 1134 709 l 1,1183,-1
 1118 727 l 1,1184,-1
 1118 733 l 2,1185,1186
 1118 736 1118 736 1125 740 c 1,1175,-1
1035 729 m 1,1187,1188
 1039 722 1039 722 1039 716 c 2,1189,-1
 1039 705 l 2,1190,1191
 1039 699 1039 699 1035 685 c 1,1192,-1
 1037 685 l 1,1193,1194
 1085 690 1085 690 1085 709 c 1,1195,1196
 1058 729 1058 729 1035 729 c 1,1187,1188
1321 727 m 1,1197,1198
 1325 718 1325 718 1325 713 c 0,1199,1200
 1323 700 1323 700 1317 689 c 1,1201,-1
 1319 689 l 2,1202,1203
 1354 689 1354 689 1354 718 c 1,1204,1205
 1337 727 1337 727 1321 727 c 1,1197,1198
973 711 m 1,1206,-1
 973 707 l 1,1207,-1
 975 707 l 1,1208,-1
 975 711 l 1,1209,-1
 973 711 l 1,1206,-1
1270 705 m 1,1210,-1
 1270 696 l 2,1211,1212
 1271 691 1271 691 1275 691 c 1,1213,-1
 1275 694 l 1,1214,-1
 1273 705 l 1,1215,-1
 1270 705 l 1,1210,-1
675 696 m 0,1216,1217
 681 696 681 696 689 691 c 1,1218,1219
 684 676 684 676 684 667 c 2,1220,-1
 686 647 l 1,1221,-1
 678 643 l 1,1222,1223
 666 643 666 643 662 669 c 1,1224,1225
 667 696 667 696 675 696 c 0,1216,1217
1118 687 m 2,1226,-1
 1125 687 l 2,1227,1228
 1128 687 1128 687 1132 680 c 1,1229,-1
 1132 678 l 2,1230,1231
 1132 660 1132 660 1092 616 c 1,1232,-1
 1090 616 l 2,1233,1234
 1084 616 1084 616 1079 628 c 1,1235,-1
 1112 674 l 1,1236,1237
 1114 687 1114 687 1118 687 c 2,1226,-1
1297 669 m 2,1238,-1
 1281 669 l 1,1239,-1
 1270 672 l 1,1240,1241
 1272 628 1272 628 1306 548 c 1,1242,1243
 1308 519 1308 519 1308 502 c 2,1244,-1
 1308 493 l 2,1245,1246
 1308 474 1308 474 1299 460 c 1,1247,1248
 1309 460 1309 460 1341 431 c 1,1249,-1
 1343 431 l 1,1250,1251
 1343 435 1343 435 1354 506 c 2,1252,-1
 1367 632 l 2,1253,1254
 1366 652 1366 652 1361 652 c 1,1255,1256
 1361 617 1361 617 1323 590 c 1,1257,-1
 1319 590 l 2,1258,1259
 1316 590 1316 590 1312 597 c 1,1260,-1
 1312 601 l 1,1261,1262
 1345 632 1345 632 1345 669 c 2,1263,-1
 1345 676 l 1,1264,1265
 1318 669 1318 669 1297 669 c 2,1238,-1
1187 645 m 2,1266,-1
 1195 645 l 2,1267,1268
 1201 645 1201 645 1202 628 c 2,1269,-1
 1200 616 l 1,1270,-1
 1206 586 l 1,1271,-1
 1206 581 l 2,1272,1273
 1204 575 1204 575 1193 575 c 0,1274,1275
 1183 575 1183 575 1180 634 c 2,1276,-1
 1180 639 l 2,1277,1278
 1180 642 1180 642 1187 645 c 2,1266,-1
933 643 m 2,1279,-1
 942 643 l 1,1280,1281
 971 610 971 610 1008 610 c 2,1282,-1
 1019 610 l 2,1283,1284
 1030 610 1030 610 1068 621 c 1,1285,-1
 1070 616 l 1,1286,-1
 1070 608 l 1,1287,1288
 1056 590 1056 590 1017 590 c 1,1289,1290
 929 602 929 602 929 636 c 2,1291,-1
 929 639 l 2,1292,1293
 930 643 930 643 933 643 c 2,1279,-1
1806 628 m 1,1294,1295
 1804 602 1804 602 1804 590 c 1,1296,1297
 1809 590 1809 590 1832 570 c 0,1298,1299
 1832 567 1832 567 1799 553 c 1,1300,-1
 1795 517 l 1,1301,1302
 1863 550 1863 550 1868 550 c 2,1303,-1
 1876 550 l 1,1304,-1
 1887 539 l 2,1305,1306
 1891 539 1891 539 1896 548 c 1,1307,-1
 1912 546 l 1,1308,-1
 1920 546 l 1,1309,-1
 1920 559 l 1,1310,-1
 1923 575 l 1,1311,1312
 1900 575 1900 575 1892 588 c 1,1313,1314
 1881 582 1881 582 1881 579 c 1,1315,1316
 1865 579 1865 579 1826 614 c 1,1317,-1
 1806 628 l 1,1294,1295
226 612 m 1,1318,1319
 226 603 226 603 197 594 c 1,1320,-1
 193 579 l 1,1321,1322
 195 547 195 547 195 544 c 0,1323,1324
 188 539 188 539 182 539 c 2,1325,-1
 180 539 l 2,1326,1327
 174 539 174 539 173 561 c 1,1328,1329
 178 566 178 566 186 566 c 1,1330,1331
 185 597 185 597 182 597 c 0,1332,1333
 146 597 146 597 146 575 c 0,1334,1335
 146 509 146 509 171 509 c 0,1336,1337
 177 509 177 509 188 500 c 1,1338,1339
 188 509 188 509 217 515 c 1,1340,-1
 224 535 l 2,1341,1342
 224 540 224 540 219 566 c 1,1343,1344
 229 572 229 572 237 572 c 1,1345,1346
 241 567 241 567 243 550 c 1,1347,1348
 230 545 230 545 230 544 c 0,1349,1350
 230 542 230 542 232 515 c 1,1351,-1
 235 515 l 2,1352,1353
 270 515 270 515 270 537 c 0,1354,1355
 270 603 270 603 243 603 c 0,1356,1357
 237 603 237 603 228 612 c 1,1358,-1
 226 612 l 1,1318,1319
1132 594 m 2,1359,-1
 1138 594 l 2,1360,1361
 1141 594 1141 594 1145 588 c 1,1362,1363
 1129 531 1129 531 1118 531 c 2,1364,-1
 1114 531 l 2,1365,1366
 1111 531 1111 531 1107 539 c 1,1367,1368
 1126 592 1126 592 1132 594 c 2,1359,-1
1160 544 m 0,1369,1370
 1189 535 1189 535 1189 526 c 2,1371,-1
 1189 520 l 2,1372,1373
 1189 515 1189 515 1184 515 c 2,1374,-1
 1180 515 l 1,1375,1376
 1151 524 1151 524 1151 531 c 2,1377,-1
 1151 537 l 2,1378,1379
 1151 543 1151 543 1160 544 c 0,1369,1370
1775 425 m 1,1380,1381
 1830 413 1830 413 1830 405 c 2,1382,-1
 1830 401 l 1,1383,-1
 1841 407 l 1,1384,1385
 1877 401 1877 401 1892 401 c 1,1386,-1
 1898 427 l 1,1387,1388
 1871 434 1871 434 1865 434 c 1,1389,-1
 1865 436 l 2,1390,1391
 1868 439 1868 439 1905 453 c 1,1392,-1
 1912 484 l 1,1393,1394
 1875 473 1875 473 1868 473 c 1,1395,1396
 1868 497 1868 497 1819 504 c 1,1397,-1
 1808 504 l 2,1398,1399
 1786 504 1786 504 1775 425 c 1,1380,1381
224 480 m 1,1400,1401
 224 483 224 483 215 486 c 1,1402,1403
 215 472 215 472 164 462 c 0,1404,1405
 162 462 162 462 162 460 c 0,1406,1407
 166 434 166 434 171 434 c 0,1408,1409
 198 440 198 440 208 440 c 1,1410,1411
 216 392 216 392 230 392 c 2,1412,-1
 232 392 l 1,1413,1414
 294 396 294 396 294 420 c 2,1415,-1
 294 425 l 1,1416,-1
 279 491 l 1,1417,1418
 234 480 234 480 224 480 c 1,1400,1401
1815 471 m 0,1419,1420
 1841 471 1841 471 1841 460 c 0,1421,1422
 1840 442 1840 442 1835 442 c 0,1423,1424
 1808 445 1808 445 1808 453 c 0,1425,1426
 1809 471 1809 471 1815 471 c 0,1419,1420
259 453 m 1,1427,1428
 265 441 265 441 265 431 c 1,1429,1430
 258 425 258 425 237 425 c 1,1431,1432
 230 438 230 438 230 447 c 1,1433,1434
 249 453 249 453 259 453 c 1,1427,1428
1742 330 m 1,1435,1436
 1742 311 1742 311 1784 299 c 1,1437,1438
 1788 286 1788 286 1790 286 c 0,1439,1440
 1801 293 1801 293 1804 293 c 0,1441,1442
 1812 287 1812 287 1837 282 c 1,1443,1444
 1859 282 1859 282 1872 343 c 1,1445,-1
 1872 348 l 2,1446,1447
 1872 364 1872 364 1832 376 c 1,1448,1449
 1831 387 1831 387 1826 387 c 2,1450,-1
 1819 383 l 1,1451,-1
 1815 383 l 1,1452,-1
 1777 394 l 1,1453,1454
 1758 394 1758 394 1742 330 c 1,1435,1436
257 374 m 0,1455,1456
 251 374 251 374 243 378 c 1,1457,1458
 243 368 243 368 224 359 c 1,1459,1460
 193 352 193 352 193 343 c 0,1461,1462
 202 319 202 319 204 319 c 0,1463,1464
 239 334 239 334 246 334 c 0,1465,1466
 251 334 251 334 257 308 c 1,1467,1468
 217 293 217 293 215 293 c 1,1469,-1
 215 290 l 1,1470,1471
 221 264 221 264 226 264 c 0,1472,1473
 267 279 267 279 274 279 c 0,1474,1475
 277 277 277 277 285 277 c 1,1476,1477
 285 290 285 290 336 306 c 1,1478,-1
 336 310 l 1,1479,1480
 312 368 312 368 305 392 c 1,1481,1482
 262 374 262 374 257 374 c 0,1455,1456
1782 359 m 0,1483,1484
 1792 359 1792 359 1841 339 c 1,1485,-1
 1841 337 l 2,1486,1487
 1838 315 1838 315 1832 315 c 0,1488,1489
 1773 336 1773 336 1773 339 c 0,1490,1491
 1777 359 1777 359 1782 359 c 0,1483,1484
290 352 m 0,1492,1493
 295 346 295 346 301 326 c 1,1494,1495
 288 319 288 319 283 319 c 1,1496,1497
 275 330 275 330 272 345 c 1,1498,1499
 285 352 285 352 290 352 c 0,1492,1493
1187 317 m 2,1500,-1
 1182 319 l 1,1501,1502
 1170 313 1170 313 1140 310 c 1,1503,1504
 1131 297 1131 297 1110 297 c 0,1505,1506
 1106 297 1106 297 1096 301 c 1,1507,1508
 1084 295 1084 295 1079 295 c 1,1509,1510
 1079 290 1079 290 1083 290 c 2,1511,-1
 1121 290 l 1,1512,1513
 1259 305 1259 305 1259 328 c 1,1514,1515
 1237 330 1237 330 1226 330 c 2,1516,-1
 1224 330 l 1,1517,1518
 1194 317 1194 317 1187 317 c 2,1500,-1
1729 304 m 1,1519,-1
 1687 220 l 1,1520,1521
 1701 211 1701 211 1711 211 c 1,1522,1523
 1722 231 1722 231 1722 235 c 1,1524,-1
 1724 235 l 1,1525,1526
 1751 231 1751 231 1751 211 c 1,1527,1528
 1758 215 1758 215 1764 215 c 0,1529,1530
 1769 215 1769 215 1808 193 c 1,1531,-1
 1810 193 l 1,1532,1533
 1821 218 1821 218 1821 222 c 0,1534,1535
 1775 240 1775 240 1775 257 c 1,1536,1537
 1766 253 1766 253 1762 253 c 0,1538,1539
 1740 263 1740 263 1740 266 c 0,1540,1541
 1751 285 1751 285 1751 295 c 1,1542,1543
 1735 304 1735 304 1729 304 c 1,1519,-1
301 259 m 2,1544,1545
 297 259 297 259 288 264 c 1,1546,1547
 288 246 288 246 241 226 c 1,1548,1549
 250 206 250 206 257 200 c 1,1550,1551
 303 226 303 226 310 226 c 1,1552,1553
 299 204 299 204 277 167 c 0,1554,1555
 277 160 277 160 290 138 c 1,1556,-1
 334 163 l 2,1557,1558
 336 160 336 160 347 160 c 1,1559,1560
 347 176 347 176 387 191 c 0,1561,1562
 393 196 393 196 393 200 c 0,1563,1564
 382 219 382 219 382 222 c 1,1565,-1
 329 198 l 1,1566,-1
 329 200 l 1,1567,-1
 360 255 l 1,1568,1569
 360 265 360 265 345 284 c 1,1570,-1
 301 259 l 2,1544,1545
1233 262 m 1,1571,1572
 1235 226 1235 226 1242 226 c 2,1573,-1
 1246 226 l 2,1574,1575
 1253 229 1253 229 1253 240 c 2,1576,-1
 1253 248 l 2,1577,1578
 1253 260 1253 260 1244 264 c 1,1579,-1
 1237 264 l 1,1580,-1
 1233 262 l 1,1571,1572
1198 253 m 1,1581,1582
 1193 248 1193 248 1191 229 c 1,1583,1584
 1194 213 1194 213 1202 213 c 0,1585,1586
 1206 215 1206 215 1209 215 c 1,1587,-1
 1209 242 l 2,1588,1589
 1209 244 1209 244 1211 244 c 1,1590,1591
 1209 253 1209 253 1198 253 c 1,1581,1582
1149 242 m 1,1592,-1
 1151 220 l 1,1593,-1
 1151 207 l 2,1594,1595
 1151 203 1151 203 1158 200 c 2,1596,-1
 1162 200 l 2,1597,1598
 1167 200 1167 200 1167 204 c 2,1599,-1
 1167 233 l 1,1600,-1
 1165 244 l 1,1601,-1
 1154 244 l 1,1602,-1
 1149 242 l 1,1592,-1
1678 207 m 1,1603,-1
 1627 134 l 2,1604,1605
 1627 132 1627 132 1669 101 c 1,1606,-1
 1669 90 l 1,1607,-1
 1682 92 l 1,1608,1609
 1697 83 1697 83 1724 63 c 1,1610,-1
 1727 63 l 1,1611,1612
 1727 67 1727 67 1742 88 c 1,1613,-1
 1705 116 l 1,1614,1615
 1716 138 1716 138 1722 138 c 0,1616,1617
 1733 132 1733 132 1757 114 c 1,1618,-1
 1762 114 l 1,1619,1620
 1762 117 1762 117 1777 138 c 1,1621,1622
 1736 165 1736 165 1735 169 c 2,1623,-1
 1735 180 l 1,1624,-1
 1733 180 l 1,1625,-1
 1718 178 l 1,1626,1627
 1714 184 1714 184 1678 207 c 1,1603,-1
1229 156 m 0,1628,1629
 1229 152 1229 152 1233 152 c 2,1630,-1
 1244 152 l 1,1631,1632
 1248 176 1248 176 1248 187 c 0,1633,1634
 1246 191 1246 191 1246 193 c 1,1635,-1
 1237 193 l 2,1636,1637
 1229 193 1229 193 1229 156 c 0,1628,1629
369 145 m 1,1638,-1
 356 147 l 1,1639,1640
 356 129 356 129 329 118 c 0,1641,1642
 329 116 329 116 314 105 c 1,1643,1644
 329 81 329 81 332 81 c 2,1645,-1
 373 110 l 1,1646,-1
 387 107 l 1,1647,-1
 387 118 l 1,1648,-1
 429 152 l 1,1649,1650
 413 173 413 173 413 176 c 1,1651,1652
 411 176 411 176 369 145 c 1,1638,-1
1171 156 m 2,1653,-1
 1171 136 l 2,1654,1655
 1172 132 1172 132 1176 132 c 2,1656,-1
 1182 132 l 2,1657,1658
 1189 132 1189 132 1189 160 c 2,1659,-1
 1189 174 l 1,1660,-1
 1178 174 l 2,1661,1662
 1171 172 1171 172 1171 156 c 2,1653,-1
1682 165 m 2,1663,-1
 1685 165 l 1,1664,1665
 1698 157 1698 157 1698 154 c 0,1666,1667
 1686 134 1686 134 1680 132 c 1,1668,1669
 1667 140 1667 140 1667 143 c 2,1670,-1
 1667 145 l 1,1671,1672
 1679 164 1679 164 1682 165 c 2,1663,-1
426 110 m 1,1673,-1
 418 110 l 1,1674,-1
 413 112 l 1,1675,1676
 413 95 413 95 402 83 c 1,1677,-1
 402 74 l 2,1678,1679
 402 63 402 63 426 37 c 1,1680,-1
 426 35 l 2,1681,1682
 426 32 426 32 415 24 c 1,1683,-1
 413 24 l 2,1684,1685
 409 24 409 24 400 39 c 1,1686,-1
 400 41 l 1,1687,-1
 407 50 l 1,1688,1689
 388 72 388 72 387 72 c 0,1690,1691
 369 59 369 59 367 52 c 2,1692,-1
 367 44 l 2,1693,1694
 367 25 367 25 411 -9 c 1,1695,-1
 424 -9 l 1,1696,1697
 432 -3 432 -3 440 -3 c 2,1698,-1
 442 -3 l 1,1699,-1
 446 -5 l 1,1700,1701
 446 9 446 9 459 24 c 1,1702,-1
 459 33 l 2,1703,1704
 459 43 459 43 435 70 c 1,1705,-1
 435 72 l 2,1706,1707
 435 75 435 75 446 83 c 1,1708,-1
 448 83 l 1,1709,1710
 462 75 462 75 462 63 c 1,1711,1712
 458 63 458 63 455 57 c 0,1713,1714
 455 56 455 56 475 35 c 1,1715,1716
 495 49 495 49 495 61 c 2,1717,-1
 495 63 l 2,1718,1719
 495 82 495 82 451 116 c 1,1720,-1
 442 116 l 2,1721,1722
 434 116 434 116 426 110 c 1,1673,-1
1204 112 m 2,1723,-1
 1204 94 l 1,1724,-1
 1206 83 l 1,1725,-1
 1213 83 l 1,1726,1727
 1222 87 1222 87 1222 99 c 2,1728,-1
 1222 103 l 2,1729,1730
 1222 114 1222 114 1215 116 c 2,1731,-1
 1209 116 l 2,1732,1733
 1204 116 1204 116 1204 112 c 2,1723,-1
1557 55 m 1,1734,-1
 1557 50 l 1,1735,1736
 1561 50 1561 50 1594 17 c 1,1737,-1
 1594 6 l 1,1738,-1
 1605 6 l 2,1739,1740
 1608 6 1608 6 1643 -27 c 1,1741,-1
 1647 -27 l 1,1742,1743
 1647 -23 1647 -23 1665 -5 c 1,1744,1745
 1643 17 1643 17 1638 17 c 1,1746,-1
 1638 21 l 1,1747,-1
 1682 13 l 1,1748,-1
 1705 37 l 1,1749,1750
 1670 46 1670 46 1660 50 c 1,1751,1752
 1665 59 1665 59 1665 66 c 1,1753,1754
 1636 107 1636 107 1619 107 c 2,1755,-1
 1614 107 l 2,1756,1757
 1601 107 1601 107 1557 55 c 1,1734,-1
1160 37 m 1,1758,-1
 1165 35 l 1,1759,-1
 1171 35 l 1,1760,1761
 1176 39 1176 39 1184 68 c 0,1762,1763
 1182 72 1182 72 1182 74 c 1,1764,-1
 1171 74 l 2,1765,1766
 1165 74 1165 74 1160 37 c 1,1758,-1
1614 74 m 0,1767,1768
 1624 71 1624 71 1632 59 c 1,1769,-1
 1632 52 l 2,1770,1771
 1632 49 1632 49 1619 39 c 1,1772,1773
 1597 56 1597 56 1597 59 c 0,1774,1775
 1608 74 1608 74 1614 74 c 0,1767,1768
1200 30 m 2,1776,-1
 1200 21 l 2,1777,1778
 1200 18 1200 18 1206 15 c 2,1779,-1
 1211 15 l 2,1780,1781
 1217 15 1217 15 1220 44 c 1,1782,-1
 1213 48 l 1,1783,-1
 1209 48 l 2,1784,1785
 1203 48 1203 48 1200 30 c 2,1776,-1
475 4 m 1,1786,-1
 477 -1 l 1,1787,-1
 477 -12 l 1,1788,-1
 446 -49 l 1,1789,1790
 465 -68 465 -68 470 -69 c 1,1791,1792
 491 -41 491 -41 501 -34 c 1,1793,1794
 521 -49 521 -49 521 -51 c 2,1795,-1
 521 -53 l 1,1796,1797
 503 -74 503 -74 492 -89 c 1,1798,-1
 492 -91 l 1,1799,1800
 496 -91 496 -91 517 -109 c 1,1801,1802
 517 -104 517 -104 550 -69 c 1,1803,-1
 561 -69 l 1,1804,-1
 561 -56 l 1,1805,1806
 592 -18 592 -18 592 -14 c 2,1807,-1
 570 4 l 1,1808,-1
 567 4 l 1,1809,1810
 567 -1 567 -1 539 -31 c 1,1811,1812
 519 -16 519 -16 519 -14 c 2,1813,-1
 519 -12 l 2,1814,1815
 519 -10 519 -10 545 21 c 1,1816,-1
 545 24 l 2,1817,1818
 545 25 545 25 526 41 c 1,1819,-1
 523 41 l 1,1820,1821
 492 4 492 4 484 4 c 2,1822,-1
 475 4 l 1,1786,-1
1480 -20 m 2,1823,-1
 1480 -25 l 2,1824,1825
 1480 -33 1480 -33 1502 -60 c 1,1826,-1
 1502 -69 l 1,1827,-1
 1500 -73 l 1,1828,1829
 1518 -73 1518 -73 1526 -86 c 0,1830,1831
 1526 -93 1526 -93 1541 -102 c 1,1832,-1
 1550 -102 l 2,1833,1834
 1569 -102 1569 -102 1603 -60 c 0,1835,1836
 1605 -56 1605 -56 1605 -53 c 0,1837,1838
 1605 -44 1605 -44 1583 -18 c 1,1839,-1
 1583 -9 l 1,1840,-1
 1586 -5 l 1,1841,1842
 1566 -5 1566 -5 1552 19 c 1,1843,1844
 1542 28 1542 28 1533 28 c 1,1845,1846
 1480 -1 1480 -1 1480 -20 c 2,1823,-1
1533 -5 m 1,1847,1848
 1570 -50 1570 -50 1570 -58 c 1,1849,1850
 1558 -69 1558 -69 1557 -69 c 2,1851,-1
 1552 -69 l 2,1852,1853
 1550 -68 1550 -68 1513 -23 c 1,1854,-1
 1513 -18 l 1,1855,1856
 1525 -5 1525 -5 1533 -5 c 1,1847,1848
1385 -71 m 1,1857,-1
 1385 -75 l 1,1858,-1
 1409 -115 l 1,1859,-1
 1407 -131 l 1,1860,1861
 1425 -131 1425 -131 1440 -168 c 0,1862,1863
 1444 -168 1444 -168 1444 -175 c 1,1864,1865
 1513 -144 1513 -144 1513 -124 c 2,1866,-1
 1513 -120 l 2,1867,1868
 1513 -109 1513 -109 1486 -75 c 1,1869,1870
 1471 -36 1471 -36 1453 -36 c 0,1871,1872
 1444 -36 1444 -36 1385 -71 c 1,1857,-1
1447 -69 m 0,1873,1874
 1453 -71 1453 -71 1453 -82 c 1,1875,1876
 1444 -95 1444 -95 1433 -95 c 1,1877,-1
 1425 -80 l 1,1878,1879
 1439 -69 1439 -69 1447 -69 c 0,1873,1874
684 -75 m 1,1880,1881
 667 -124 667 -124 649 -124 c 1,1882,1883
 653 -131 653 -131 653 -137 c 0,1884,1885
 653 -142 653 -142 634 -183 c 1,1886,-1
 636 -183 l 1,1887,1888
 656 -194 656 -194 662 -194 c 1,1889,-1
 680 -155 l 1,1890,-1
 682 -155 l 2,1891,1892
 689 -155 689 -155 717 -170 c 1,1893,1894
 717 -166 717 -166 728 -146 c 1,1895,1896
 714 -141 714 -141 693 -128 c 1,1897,1898
 701 -111 701 -111 704 -111 c 0,1899,1900
 746 -133 746 -133 753 -133 c 2,1901,-1
 755 -133 l 1,1902,1903
 755 -126 755 -126 764 -111 c 1,1904,1905
 686 -73 686 -73 684 -73 c 1,1906,-1
 684 -75 l 1,1880,1881
1277 -122 m 1,1907,1908
 1297 -164 1297 -164 1297 -170 c 0,1909,1910
 1297 -174 1297 -174 1292 -181 c 1,1911,1912
 1308 -181 1308 -181 1323 -232 c 1,1913,1914
 1352 -224 1352 -224 1352 -219 c 0,1915,1916
 1336 -185 1336 -185 1336 -175 c 1,1917,1918
 1359 -166 1359 -166 1361 -166 c 0,1919,1920
 1380 -208 1380 -208 1383 -208 c 2,1921,-1
 1409 -197 l 1,1922,-1
 1389 -153 l 1,1923,-1
 1394 -137 l 1,1924,1925
 1378 -137 1378 -137 1363 -86 c 1,1926,1927
 1358 -86 1358 -86 1277 -122 c 1,1907,1908
1467 -109 m 1,1928,-1
 1471 -109 l 2,1929,1930
 1474 -109 1474 -109 1480 -120 c 1,1931,-1
 1480 -122 l 2,1932,1933
 1477 -128 1477 -128 1460 -137 c 1,1934,-1
 1451 -124 l 1,1935,-1
 1451 -120 l 2,1936,1937
 1451 -117 1451 -117 1467 -109 c 1,1928,-1
748 -172 m 0,1938,1939
 753 -180 753 -180 753 -186 c 0,1940,1941
 746 -210 746 -210 746 -214 c 2,1942,-1
 746 -219 l 2,1943,1944
 746 -240 746 -240 803 -250 c 1,1945,-1
 812 -250 l 2,1946,1947
 830 -250 830 -250 838 -210 c 1,1948,1949
 849 -205 849 -205 849 -203 c 0,1950,1951
 845 -196 845 -196 845 -190 c 0,1952,1953
 854 -158 854 -158 854 -155 c 0,1954,1955
 854 -133 854 -133 786 -122 c 0,1956,1957
 771 -122 771 -122 759 -166 c 1,1958,1959
 748 -170 748 -170 748 -172 c 0,1938,1939
1343 -124 m 2,1960,-1
 1345 -124 l 1,1961,1962
 1350 -138 1350 -138 1350 -142 c 2,1963,-1
 1325 -153 l 1,1964,1965
 1320 -146 1320 -146 1317 -135 c 1,1966,1967
 1334 -124 1334 -124 1343 -124 c 2,1960,-1
1187 -148 m 2,1968,-1
 1198 -197 l 1,1969,-1
 1191 -208 l 1,1970,-1
 1191 -210 l 1,1971,1972
 1207 -210 1207 -210 1215 -263 c 1,1973,-1
 1217 -263 l 1,1974,-1
 1295 -243 l 1,1975,1976
 1288 -222 1288 -222 1288 -219 c 1,1977,-1
 1240 -230 l 1,1978,1979
 1233 -214 1233 -214 1233 -203 c 1,1980,1981
 1236 -203 1236 -203 1240 -194 c 1,1982,1983
 1224 -194 1224 -194 1217 -146 c 0,1984,1985
 1215 -146 1215 -146 1215 -139 c 1,1986,1987
 1187 -145 1187 -145 1187 -148 c 2,1968,-1
880 -148 m 1,1988,1989
 874 -205 874 -205 863 -205 c 0,1990,1991
 860 -205 860 -205 860 -208 c 0,1992,1993
 865 -209 865 -209 869 -219 c 1,1994,-1
 863 -267 l 1,1995,-1
 865 -267 l 2,1996,1997
 866 -267 866 -267 894 -269 c 1,1998,-1
 894 -267 l 1,1999,-1
 900 -212 l 1,2000,-1
 902 -212 l 1,2001,2002
 906 -217 906 -217 933 -276 c 1,2003,2004
 956 -280 956 -280 962 -280 c 1,2005,2006
 962 -231 962 -231 979 -225 c 1,2007,2008
 975 -215 975 -215 971 -214 c 1,2009,-1
 979 -161 l 1,2010,-1
 949 -157 l 1,2011,2012
 943 -214 943 -214 938 -214 c 1,2013,2014
 912 -150 912 -150 905 -150 c 0,2015,2016
 889 -148 889 -148 880 -148 c 1,1988,1989
799 -153 m 0,2017,2018
 821 -155 821 -155 821 -161 c 0,2019,2020
 805 -221 805 -221 797 -221 c 0,2021,2022
 779 -217 779 -217 779 -212 c 0,2023,2024
 793 -153 793 -153 799 -153 c 0,2017,2018
988 -161 m 1,2025,-1
 988 -188 l 1,2026,-1
 1019 -188 l 2,2027,2028
 1024 -189 1024 -189 1024 -192 c 2,2029,-1
 1024 -205 l 2,2030,2031
 1024 -215 1024 -215 1013 -223 c 1,2032,-1
 1013 -225 l 1,2033,2034
 1019 -225 1019 -225 1024 -234 c 1,2035,-1
 1024 -283 l 1,2036,-1
 1054 -283 l 1,2037,-1
 1054 -232 l 1,2038,-1
 1063 -223 l 1,2039,-1
 1052 -210 l 1,2040,-1
 1052 -190 l 2,2041,2042
 1053 -186 1053 -186 1057 -186 c 2,2043,-1
 1085 -186 l 1,2044,-1
 1085 -161 l 1,2045,-1
 988 -161 l 1,2025,-1
EndSplineSet
Validated: 129
EndChar

StartChar: quotesingle
Encoding: 39 39 10
Width: 452
GlyphClass: 2
Flags: W
LayerCount: 2
Fore
SplineSet
180 1671 m 2,0,-1
 201 1671 l 2,1,2
 330 1671 330 1671 345 1629 c 1,3,-1
 345 1623 l 1,4,-1
 339 1613 l 1,5,-1
 95 1634 l 1,6,-1
 95 1639 l 2,7,8
 95 1668 95 1668 180 1671 c 2,0,-1
90 1623 m 0,9,10
 284 1591 284 1591 313 1591 c 2,11,-1
 339 1591 l 1,12,13
 355 1586 355 1586 355 1560 c 1,14,-1
 350 1549 l 1,15,16
 260 1560 260 1560 185 1560 c 1,17,18
 196 1547 196 1547 196 1538 c 1,19,-1
 207 1538 l 1,20,-1
 239 1533 l 1,21,22
 258 1544 258 1544 281 1544 c 0,23,24
 355 1544 355 1544 355 1528 c 2,25,-1
 355 1491 l 2,26,27
 355 1485 355 1485 350 1485 c 1,28,-1
 355 1475 l 1,29,-1
 355 1369 l 2,30,31
 355 1246 355 1246 334 1209 c 1,32,-1
 334 1204 l 1,33,-1
 302 1204 l 1,34,35
 226 1228 226 1228 85 1406 c 1,36,37
 85 1421 85 1421 74 1491 c 1,38,-1
 85 1496 l 2,39,40
 93 1496 93 1496 159 1491 c 1,41,42
 176 1501 176 1501 191 1501 c 1,43,-1
 191 1512 l 1,44,45
 180 1512 180 1512 180 1517 c 1,46,47
 161 1506 161 1506 138 1506 c 2,48,-1
 127 1506 l 2,49,50
 119 1506 119 1506 111 1522 c 1,51,-1
 85 1517 l 1,52,-1
 74 1517 l 1,53,-1
 74 1544 l 1,54,55
 91 1544 91 1544 138 1565 c 1,56,57
 159 1560 159 1560 175 1560 c 1,58,59
 175 1570 175 1570 164 1570 c 2,60,-1
 90 1570 l 2,61,62
 79 1570 79 1570 79 1581 c 2,63,-1
 79 1613 l 2,64,65
 81 1623 81 1623 90 1623 c 0,9,10
329 1491 m 1,66,-1
 329 1485 l 1,67,-1
 345 1485 l 1,68,-1
 345 1491 l 1,69,-1
 329 1491 l 1,66,-1
308 1284 m 1,70,-1
 308 1278 l 1,71,-1
 323 1278 l 1,72,-1
 323 1284 l 1,73,-1
 308 1284 l 1,70,-1
EndSplineSet
Validated: 1
EndChar

StartChar: comma
Encoding: 44 44 15
Width: 452
GlyphClass: 2
Flags: W
LayerCount: 2
Fore
SplineSet
194 286 m 2,0,-1
 215 286 l 2,1,2
 344 286 344 286 359 244 c 1,3,-1
 359 238 l 1,4,-1
 353 228 l 1,5,-1
 109 249 l 1,6,-1
 109 254 l 2,7,8
 109 283 109 283 194 286 c 2,0,-1
104 238 m 0,9,10
 298 206 298 206 327 206 c 2,11,-1
 353 206 l 1,12,13
 369 201 369 201 369 175 c 1,14,-1
 364 164 l 1,15,16
 274 175 274 175 199 175 c 1,17,18
 210 162 210 162 210 153 c 1,19,-1
 221 153 l 1,20,-1
 253 148 l 1,21,22
 272 159 272 159 295 159 c 0,23,24
 369 159 369 159 369 143 c 2,25,-1
 369 106 l 2,26,27
 369 100 369 100 364 100 c 1,28,-1
 369 90 l 1,29,-1
 369 -16 l 2,30,31
 369 -139 369 -139 348 -176 c 1,32,-1
 348 -181 l 1,33,-1
 316 -181 l 1,34,35
 240 -157 240 -157 99 21 c 1,36,37
 99 36 99 36 88 106 c 1,38,-1
 99 111 l 2,39,40
 107 111 107 111 173 106 c 1,41,42
 190 116 190 116 205 116 c 1,43,-1
 205 127 l 1,44,45
 194 127 194 127 194 132 c 1,46,47
 175 121 175 121 152 121 c 2,48,-1
 141 121 l 2,49,50
 133 121 133 121 125 137 c 1,51,-1
 99 132 l 1,52,-1
 88 132 l 1,53,-1
 88 159 l 1,54,55
 105 159 105 159 152 180 c 1,56,57
 173 175 173 175 189 175 c 1,58,59
 189 185 189 185 178 185 c 2,60,-1
 104 185 l 2,61,62
 93 185 93 185 93 196 c 2,63,-1
 93 228 l 2,64,65
 95 238 95 238 104 238 c 0,9,10
343 106 m 1,66,-1
 343 100 l 1,67,-1
 359 100 l 1,68,-1
 359 106 l 1,69,-1
 343 106 l 1,66,-1
322 -101 m 1,70,-1
 322 -107 l 1,71,-1
 337 -107 l 1,72,-1
 337 -101 l 1,73,-1
 322 -101 l 1,70,-1
EndSplineSet
Validated: 1
EndChar

StartChar: period
Encoding: 46 46 17
Width: 557
GlyphClass: 2
Flags: W
LayerCount: 2
Fore
SplineSet
261 335 m 0,0,1
 419 335 419 335 419 219 c 2,2,-1
 419 128 l 2,3,4
 419 116 419 116 395 116 c 1,5,-1
 395 110 l 1,6,-1
 413 110 l 1,7,-1
 413 79 l 2,8,9
 413 0 413 0 291 0 c 2,10,-1
 206 0 l 2,11,12
 84 0 84 0 84 128 c 2,13,-1
 84 158 l 2,14,15
 84 329 84 329 206 329 c 1,16,17
 239 335 239 335 261 335 c 0,0,1
120 207 m 1,18,-1
 120 201 l 1,19,-1
 139 201 l 1,20,-1
 139 207 l 1,21,-1
 120 207 l 1,18,-1
181 207 m 1,22,-1
 181 201 l 1,23,-1
 194 201 l 1,24,-1
 194 207 l 1,25,-1
 181 207 l 1,22,-1
273 201 m 1,26,-1
 273 195 l 1,27,-1
 303 195 l 1,28,-1
 303 201 l 1,29,-1
 273 201 l 1,26,-1
315 195 m 1,30,-1
 315 189 l 1,31,-1
 370 183 l 1,32,-1
 376 195 l 1,33,-1
 315 195 l 1,30,-1
291 128 m 1,34,-1
 291 122 l 1,35,36
 294 122 294 122 315 116 c 1,37,-1
 315 128 l 1,38,-1
 291 128 l 1,34,-1
EndSplineSet
Validated: 1
EndChar

StartChar: slash
Encoding: 47 47 18
Width: 624
GlyphClass: 2
Flags: W
LayerCount: 2
Fore
SplineSet
382 1485 m 1,0,1
 399 1481 399 1481 549 1425 c 1,2,-1
 585 1417 l 2,3,4
 601 1413 601 1413 595 1365 c 1,5,6
 584 1366 584 1366 582 1357 c 1,7,8
 594 1336 594 1336 584 1291 c 2,9,-1
 339 215 l 2,10,11
 292 7 292 7 256 16 c 1,12,13
 231 5 231 5 152 17 c 1,14,15
 6 51 6 51 32 165 c 2,16,-1
 42 206 l 2,17,18
 43 212 43 212 48 210 c 1,19,-1
 45 222 l 1,20,-1
 306 1366 l 2,21,22
 310 1376 310 1376 318 1374 c 2,23,-1
 381 1360 l 1,24,25
 383 1370 383 1370 373 1372 c 2,26,-1
 321 1384 l 2,27,28
 310 1386 310 1386 313 1397 c 2,29,-1
 319 1423 l 2,30,31
 320 1430 320 1430 338 1435 c 1,32,-1
 383 1419 l 1,33,34
 395 1422 395 1422 400 1421 c 1,35,-1
 401 1426 l 1,36,37
 343 1439 343 1439 338 1462 c 1,38,39
 380 1481 380 1481 382 1485 c 1,0,1
417 1422 m 1,40,41
 417 1406 417 1406 455 1397 c 2,42,-1
 465 1395 l 1,43,-1
 503 1392 l 1,44,-1
 504 1397 l 1,45,46
 449 1410 449 1410 417 1422 c 1,40,41
427 1349 m 1,47,-1
 426 1344 l 1,48,-1
 520 1322 l 1,49,-1
 521 1328 l 1,50,-1
 427 1349 l 1,47,-1
65 212 m 1,51,-1
 64 207 l 1,52,-1
 95 200 l 1,53,-1
 96 205 l 1,54,-1
 65 212 l 1,51,-1
41 152 m 1,55,-1
 39 147 l 1,56,57
 81 137 81 137 80 132 c 1,58,59
 90 135 90 135 102 133 c 1,60,-1
 103 138 l 1,61,62
 87 141 87 141 88 147 c 1,63,64
 84 142 84 142 41 152 c 1,55,-1
153 116 m 1,65,-1
 151 111 l 1,66,-1
 198 100 l 1,67,-1
 199 105 l 1,68,-1
 153 116 l 1,65,-1
EndSplineSet
Validated: 33
EndChar

StartChar: zero
Encoding: 48 48 19
Width: 1014
GlyphClass: 2
Flags: W
LayerCount: 2
Fore
SplineSet
440 1451 m 1,0,1
 551 1451 551 1451 705 1358 c 1,2,3
 842 1224 842 1224 855 1135 c 1,4,5
 881 1081 881 1081 881 928 c 2,6,-1
 881 658 l 2,7,8
 881 653 881 653 876 653 c 1,9,-1
 881 643 l 1,10,-1
 881 534 l 2,11,12
 881 529 881 529 876 529 c 1,13,-1
 881 518 l 1,14,-1
 881 477 l 2,15,16
 881 469 881 469 865 461 c 1,17,-1
 850 461 l 1,18,19
 819 472 819 472 726 477 c 1,20,-1
 715 472 l 1,21,22
 606 477 606 477 606 492 c 2,23,-1
 606 529 l 1,24,-1
 611 539 l 1,25,-1
 622 534 l 1,26,-1
 663 534 l 1,27,-1
 663 539 l 1,28,29
 606 544 606 544 606 554 c 2,30,-1
 606 948 l 2,31,32
 606 1109 606 1109 477 1166 c 1,33,34
 425 1176 425 1176 409 1176 c 0,35,36
 310 1176 310 1176 280 1104 c 1,37,38
 280 1088 280 1088 269 1062 c 1,39,-1
 275 1031 l 2,40,41
 275 1011 275 1011 269 1011 c 1,42,-1
 275 974 l 1,43,-1
 275 586 l 2,44,45
 275 575 275 575 233 575 c 1,46,-1
 233 570 l 1,47,48
 275 570 275 570 275 539 c 2,49,-1
 275 534 l 2,50,51
 275 526 275 526 259 518 c 1,52,53
 171 518 171 518 114 534 c 1,54,-1
 109 534 l 2,55,56
 0 534 0 534 0 549 c 2,57,-1
 0 1011 l 2,58,59
 0 1021 0 1021 16 1021 c 1,60,61
 5 1034 5 1034 5 1036 c 2,62,-1
 5 1052 l 1,63,64
 13 1177 13 1177 119 1306 c 1,65,66
 207 1406 207 1406 394 1446 c 1,67,68
 437 1446 437 1446 440 1451 c 1,0,1
244 1062 m 1,69,-1
 244 1057 l 1,70,-1
 264 1057 l 1,71,-1
 264 1062 l 1,72,-1
 244 1062 l 1,69,-1
88 1021 m 1,73,-1
 88 1016 l 1,74,-1
 98 1016 l 1,75,-1
 98 1021 l 1,76,-1
 88 1021 l 1,73,-1
109 1016 m 1,77,-1
 109 1011 l 1,78,-1
 171 1011 l 1,79,-1
 171 1016 l 1,80,-1
 145 1021 l 1,81,-1
 109 1016 l 1,77,-1
36 591 m 1,82,-1
 36 586 l 1,83,-1
 109 586 l 1,84,-1
 109 591 l 1,85,-1
 36 591 l 1,82,-1
668 534 m 1,86,-1
 668 529 l 1,87,-1
 736 529 l 1,88,-1
 736 534 l 1,89,-1
 668 534 l 1,86,-1
31 529 m 1,90,91
 54 521 54 521 73 508 c 1,92,-1
 109 513 l 1,93,94
 140 508 140 508 140 497 c 1,95,96
 184 508 184 508 254 508 c 2,97,-1
 259 508 l 2,98,99
 267 508 267 508 275 492 c 1,100,-1
 275 466 l 2,101,102
 275 456 275 456 264 456 c 0,103,104
 153 462 153 462 145 482 c 1,105,106
 104 472 104 472 83 472 c 1,107,108
 72 492 72 492 57 492 c 1,109,110
 31 477 31 477 16 477 c 2,111,-1
 10 477 l 2,112,113
 0 477 0 477 0 487 c 2,114,-1
 0 513 l 2,115,116
 0 523 0 523 31 529 c 1,90,91
611 466 m 1,117,-1
 700 451 l 1,118,119
 700 466 700 466 710 466 c 0,120,121
 782 466 782 466 808 446 c 0,122,123
 814 446 814 446 814 451 c 1,124,125
 876 451 876 451 876 430 c 0,126,127
 876 308 876 308 803 187 c 1,128,-1
 783 171 l 1,129,-1
 720 171 l 1,130,-1
 720 166 l 1,131,132
 739 166 739 166 767 161 c 1,133,-1
 767 155 l 1,134,135
 752 130 752 130 715 109 c 1,136,137
 715 82 715 82 627 52 c 1,138,139
 539 0 539 0 456 0 c 2,140,-1
 425 0 l 1,141,142
 290 10 290 10 145 104 c 1,143,144
 31 248 31 248 31 301 c 1,145,146
 26 301 26 301 16 332 c 1,147,148
 25 337 25 337 36 337 c 1,149,-1
 36 342 l 1,150,-1
 26 342 l 1,151,-1
 26 347 l 1,152,-1
 31 358 l 1,153,154
 5 358 5 358 5 373 c 2,155,-1
 5 383 l 1,156,-1
 10 394 l 1,157,158
 147 378 147 378 285 373 c 1,159,160
 328 295 328 295 363 295 c 1,161,162
 398 280 398 280 420 280 c 2,163,-1
 451 280 l 2,164,165
 509 280 509 280 554 342 c 1,166,167
 601 380 601 380 601 456 c 1,168,169
 611 456 611 456 611 466 c 1,117,-1
5 461 m 1,170,171
 113 456 113 456 244 430 c 0,172,173
 246 430 246 430 259 440 c 1,174,-1
 264 440 l 2,175,176
 275 439 275 439 275 430 c 2,177,-1
 275 404 l 2,178,179
 275 394 275 394 264 394 c 1,180,-1
 244 404 l 1,181,182
 232 404 232 404 223 399 c 1,183,184
 166 404 166 404 124 404 c 2,185,-1
 104 404 l 1,186,-1
 88 415 l 1,187,-1
 41 415 l 2,188,189
 3 415 3 415 0 430 c 2,190,-1
 0 451 l 1,191,-1
 5 461 l 1,170,171
674 425 m 1,192,-1
 674 420 l 1,193,-1
 700 415 l 1,194,-1
 705 425 l 1,195,-1
 705 430 l 1,196,-1
 700 430 l 1,197,-1
 674 425 l 1,192,-1
249 321 m 1,198,-1
 249 316 l 1,199,200
 251 316 251 316 269 311 c 1,201,-1
 269 321 l 1,202,-1
 249 321 l 1,198,-1
637 176 m 1,203,-1
 637 171 l 1,204,-1
 653 171 l 1,205,-1
 653 176 l 1,206,-1
 637 176 l 1,203,-1
363 140 m 1,207,-1
 363 135 l 1,208,-1
 378 135 l 1,209,-1
 378 140 l 1,210,-1
 363 140 l 1,207,-1
244 88 m 1,211,-1
 244 83 l 1,212,-1
 269 83 l 1,213,-1
 269 88 l 1,214,-1
 244 88 l 1,211,-1
549 62 m 1,215,-1
 549 57 l 1,216,-1
 560 57 l 1,217,-1
 560 62 l 1,218,-1
 549 62 l 1,215,-1
EndSplineSet
Validated: 1
EndChar

StartChar: one
Encoding: 49 49 20
Width: 664
GlyphClass: 2
Flags: W
LayerCount: 2
Fore
SplineSet
435 1438 m 0,0,1
 552 1438 552 1438 573 1392 c 0,2,3
 589 1360 589 1360 589 1238 c 2,4,-1
 589 276 l 2,5,6
 589 271 589 271 583 271 c 1,7,-1
 589 261 l 1,8,-1
 589 220 l 1,9,-1
 583 210 l 1,10,11
 487 215 487 215 455 225 c 1,12,-1
 430 220 l 1,13,-1
 430 215 l 1,14,15
 449 215 449 215 466 200 c 1,16,17
 476 205 476 205 481 205 c 0,18,19
 589 198 589 198 589 179 c 2,20,-1
 589 159 l 1,21,-1
 583 148 l 1,22,23
 420 162 420 162 420 174 c 1,24,-1
 368 169 l 1,25,-1
 328 169 l 2,26,27
 317 169 317 169 317 179 c 2,28,-1
 317 773 l 2,29,30
 314 921 314 921 287 921 c 2,31,-1
 266 921 l 2,32,33
 256 921 256 921 174 870 c 1,34,-1
 154 870 l 2,35,36
 99 870 99 870 5 993 c 1,37,38
 0 1011 0 1011 0 1013 c 0,39,40
 0 1080 0 1080 123 1208 c 1,41,42
 286 1433 286 1433 368 1433 c 1,43,44
 393 1438 393 1438 435 1438 c 0,0,1
399 281 m 1,45,-1
 399 276 l 1,46,-1
 445 276 l 1,47,-1
 445 281 l 1,48,-1
 399 281 l 1,45,-1
507 276 m 1,49,50
 507 274 507 274 496 261 c 1,51,-1
 558 261 l 1,52,-1
 558 266 l 1,53,54
 543 266 543 266 507 276 c 1,49,50
358 159 m 1,55,56
 433 138 433 138 445 138 c 0,57,58
 450 138 450 138 450 143 c 1,59,60
 508 133 508 133 583 133 c 1,61,62
 583 128 583 128 589 128 c 1,63,64
 589 119 589 119 578 87 c 1,65,-1
 583 77 l 1,66,67
 583 10 583 10 450 0 c 1,68,69
 317 0 317 0 317 87 c 1,70,-1
 343 97 l 1,71,-1
 353 92 l 1,72,73
 377 102 377 102 404 102 c 2,74,-1
 440 97 l 1,75,-1
 440 107 l 1,76,-1
 409 107 l 2,77,78
 387 107 387 107 368 118 c 1,79,80
 341 113 341 113 322 113 c 1,81,-1
 317 123 l 1,82,-1
 317 143 l 2,83,84
 317 154 317 154 358 159 c 1,55,56
507 97 m 1,85,-1
 507 87 l 1,86,-1
 537 87 l 1,87,88
 537 97 537 97 527 97 c 2,89,-1
 507 97 l 1,85,-1
EndSplineSet
Validated: 1
EndChar

StartChar: two
Encoding: 50 50 21
Width: 977
GlyphClass: 2
Flags: W
LayerCount: 2
Fore
SplineSet
434 1433 m 1,0,1
 681 1389 681 1389 681 1357 c 1,2,3
 808 1281 808 1281 863 1095 c 1,4,5
 878 1011 878 1011 878 989 c 0,6,7
 878 788 878 788 717 626 c 1,8,9
 687 571 687 571 510 394 c 0,10,11
 474 354 474 354 474 328 c 2,12,-1
 474 318 l 1,13,14
 496 288 496 288 595 288 c 2,15,-1
 767 288 l 2,16,17
 873 288 873 288 873 197 c 1,18,-1
 878 172 l 1,19,-1
 873 172 l 1,20,-1
 878 161 l 1,21,-1
 878 156 l 2,22,23
 878 5 878 5 797 5 c 1,24,25
 750 0 750 0 706 0 c 2,26,-1
 182 0 l 2,27,28
 5 0 5 0 5 91 c 2,29,-1
 5 106 l 1,30,31
 20 116 20 116 61 116 c 1,32,33
 61 123 61 123 45 131 c 1,34,35
 18 126 18 126 5 126 c 1,36,-1
 0 136 l 1,37,-1
 0 167 l 2,38,39
 2 177 2 177 10 177 c 2,40,-1
 35 177 l 2,41,42
 48 177 48 177 81 167 c 1,43,44
 149 172 149 172 182 172 c 1,45,46
 182 182 182 182 172 182 c 0,47,48
 167 182 167 182 131 177 c 1,49,50
 111 184 111 184 111 192 c 2,51,-1
 111 197 l 2,52,53
 111 201 111 201 126 212 c 1,54,55
 240 202 240 202 464 202 c 1,56,57
 464 212 464 212 454 212 c 2,58,-1
 439 212 l 2,59,60
 422 212 422 212 414 207 c 1,61,62
 367 217 367 217 227 227 c 0,63,64
 114 237 114 237 15 252 c 1,65,-1
 15 257 l 2,66,67
 16 299 16 299 293 570 c 1,68,69
 356 666 356 666 505 812 c 1,70,71
 585 914 585 914 585 989 c 1,72,73
 561 1145 561 1145 439 1145 c 0,74,75
 375 1145 375 1145 298 1044 c 1,76,77
 276 964 276 964 141 964 c 2,78,-1
 136 964 l 2,79,80
 5 964 5 964 5 1039 c 2,81,-1
 5 1055 l 2,82,83
 5 1184 5 1184 146 1327 c 1,84,85
 248 1411 248 1411 434 1433 c 1,0,1
237 1060 m 1,86,-1
 237 1055 l 1,87,-1
 257 1055 l 1,88,-1
 257 1060 l 1,89,-1
 237 1060 l 1,86,-1
257 288 m 1,90,-1
 252 278 l 1,91,-1
 283 278 l 1,92,-1
 283 283 l 1,93,94
 266 283 266 283 257 288 c 1,90,-1
353 272 m 1,95,-1
 353 267 l 1,96,-1
 368 267 l 1,97,-1
 368 272 l 1,98,-1
 353 272 l 1,95,-1
494 262 m 1,99,100
 496 252 496 252 505 252 c 2,101,-1
 515 252 l 1,102,-1
 515 262 l 1,103,-1
 494 262 l 1,99,100
595 252 m 1,104,-1
 595 247 l 1,105,-1
 605 247 l 1,106,-1
 605 252 l 1,107,-1
 595 252 l 1,104,-1
641 247 m 1,108,-1
 641 242 l 1,109,110
 662 242 662 242 696 237 c 1,111,-1
 706 237 l 1,112,-1
 706 242 l 1,113,-1
 661 247 l 1,114,-1
 641 247 l 1,108,-1
35 217 m 2,115,-1
 71 217 l 2,116,117
 78 217 78 217 86 202 c 0,118,119
 86 195 86 195 71 187 c 1,120,-1
 35 187 l 2,121,122
 25 187 25 187 25 197 c 2,123,-1
 25 207 l 2,124,125
 27 217 27 217 35 217 c 2,115,-1
479 197 m 1,126,-1
 479 192 l 1,127,128
 539 187 539 187 565 187 c 2,129,-1
 616 187 l 1,130,131
 616 197 616 197 605 197 c 2,132,-1
 550 197 l 2,133,134
 539 197 539 197 530 202 c 1,135,136
 529 197 529 197 479 197 c 1,126,-1
671 187 m 1,137,-1
 671 182 l 1,138,139
 679 182 679 182 691 172 c 1,140,-1
 787 172 l 1,141,-1
 787 177 l 1,142,143
 731 177 731 177 676 187 c 1,144,-1
 671 187 l 1,137,-1
192 172 m 1,145,-1
 192 167 l 1,146,-1
 378 136 l 2,147,148
 390 136 390 136 399 141 c 1,149,150
 426 136 426 136 444 136 c 2,151,-1
 500 136 l 1,152,-1
 500 141 l 1,153,154
 275 161 275 161 242 172 c 1,155,-1
 192 172 l 1,145,-1
838 172 m 1,156,-1
 838 167 l 1,157,-1
 863 167 l 1,158,-1
 863 172 l 1,159,-1
 838 172 l 1,156,-1
101 121 m 1,160,161
 101 108 101 108 141 101 c 1,162,-1
 217 101 l 1,163,-1
 217 106 l 1,164,165
 209 106 209 106 197 116 c 1,166,-1
 187 116 l 2,167,168
 160 116 160 116 101 121 c 1,160,161
424 91 m 1,169,-1
 424 86 l 1,170,-1
 439 86 l 1,171,-1
 439 91 l 1,172,-1
 424 91 l 1,169,-1
EndSplineSet
Validated: 1
EndChar

StartChar: three
Encoding: 51 51 22
Width: 902
GlyphClass: 2
Flags: W
LayerCount: 2
Fore
SplineSet
392 1438 m 2,0,-1
 438 1438 l 2,1,2
 505 1438 505 1438 649 1376 c 1,3,4
 757 1309 757 1309 809 1175 c 1,5,6
 825 1175 825 1175 830 1072 c 1,7,-1
 830 943 l 2,8,9
 830 856 830 856 763 747 c 1,10,11
 763 730 763 730 758 722 c 1,12,13
 758 705 758 705 825 562 c 1,14,15
 830 535 830 535 830 510 c 2,16,-1
 830 371 l 2,17,18
 830 235 830 235 706 108 c 1,19,20
 557 0 557 0 448 0 c 2,21,-1
 402 0 l 2,22,23
 293 0 293 0 124 108 c 1,24,25
 0 281 0 281 0 340 c 2,26,-1
 0 381 l 1,27,28
 15 428 15 428 108 428 c 2,29,-1
 129 428 l 2,30,31
 260 428 260 428 289 350 c 1,32,33
 348 278 348 278 407 278 c 2,34,-1
 433 278 l 2,35,36
 531 278 531 278 567 417 c 1,37,38
 567 545 567 545 387 593 c 1,39,40
 340 619 340 619 340 691 c 2,41,-1
 340 747 l 2,42,43
 340 823 340 823 407 850 c 1,44,45
 577 901 577 901 577 1026 c 0,46,47
 577 1140 577 1140 428 1165 c 1,48,49
 334 1165 334 1165 263 1051 c 1,50,51
 231 1010 231 1010 129 1010 c 0,52,53
 0 1010 0 1010 0 1072 c 1,54,55
 20 1198 20 1198 108 1304 c 1,56,57
 219 1408 219 1408 320 1423 c 1,58,59
 346 1438 346 1438 392 1438 c 2,0,-1
EndSplineSet
Validated: 1
EndChar

StartChar: four
Encoding: 52 52 23
Width: 871
GlyphClass: 2
Flags: W
LayerCount: 2
Fore
SplineSet
559 1429 m 2,0,-1
 595 1429 l 2,1,2
 707 1429 707 1429 707 1337 c 1,3,4
 712 1302 712 1302 712 1236 c 2,5,-1
 712 920 l 2,6,7
 712 851 712 851 707 737 c 1,8,9
 717 651 717 651 783 651 c 1,10,11
 870 635 870 635 870 570 c 2,12,-1
 870 539 l 2,13,14
 870 381 870 381 803 381 c 1,15,16
 722 358 722 358 722 320 c 1,17,-1
 707 310 l 1,18,-1
 712 300 l 1,19,-1
 712 193 l 2,20,21
 712 25 712 25 681 25 c 1,22,23
 681 7 681 7 580 0 c 1,24,25
 453 0 453 0 453 51 c 1,26,27
 444 51 444 51 442 112 c 2,28,-1
 442 249 l 2,29,30
 442 376 442 376 336 376 c 2,31,-1
 142 376 l 2,32,33
 0 376 0 376 0 442 c 2,34,-1
 0 458 l 2,35,36
 0 710 0 710 66 768 c 1,37,-1
 351 1256 l 1,38,39
 431 1424 431 1424 498 1424 c 1,40,41
 525 1429 525 1429 559 1429 c 2,0,-1
356 712 m 2,42,-1
 356 687 l 2,43,44
 356 679 356 679 371 671 c 1,45,-1
 402 671 l 2,46,47
 416 671 416 671 427 717 c 1,48,49
 417 755 417 755 417 758 c 1,50,-1
 402 758 l 1,51,52
 356 751 356 751 356 712 c 2,42,-1
549 381 m 1,53,-1
 549 376 l 1,54,-1
 580 376 l 1,55,-1
 580 381 l 1,56,-1
 549 381 l 1,53,-1
544 320 m 1,57,-1
 544 315 l 1,58,-1
 595 315 l 1,59,-1
 595 320 l 1,60,-1
 544 320 l 1,57,-1
651 310 m 1,61,-1
 651 305 l 1,62,-1
 697 305 l 1,63,-1
 697 310 l 1,64,-1
 651 310 l 1,61,-1
EndSplineSet
Validated: 1
EndChar

StartChar: five
Encoding: 53 53 24
Width: 1014
GlyphClass: 2
Flags: W
LayerCount: 2
Fore
SplineSet
716 1438 m 2,0,1
 814 1438 814 1438 814 1331 c 2,2,-1
 814 1305 l 2,3,4
 814 1167 814 1167 732 1167 c 2,5,-1
 425 1167 l 2,6,7
 292 1167 292 1167 292 1110 c 1,8,9
 278 1110 278 1110 276 1034 c 0,10,11
 276 923 276 923 389 906 c 1,12,13
 652 906 652 906 716 829 c 1,14,15
 843 738 843 738 896 558 c 0,16,17
 906 517 906 517 906 471 c 2,18,-1
 906 445 l 2,19,20
 906 337 906 337 870 302 c 1,21,-1
 875 292 l 1,22,23
 799 128 799 128 747 128 c 1,24,-1
 747 123 l 1,25,-1
 757 123 l 1,26,-1
 757 118 l 1,27,28
 638 0 638 0 445 0 c 0,29,30
 258 0 258 0 107 154 c 1,31,32
 9 278 9 278 5 374 c 1,33,34
 13 379 13 379 36 379 c 1,35,-1
 36 384 l 1,36,37
 13 384 13 384 5 389 c 1,38,39
 5 466 5 466 123 466 c 0,40,41
 235 466 235 466 276 384 c 1,42,43
 360 281 360 281 450 281 c 1,44,45
 582 292 582 292 619 415 c 0,46,47
 624 421 624 421 624 450 c 2,48,-1
 624 455 l 2,49,50
 624 594 624 594 445 655 c 0,51,52
 418 660 418 660 394 660 c 2,53,-1
 138 660 l 2,54,55
 5 660 5 660 5 732 c 1,56,57
 0 780 0 780 0 824 c 2,58,-1
 0 890 l 2,59,60
 0 1072 0 1072 10 1141 c 1,61,62
 5 1171 5 1171 0 1310 c 1,63,64
 0 1438 0 1438 87 1438 c 2,65,-1
 716 1438 l 2,0,1
46 379 m 1,66,-1
 46 374 l 1,67,-1
 92 368 l 1,68,-1
 97 379 l 1,69,-1
 46 379 l 1,66,-1
26 322 m 1,70,-1
 26 317 l 1,71,-1
 46 312 l 1,72,-1
 46 322 l 1,73,-1
 26 322 l 1,70,-1
113 312 m 1,74,-1
 113 307 l 1,75,-1
 128 307 l 1,76,-1
 128 312 l 1,77,-1
 113 312 l 1,74,-1
138 312 m 1,78,-1
 138 307 l 1,79,-1
 174 307 l 1,80,-1
 174 312 l 1,81,-1
 138 312 l 1,78,-1
778 307 m 1,82,-1
 778 302 l 1,83,-1
 803 297 l 1,84,-1
 809 307 l 1,85,-1
 778 307 l 1,82,-1
EndSplineSet
Validated: 1
EndChar

StartChar: six
Encoding: 54 54 25
Width: 933
GlyphClass: 2
Flags: W
LayerCount: 2
Fore
SplineSet
496 1438 m 2,0,1
 585 1438 585 1438 604 1387 c 1,2,-1
 604 1382 l 2,3,4
 604 1337 604 1337 461 988 c 1,5,6
 455 960 455 960 455 942 c 0,7,8
 455 892 455 892 594 849 c 1,9,10
 746 753 746 753 793 650 c 1,11,12
 834 540 834 540 834 461 c 2,13,-1
 834 435 l 2,14,15
 834 341 834 341 788 261 c 1,16,-1
 762 266 l 1,17,-1
 757 266 l 1,18,-1
 757 261 l 1,19,20
 778 258 778 258 778 246 c 2,21,-1
 778 235 l 1,22,23
 768 217 768 217 747 210 c 1,24,25
 644 215 644 215 614 225 c 1,26,-1
 589 220 l 1,27,-1
 589 215 l 1,28,29
 607 215 607 215 624 200 c 1,30,31
 634 205 634 205 640 205 c 0,32,33
 674 205 674 205 742 189 c 1,34,-1
 742 174 l 2,35,36
 742 166 742 166 722 154 c 1,37,-1
 706 154 l 1,38,39
 578 161 578 161 578 174 c 1,40,-1
 527 169 l 1,41,-1
 522 169 l 2,42,43
 460 169 460 169 404 179 c 1,44,-1
 399 179 l 1,45,-1
 399 174 l 1,46,47
 408 174 408 174 425 159 c 1,48,-1
 430 159 l 2,49,50
 463 159 463 159 496 154 c 0,51,52
 499 154 499 154 517 159 c 1,53,54
 591 138 591 138 604 138 c 0,55,56
 609 138 609 138 609 143 c 1,57,58
 701 136 701 136 701 123 c 1,59,60
 549 0 549 0 420 0 c 0,61,62
 294 0 294 0 159 102 c 1,63,64
 0 238 0 238 0 404 c 2,65,-1
 0 486 l 2,66,67
 0 599 0 599 97 809 c 1,68,69
 138 930 138 930 276 1279 c 1,70,71
 304 1438 304 1438 440 1438 c 2,72,-1
 496 1438 l 2,0,1
271 440 m 1,73,74
 271 354 271 354 379 297 c 0,75,76
 383 297 383 297 409 292 c 1,77,78
 504 292 504 292 548 420 c 0,79,80
 553 426 553 426 553 455 c 0,81,82
 553 566 553 566 440 589 c 1,83,-1
 435 589 l 2,84,85
 325 589 325 589 281 491 c 0,86,87
 275 483 275 483 271 440 c 1,73,74
558 281 m 1,88,-1
 558 276 l 1,89,-1
 604 276 l 1,90,-1
 604 281 l 1,91,-1
 558 281 l 1,88,-1
665 276 m 1,92,-1
 655 261 l 1,93,-1
 716 261 l 1,94,-1
 716 266 l 1,95,96
 701 266 701 266 665 276 c 1,92,-1
46 271 m 1,97,98
 48 261 48 261 56 261 c 2,99,-1
 113 261 l 1,100,-1
 113 266 l 1,101,-1
 61 271 l 1,102,-1
 46 271 l 1,97,98
241 256 m 1,103,-1
 241 246 l 1,104,-1
 271 246 l 1,105,-1
 271 251 l 1,106,-1
 241 256 l 1,103,-1
220 194 m 1,107,-1
 220 184 l 1,108,-1
 276 184 l 1,109,-1
 276 189 l 1,110,-1
 241 194 l 1,111,-1
 220 194 l 1,107,-1
297 184 m 1,112,-1
 297 179 l 1,113,114
 342 174 342 174 353 174 c 1,115,-1
 353 184 l 1,116,-1
 297 184 l 1,112,-1
276 128 m 1,117,-1
 276 123 l 1,118,-1
 302 123 l 1,119,-1
 302 128 l 1,120,-1
 276 128 l 1,117,-1
379 118 m 1,121,-1
 379 107 l 1,122,-1
 404 107 l 1,123,-1
 440 113 l 1,124,-1
 440 118 l 1,125,-1
 379 118 l 1,121,-1
481 113 m 2,126,-1
 471 113 l 1,127,-1
 471 107 l 2,128,129
 471 92 471 92 491 92 c 1,130,-1
 502 97 l 1,131,-1
 512 92 l 1,132,133
 535 102 535 102 563 102 c 2,134,-1
 599 97 l 1,135,-1
 599 107 l 1,136,-1
 568 107 l 2,137,138
 546 107 546 107 527 118 c 1,139,140
 499 113 499 113 481 113 c 2,126,-1
EndSplineSet
Validated: 1
EndChar

StartChar: seven
Encoding: 55 55 26
Width: 796
GlyphClass: 2
Flags: W
LayerCount: 2
Fore
SplineSet
118 1438 m 2,0,-1
 660 1438 l 2,1,2
 773 1438 773 1438 773 1346 c 2,3,-1
 773 1244 l 2,4,5
 773 1111 773 1111 573 635 c 0,6,7
 522 509 522 509 466 353 c 0,8,9
 439 275 439 275 420 261 c 1,10,-1
 425 251 l 1,11,12
 415 200 415 200 384 200 c 1,13,14
 336 210 336 210 194 220 c 0,15,16
 118 227 118 227 118 241 c 1,17,18
 235 552 235 552 276 645 c 1,19,20
 425 1042 425 1042 440 1059 c 1,21,22
 435 1077 435 1077 435 1080 c 0,23,24
 440 1090 440 1090 440 1095 c 0,25,26
 430 1162 430 1162 322 1162 c 2,27,-1
 200 1162 l 2,28,29
 188 1162 188 1162 179 1167 c 1,30,31
 86 1151 86 1151 61 1151 c 2,32,-1
 46 1151 l 1,33,34
 0 1166 0 1166 0 1254 c 2,35,-1
 0 1290 l 2,36,37
 0 1428 0 1428 56 1428 c 1,38,39
 56 1437 56 1437 118 1438 c 2,0,-1
461 1059 m 1,40,-1
 461 1054 l 1,41,-1
 491 1054 l 1,42,-1
 491 1059 l 1,43,-1
 461 1059 l 1,40,-1
225 281 m 1,44,-1
 220 271 l 1,45,-1
 251 271 l 1,46,-1
 251 276 l 1,47,48
 234 276 234 276 225 281 c 1,44,-1
322 266 m 1,49,-1
 322 261 l 1,50,-1
 338 261 l 1,51,-1
 338 266 l 1,52,-1
 322 266 l 1,49,-1
113 200 m 0,53,54
 350 194 350 194 394 194 c 1,55,56
 394 189 394 189 399 189 c 1,57,58
 385 143 385 143 374 143 c 2,59,-1
 368 143 l 1,60,61
 248 154 248 154 210 164 c 1,62,-1
 159 164 l 1,63,-1
 159 159 l 1,64,-1
 348 128 l 1,65,-1
 374 128 l 1,66,67
 349 5 349 5 251 5 c 1,68,69
 226 0 226 0 179 0 c 0,70,71
 61 0 61 0 61 56 c 1,72,73
 65 102 65 102 77 102 c 1,74,75
 94 92 94 92 107 92 c 2,76,-1
 184 92 l 1,77,-1
 184 97 l 1,78,79
 176 97 176 97 164 107 c 1,80,-1
 133 107 l 2,81,82
 77 107 77 107 77 128 c 0,83,84
 77 164 77 164 148 164 c 1,85,86
 148 174 148 174 138 174 c 2,87,-1
 133 174 l 1,88,-1
 107 169 l 1,89,-1
 102 179 l 1,90,-1
 102 189 l 2,91,92
 104 200 104 200 113 200 c 0,53,54
EndSplineSet
Validated: 1
EndChar

StartChar: eight
Encoding: 56 56 27
Width: 946
GlyphClass: 2
Flags: W
LayerCount: 2
Fore
SplineSet
428 1438 m 2,0,-1
 443 1438 l 1,1,2
 639 1408 639 1408 722 1330 c 1,3,4
 845 1205 845 1205 845 1005 c 0,5,6
 845 870 845 870 778 747 c 1,7,8
 778 736 778 736 773 727 c 1,9,10
 773 707 773 707 835 557 c 1,11,-1
 845 438 l 1,12,13
 840 393 840 393 840 320 c 0,14,15
 840 299 840 299 804 299 c 1,16,-1
 804 294 l 1,17,18
 835 294 835 294 835 283 c 0,19,20
 800 187 800 187 701 93 c 1,21,22
 562 0 562 0 454 0 c 2,23,-1
 412 0 l 2,24,25
 261 0 261 0 103 149 c 1,26,27
 12 274 12 274 0 423 c 1,28,29
 0 476 0 476 82 701 c 1,30,-1
 82 737 l 1,31,-1
 5 974 l 2,32,33
 0 992 0 992 0 1026 c 0,34,35
 0 1139 0 1139 108 1294 c 1,36,37
 234 1417 234 1417 335 1417 c 1,38,39
 386 1438 386 1438 428 1438 c 2,0,-1
278 1026 m 0,40,41
 278 885 278 885 448 861 c 1,42,43
 582 898 582 898 582 1005 c 0,44,45
 582 1103 582 1103 464 1160 c 1,46,47
 418 1166 418 1166 407 1170 c 1,48,49
 320 1170 320 1170 289 1077 c 0,50,51
 278 1036 278 1036 278 1026 c 0,40,41
278 433 m 0,52,53
 278 346 278 346 397 283 c 1,54,-1
 428 278 l 1,55,56
 533 278 533 278 577 402 c 1,57,-1
 577 438 l 2,58,59
 577 498 577 498 490 562 c 0,60,61
 472 577 472 577 428 577 c 2,62,-1
 423 577 l 1,63,64
 278 543 278 543 278 433 c 0,52,53
737 490 m 1,65,-1
 737 484 l 1,66,-1
 763 484 l 1,67,-1
 763 490 l 1,68,-1
 737 490 l 1,65,-1
763 304 m 1,69,-1
 763 299 l 1,70,-1
 778 299 l 1,71,-1
 778 304 l 1,72,-1
 763 304 l 1,69,-1
EndSplineSet
Validated: 1
EndChar

StartChar: nine
Encoding: 57 57 28
Width: 889
GlyphClass: 2
Flags: W
LayerCount: 2
Fore
SplineSet
433 1433 m 0,0,1
 564 1433 564 1433 734 1290 c 1,2,3
 836 1163 836 1163 836 1051 c 1,4,5
 831 1045 831 1045 796 1045 c 1,6,-1
 796 1040 l 1,7,8
 836 1040 836 1040 836 1030 c 2,9,-1
 836 994 l 2,10,11
 836 984 836 984 811 984 c 1,12,-1
 811 979 l 1,13,14
 836 979 836 979 836 964 c 0,15,16
 836 819 836 819 775 714 c 1,17,18
 729 576 729 576 709 576 c 0,19,20
 688 576 688 576 688 566 c 1,21,22
 714 566 714 566 714 556 c 0,23,24
 704 525 704 525 694 510 c 1,25,-1
 500 535 l 1,26,27
 473 530 473 530 449 530 c 1,28,29
 432 541 432 541 418 541 c 2,30,-1
 398 541 l 1,31,-1
 398 535 l 1,32,33
 555 510 555 510 678 500 c 1,34,-1
 683 490 l 1,35,-1
 683 479 l 1,36,37
 678 459 678 459 627 459 c 1,38,-1
 602 474 l 1,39,-1
 571 469 l 1,40,41
 433 474 433 474 433 490 c 1,42,43
 417 479 417 479 403 479 c 2,44,-1
 388 479 l 2,45,46
 379 479 379 479 367 530 c 1,47,48
 376 535 376 535 388 535 c 1,49,-1
 388 546 l 1,50,-1
 382 546 l 1,51,52
 256 561 256 561 153 643 c 1,53,54
 35 760 35 760 20 872 c 1,55,56
 8 879 8 879 0 984 c 1,57,58
 12 1148 12 1148 92 1260 c 1,59,60
 178 1356 178 1356 255 1392 c 1,61,62
 378 1433 378 1433 433 1433 c 0,0,1
291 1005 m 2,63,-1
 291 994 l 2,64,65
 291 914 291 914 367 852 c 1,66,67
 393 836 393 836 428 831 c 1,68,69
 517 831 517 831 561 949 c 1,70,-1
 566 1000 l 1,71,72
 566 1113 566 1113 459 1137 c 1,73,-1
 423 1137 l 2,74,75
 368 1137 368 1137 321 1081 c 0,76,77
 291 1043 291 1043 291 1005 c 2,63,-1
729 1051 m 1,78,-1
 729 1045 l 1,79,-1
 750 1045 l 1,80,-1
 750 1051 l 1,81,-1
 729 1051 l 1,78,-1
382 474 m 1,82,83
 469 462 469 462 469 449 c 2,84,-1
 469 433 l 1,85,-1
 459 418 l 1,86,-1
 484 413 l 1,87,-1
 479 439 l 1,88,89
 486 446 486 446 541 454 c 1,90,91
 568 449 568 449 586 449 c 2,92,-1
 658 449 l 2,93,94
 665 449 665 449 673 433 c 1,95,96
 663 402 663 402 648 398 c 1,97,98
 620 403 620 403 602 403 c 2,99,-1
 597 403 l 1,100,101
 597 391 597 391 592 382 c 1,102,-1
 607 382 l 2,103,104
 609 382 609 382 622 393 c 1,105,-1
 632 393 l 2,106,107
 640 393 640 393 648 377 c 1,108,109
 532 68 532 68 505 41 c 1,110,111
 476 0 476 0 357 0 c 0,112,113
 235 0 235 0 235 61 c 1,114,115
 328 351 328 351 347 357 c 1,116,-1
 357 357 l 1,117,118
 347 369 347 369 347 377 c 0,119,120
 347 413 347 413 398 413 c 1,121,-1
 398 418 l 1,122,-1
 372 418 l 1,123,-1
 372 433 l 2,124,125
 372 456 372 456 382 474 c 1,82,83
382 357 m 1,126,-1
 382 352 l 1,127,-1
 418 352 l 1,128,-1
 418 357 l 1,129,-1
 382 357 l 1,126,-1
546 347 m 1,130,131
 547 337 547 337 556 337 c 2,132,-1
 597 337 l 1,133,-1
 597 342 l 1,134,-1
 571 347 l 1,135,-1
 546 347 l 1,130,131
EndSplineSet
Validated: 1
EndChar

StartChar: colon
Encoding: 58 58 29
Width: 434
GlyphClass: 2
Flags: W
LayerCount: 2
Fore
SplineSet
217 1027 m 2,0,-1
 253 1027 l 2,1,2
 380 1027 380 1027 380 925 c 2,3,-1
 380 828 l 2,4,5
 380 816 380 816 326 816 c 1,6,-1
 326 810 l 1,7,8
 380 810 380 810 380 798 c 0,9,10
 380 701 380 701 241 701 c 0,11,12
 90 701 90 701 90 792 c 0,13,14
 90 806 90 806 84 882 c 1,15,16
 84 1015 84 1015 145 1015 c 1,17,18
 145 1026 145 1026 217 1027 c 2,0,-1
187 906 m 1,19,-1
 187 900 l 1,20,21
 220 894 220 894 235 894 c 2,22,-1
 241 894 l 1,23,-1
 241 900 l 1,24,-1
 211 906 l 1,25,-1
 187 906 l 1,19,-1
199 828 m 1,26,-1
 199 822 l 1,27,-1
 259 822 l 1,28,-1
 259 828 l 1,29,-1
 199 828 l 1,26,-1
145 308 m 1,30,31
 181 302 181 302 181 290 c 2,32,-1
 181 284 l 1,33,34
 175 266 175 266 145 266 c 1,35,-1
 114 272 l 1,36,-1
 114 278 l 2,37,38
 114 286 114 286 145 308 c 1,30,31
229 308 m 1,39,40
 350 300 350 300 362 272 c 1,41,-1
 362 266 l 2,42,43
 362 257 362 257 338 248 c 1,44,45
 205 253 205 253 205 272 c 2,46,-1
 205 284 l 2,47,48
 205 290 205 290 229 308 c 1,39,40
114 260 m 1,49,50
 126 254 126 254 133 254 c 2,51,-1
 145 260 l 1,52,53
 163 258 163 258 187 230 c 1,54,55
 223 230 223 230 223 218 c 2,56,-1
 223 212 l 1,57,58
 217 194 217 194 187 194 c 2,59,-1
 169 194 l 1,60,61
 137 230 137 230 114 230 c 1,62,63
 114 218 114 218 102 218 c 2,64,-1
 96 218 l 1,65,-1
 96 242 l 2,66,67
 96 251 96 251 114 260 c 1,49,50
374 236 m 1,68,69
 386 234 386 234 386 224 c 2,70,-1
 386 188 l 2,71,72
 386 175 386 175 374 175 c 0,73,74
 241 179 241 179 241 200 c 1,75,76
 251 224 251 224 284 224 c 2,77,-1
 308 224 l 1,78,-1
 344 218 l 1,79,-1
 374 236 l 1,68,69
96 181 m 1,80,81
 228 162 228 162 247 151 c 1,82,-1
 247 133 l 1,83,84
 241 115 241 115 211 115 c 2,85,-1
 181 115 l 1,86,87
 166 127 166 127 163 127 c 2,88,-1
 102 127 l 2,89,90
 90 127 90 127 90 139 c 2,91,-1
 90 169 l 1,92,-1
 96 181 l 1,80,81
296 151 m 1,93,-1
 314 151 l 2,94,95
 357 151 357 151 380 139 c 1,96,97
 380 0 380 0 265 0 c 2,98,-1
 217 0 l 2,99,100
 90 0 90 0 90 109 c 1,101,-1
 102 109 l 2,102,103
 175 109 175 109 253 85 c 1,104,105
 253 103 253 103 308 103 c 1,106,-1
 308 109 l 1,107,108
 276 109 276 109 272 127 c 0,109,110
 272 137 272 137 296 151 c 1,93,-1
338 127 m 1,111,112
 338 124 338 124 332 103 c 1,113,-1
 344 103 l 2,114,115
 353 103 353 103 362 121 c 1,116,-1
 350 127 l 1,117,-1
 338 127 l 1,111,112
163 73 m 1,118,-1
 163 67 l 1,119,-1
 175 67 l 1,120,-1
 175 73 l 1,121,-1
 163 73 l 1,118,-1
187 67 m 1,122,-1
 187 61 l 1,123,-1
 265 61 l 1,124,-1
 265 67 l 1,125,-1
 235 73 l 1,126,-1
 229 73 l 1,127,-1
 187 67 l 1,122,-1
EndSplineSet
Validated: 1
EndChar

StartChar: semicolon
Encoding: 59 59 30
AltUni2: 00037e.ffffffff.0
Width: 452
GlyphClass: 2
Flags: W
LayerCount: 2
Fore
SplineSet
242 1019 m 0,0,1
 397 1019 397 1019 397 906 c 2,2,-1
 397 817 l 2,3,4
 397 805 397 805 373 805 c 1,5,-1
 373 799 l 1,6,-1
 391 799 l 1,7,-1
 391 769 l 2,8,9
 391 692 391 692 272 692 c 2,10,-1
 189 692 l 2,11,12
 70 692 70 692 70 817 c 2,13,-1
 70 847 l 2,14,15
 70 1013 70 1013 189 1013 c 1,16,17
 221 1019 221 1019 242 1019 c 0,0,1
106 894 m 1,18,-1
 106 888 l 1,19,-1
 124 888 l 1,20,-1
 124 894 l 1,21,-1
 106 894 l 1,18,-1
165 894 m 1,22,-1
 165 888 l 1,23,-1
 177 888 l 1,24,-1
 177 894 l 1,25,-1
 165 894 l 1,22,-1
254 888 m 1,26,-1
 254 882 l 1,27,-1
 284 882 l 1,28,-1
 284 888 l 1,29,-1
 254 888 l 1,26,-1
296 882 m 1,30,-1
 296 876 l 1,31,-1
 350 870 l 1,32,-1
 355 882 l 1,33,-1
 296 882 l 1,30,-1
272 817 m 1,34,-1
 272 811 l 1,35,-1
 296 805 l 1,36,-1
 296 817 l 1,37,-1
 272 817 l 1,34,-1
195 311 m 2,38,-1
 219 311 l 2,39,40
 363 311 363 311 379 264 c 1,41,-1
 379 258 l 1,42,-1
 373 246 l 1,43,44
 366 246 366 246 100 270 c 1,45,-1
 100 276 l 2,46,47
 100 308 100 308 195 311 c 2,38,-1
94 258 m 0,48,49
 311 222 311 222 344 222 c 2,50,-1
 373 222 l 1,51,52
 391 216 391 216 391 186 c 1,53,-1
 385 175 l 1,54,55
 284 186 284 186 201 186 c 1,56,57
 213 172 213 172 213 163 c 1,58,-1
 225 163 l 1,59,-1
 260 157 l 1,60,61
 282 169 282 169 308 169 c 0,62,63
 391 169 391 169 391 151 c 2,64,-1
 391 109 l 2,65,66
 391 103 391 103 385 103 c 1,67,-1
 391 91 l 1,68,-1
 391 -28 l 2,69,70
 391 -165 391 -165 367 -206 c 1,71,-1
 367 -212 l 1,72,-1
 332 -212 l 1,73,74
 247 -185 247 -185 88 14 c 1,75,76
 88 31 88 31 76 109 c 1,77,-1
 88 115 l 1,78,79
 97 115 97 115 171 109 c 1,80,81
 191 121 191 121 207 121 c 1,82,-1
 207 133 l 1,83,84
 195 133 195 133 195 139 c 1,85,86
 173 127 173 127 147 127 c 2,87,-1
 135 127 l 2,88,89
 127 127 127 127 118 145 c 1,90,-1
 88 139 l 1,91,-1
 76 139 l 1,92,-1
 76 169 l 1,93,94
 95 169 95 169 147 192 c 1,95,96
 171 186 171 186 189 186 c 1,97,98
 189 198 189 198 177 198 c 2,99,-1
 94 198 l 2,100,101
 82 198 82 198 82 210 c 2,102,-1
 82 246 l 2,103,104
 84 258 84 258 94 258 c 0,48,49
361 109 m 1,105,-1
 361 103 l 1,106,-1
 379 103 l 1,107,-1
 379 109 l 1,108,-1
 361 109 l 1,105,-1
338 -123 m 1,109,-1
 338 -129 l 1,110,-1
 355 -129 l 1,111,-1
 355 -123 l 1,112,-1
 338 -123 l 1,109,-1
EndSplineSet
Validated: 1
EndChar

StartChar: question
Encoding: 63 63 34
Width: 875
GlyphClass: 2
Flags: W
LayerCount: 2
Fore
SplineSet
418 1451 m 1,0,1
 557 1437 557 1437 676 1358 c 1,2,3
 842 1211 842 1211 842 1033 c 2,4,-1
 842 1022 l 2,5,6
 842 892 842 892 754 749 c 0,7,8
 749 739 749 739 583 604 c 1,9,10
 558 534 558 534 542 423 c 1,11,12
 510 377 510 377 408 377 c 2,13,-1
 387 377 l 2,14,15
 279 377 279 377 279 480 c 2,16,-1
 279 687 l 2,17,18
 280 723 280 723 289 723 c 1,19,-1
 284 733 l 1,20,21
 320 821 320 821 408 852 c 0,22,23
 506 886 506 886 547 971 c 1,24,25
 558 1010 558 1010 558 1017 c 0,26,27
 532 1167 532 1167 454 1167 c 2,28,-1
 423 1167 l 2,29,30
 367 1167 367 1167 294 1105 c 1,31,32
 260 1017 260 1017 165 1017 c 2,33,-1
 98 1017 l 2,34,35
 0 1017 0 1017 0 1079 c 2,36,-1
 0 1115 l 1,37,38
 35 1272 35 1272 114 1337 c 1,39,40
 272 1451 272 1451 418 1451 c 1,0,1
403 279 m 0,41,42
 522 279 522 279 522 253 c 2,43,-1
 522 248 l 1,44,45
 444 253 444 253 408 253 c 2,46,-1
 403 253 l 1,47,-1
 403 232 l 1,48,-1
 449 238 l 2,49,50
 475 238 475 238 511 217 c 1,51,-1
 522 222 l 1,52,53
 545 212 545 212 547 201 c 0,54,55
 547 193 547 193 522 186 c 1,56,57
 501 191 501 191 501 207 c 1,58,59
 462 191 462 191 434 191 c 1,60,61
 434 203 434 203 289 207 c 1,62,-1
 284 217 l 1,63,64
 284 241 284 241 341 258 c 1,65,-1
 341 263 l 1,66,67
 336 263 336 263 336 269 c 1,68,69
 359 279 359 279 403 279 c 0,41,42
294 196 m 1,70,71
 341 186 341 186 470 170 c 1,72,-1
 542 170 l 2,73,74
 553 169 553 169 553 160 c 2,75,-1
 553 129 l 2,76,77
 553 119 553 119 542 119 c 2,78,-1
 516 119 l 1,79,80
 516 98 516 98 511 98 c 0,81,82
 279 98 279 98 279 129 c 1,83,84
 312 129 312 129 330 134 c 1,85,-1
 330 139 l 1,86,87
 279 139 279 139 279 155 c 0,88,89
 279 193 279 193 294 196 c 1,70,71
310 170 m 1,90,-1
 310 165 l 1,91,-1
 336 160 l 1,92,-1
 367 160 l 1,93,-1
 367 165 l 1,94,-1
 330 176 l 1,95,96
 312 170 312 170 310 170 c 1,90,-1
372 160 m 1,97,-1
 372 155 l 1,98,-1
 423 155 l 2,99,100
 429 155 429 155 429 150 c 1,101,102
 437 155 437 155 454 155 c 1,103,-1
 454 160 l 1,104,-1
 408 165 l 1,105,-1
 372 160 l 1,97,-1
346 139 m 1,106,107
 349 124 349 124 387 124 c 2,108,-1
 398 124 l 1,109,-1
 434 129 l 1,110,-1
 434 134 l 1,111,112
 379 134 379 134 346 139 c 1,106,107
532 103 m 1,113,-1
 542 103 l 2,114,115
 553 102 553 102 553 93 c 1,116,117
 547 93 547 93 547 88 c 1,118,119
 537 93 537 93 532 93 c 1,120,-1
 532 103 l 1,113,-1
289 98 m 1,121,-1
 294 98 l 1,122,-1
 294 88 l 1,123,-1
 289 88 l 1,124,-1
 289 98 l 1,121,-1
413 93 m 1,125,126
 496 93 496 93 496 72 c 1,127,-1
 542 72 l 1,128,-1
 542 52 l 1,129,130
 515 0 515 0 413 0 c 0,131,132
 284 0 284 0 284 67 c 0,133,134
 285 72 285 72 336 72 c 1,135,-1
 336 77 l 1,136,137
 315 77 315 77 315 88 c 1,138,-1
 356 88 l 2,139,140
 367 86 367 86 367 77 c 1,141,142
 361 77 361 77 361 72 c 1,143,144
 392 66 392 66 392 57 c 1,145,146
 382 55 382 55 382 46 c 1,147,-1
 392 41 l 1,148,-1
 398 41 l 2,149,150
 408 41 408 41 408 52 c 1,151,152
 403 52 403 52 403 57 c 1,153,154
 414 62 414 62 470 67 c 1,155,-1
 470 72 l 1,156,157
 454 72 454 72 454 77 c 1,158,-1
 429 72 l 1,159,-1
 418 72 l 2,160,161
 411 72 411 72 403 88 c 1,162,-1
 413 93 l 1,125,126
EndSplineSet
Validated: 1
EndChar

StartChar: at
Encoding: 64 64 35
Width: 2076
GlyphClass: 2
Flags: W
LayerCount: 2
Fore
SplineSet
1035 1661 m 0,0,1
 1404 1661 1404 1661 1698 1377 c 1,2,3
 1825 1236 1825 1236 1879 1119 c 0,4,5
 1982 899 1982 899 1982 680 c 2,6,-1
 1982 645 l 2,7,8
 1982 263 1982 263 1700 -49 c 1,9,10
 1406 -336 1406 -336 1035 -336 c 0,11,12
 649 -336 649 -336 351 -31 c 1,13,14
 85 272 85 272 85 665 c 0,15,16
 85 1064 85 1064 365 1370 c 1,17,18
 657 1661 657 1661 1035 1661 c 0,0,1
1008 1615 m 1,19,20
 1013 1536 1013 1536 1013 1505 c 0,21,22
 1015 1500 1015 1500 1015 1498 c 2,23,-1
 1006 1491 l 1,24,-1
 988 1491 l 2,25,26
 977 1491 977 1491 977 1606 c 1,27,28
 975 1606 975 1606 975 1613 c 1,29,30
 953 1610 953 1610 942 1610 c 2,31,-1
 935 1610 l 1,32,33
 938 1596 938 1596 940 1542 c 1,34,35
 937 1542 937 1542 927 1529 c 1,36,37
 942 1522 942 1522 942 1509 c 2,38,-1
 942 1487 l 2,39,40
 942 1456 942 1456 973 1456 c 2,41,-1
 977 1456 l 2,42,43
 1052 1456 1052 1456 1052 1476 c 0,44,45
 1052 1478 1052 1478 1054 1489 c 0,46,47
 1052 1512 1052 1512 1052 1524 c 1,48,49
 1055 1524 1055 1524 1065 1538 c 1,50,51
 1059 1538 1059 1538 1050 1551 c 1,52,-1
 1050 1555 l 2,53,54
 1050 1574 1050 1574 1048 1615 c 1,55,-1
 1008 1615 l 1,19,20
1121 1610 m 1,56,57
 1118 1605 1118 1605 1114 1577 c 1,58,59
 1154 1574 1154 1574 1154 1566 c 0,60,61
 1154 1536 1154 1536 1134 1527 c 1,62,63
 1137 1527 1137 1527 1145 1513 c 1,64,65
 1136 1453 1136 1453 1134 1449 c 1,66,67
 1148 1449 1148 1449 1173 1443 c 1,68,69
 1180 1516 1180 1516 1200 1516 c 1,70,-1
 1189 1531 l 1,71,72
 1191 1554 1191 1554 1195 1564 c 1,73,74
 1230 1557 1230 1557 1235 1557 c 1,75,-1
 1235 1560 l 2,76,77
 1235 1567 1235 1567 1240 1591 c 1,78,79
 1135 1610 1135 1610 1121 1610 c 1,56,57
761 1551 m 0,80,81
 761 1537 761 1537 772 1502 c 1,82,83
 769 1502 769 1502 764 1491 c 1,84,-1
 764 1487 l 1,85,86
 782 1487 782 1487 790 1441 c 1,87,88
 800 1425 800 1425 816 1425 c 0,89,90
 896 1440 896 1440 896 1458 c 2,91,-1
 896 1467 l 2,92,93
 896 1478 896 1478 889 1502 c 1,94,95
 854 1491 854 1491 849 1491 c 1,96,97
 854 1481 854 1481 854 1472 c 1,98,99
 843 1465 843 1465 825 1465 c 1,100,101
 819 1479 819 1479 819 1496 c 1,102,103
 825 1498 825 1498 825 1509 c 1,104,105
 807 1509 807 1509 803 1544 c 1,106,107
 810 1549 810 1549 830 1553 c 1,108,109
 836 1545 836 1545 836 1535 c 1,110,-1
 876 1546 l 1,111,112
 869 1591 869 1591 845 1591 c 2,113,-1
 836 1591 l 1,114,115
 761 1579 761 1579 761 1551 c 0,80,81
1292 1573 m 1,116,117
 1281 1547 1281 1547 1281 1544 c 0,118,119
 1319 1530 1319 1530 1319 1527 c 0,120,121
 1309 1491 1309 1491 1290 1491 c 1,122,123
 1297 1480 1297 1480 1297 1474 c 0,124,125
 1277 1423 1277 1423 1277 1414 c 1,126,127
 1306 1401 1306 1401 1312 1401 c 1,128,129
 1331 1467 1331 1467 1352 1467 c 1,130,131
 1345 1478 1345 1478 1345 1485 c 0,132,133
 1353 1513 1353 1513 1359 1513 c 0,134,135
 1388 1500 1388 1500 1394 1500 c 1,136,-1
 1407 1531 l 1,137,138
 1305 1573 1305 1573 1292 1575 c 1,139,-1
 1292 1573 l 1,116,117
574 1483 m 1,140,141
 601 1434 601 1434 605 1421 c 1,142,-1
 600 1405 l 1,143,144
 623 1405 623 1405 634 1370 c 0,145,146
 636 1370 636 1370 649 1346 c 1,147,148
 737 1386 737 1386 737 1408 c 0,149,150
 737 1420 737 1420 715 1456 c 1,151,152
 719 1464 719 1464 719 1474 c 1,153,154
 699 1474 699 1474 691 1502 c 1,155,156
 680 1524 680 1524 658 1524 c 0,157,158
 649 1524 649 1524 574 1483 c 1,140,141
1467 1498 m 1,159,160
 1433 1441 1433 1441 1427 1441 c 0,161,162
 1415 1438 1415 1438 1414 1438 c 1,163,164
 1414 1434 1414 1434 1418 1423 c 1,165,166
 1383 1369 1383 1369 1383 1366 c 0,167,168
 1468 1308 1468 1308 1475 1308 c 1,169,170
 1489 1329 1489 1329 1489 1337 c 1,171,172
 1439 1368 1439 1368 1433 1377 c 1,173,174
 1447 1394 1447 1394 1449 1394 c 2,175,-1
 1451 1394 l 1,176,-1
 1489 1370 l 2,177,178
 1493 1372 1493 1372 1508 1399 c 1,179,180
 1469 1420 1469 1420 1469 1427 c 0,181,182
 1477 1444 1477 1444 1484 1447 c 1,183,184
 1486 1443 1486 1443 1539 1410 c 0,185,186
 1544 1411 1544 1411 1559 1438 c 1,187,188
 1554 1440 1554 1440 1467 1498 c 1,159,160
653 1483 m 0,189,190
 656 1483 656 1483 693 1414 c 1,191,-1
 693 1412 l 1,192,193
 679 1397 679 1397 667 1397 c 1,194,195
 635 1451 635 1451 627 1472 c 1,196,197
 647 1483 647 1483 653 1483 c 0,189,190
429 1353 m 2,198,199
 429 1342 429 1342 462 1304 c 1,200,-1
 459 1289 l 1,201,-1
 475 1289 l 1,202,203
 508 1251 508 1251 521 1251 c 0,204,205
 544 1251 544 1251 589 1306 c 1,206,-1
 592 1317 l 2,207,208
 592 1327 592 1327 561 1364 c 1,209,-1
 561 1366 l 1,210,-1
 563 1379 l 1,211,-1
 548 1379 l 1,212,213
 512 1419 512 1419 497 1419 c 0,214,215
 477 1419 477 1419 431 1364 c 1,216,-1
 429 1353 l 2,198,199
1614 1390 m 1,217,218
 1614 1387 1614 1387 1566 1342 c 1,219,-1
 1555 1344 l 1,220,-1
 1550 1344 l 1,221,-1
 1550 1326 l 1,222,-1
 1506 1280 l 2,223,224
 1506 1277 1506 1277 1533 1253 c 1,225,-1
 1566 1284 l 1,226,-1
 1568 1284 l 1,227,228
 1555 1233 1555 1233 1555 1229 c 2,229,-1
 1586 1200 l 1,230,-1
 1601 1256 l 1,231,232
 1617 1251 1617 1251 1619 1251 c 2,233,-1
 1623 1251 l 2,234,235
 1642 1251 1642 1251 1680 1304 c 1,236,-1
 1680 1311 l 2,237,238
 1680 1332 1680 1332 1614 1390 c 1,217,218
490 1375 m 1,239,-1
 495 1375 l 1,240,241
 511 1360 511 1360 548 1315 c 1,242,-1
 548 1311 l 2,243,244
 548 1308 548 1308 530 1295 c 1,245,-1
 526 1295 l 1,246,247
 510 1308 510 1308 473 1355 c 1,248,-1
 473 1359 l 2,249,250
 473 1361 473 1361 490 1375 c 1,239,-1
609 991 m 1,251,-1
 611 976 l 1,252,-1
 611 861 l 1,253,254
 552 839 552 839 552 760 c 0,255,256
 552 675 552 675 581 608 c 0,257,258
 585 606 585 606 627 522 c 1,259,260
 660 480 660 480 660 473 c 2,261,-1
 660 469 l 1,262,-1
 658 453 l 1,263,264
 660 428 660 428 667 396 c 1,265,266
 662 384 662 384 662 361 c 0,267,268
 664 345 664 345 664 343 c 2,269,-1
 662 339 l 1,270,271
 669 262 669 262 680 262 c 1,272,273
 702 243 702 243 702 213 c 1,274,275
 710 192 710 192 741 167 c 1,276,277
 757 136 757 136 779 136 c 1,278,279
 814 86 814 86 814 81 c 0,280,281
 844 8 844 8 872 8 c 0,282,283
 883 8 883 8 889 -34 c 1,284,285
 905 -57 905 -57 944 -69 c 1,286,287
 961 -90 961 -90 1017 -104 c 0,288,289
 1030 -104 1030 -104 1032 -106 c 0,290,291
 1066 -100 1066 -100 1145 -98 c 1,292,293
 1169 -89 1169 -89 1191 -73 c 1,294,295
 1225 -73 1225 -73 1262 -38 c 1,296,297
 1330 -38 1330 -38 1339 44 c 1,298,299
 1356 67 1356 67 1378 156 c 1,300,301
 1416 197 1416 197 1416 257 c 1,302,303
 1429 277 1429 277 1429 301 c 2,304,-1
 1429 317 l 1,305,306
 1449 367 1449 367 1449 390 c 0,307,308
 1447 409 1447 409 1442 416 c 1,309,310
 1444 438 1444 438 1444 451 c 2,311,-1
 1444 460 l 2,312,313
 1444 467 1444 467 1442 471 c 0,314,315
 1444 480 1444 480 1444 486 c 0,316,317
 1444 527 1444 527 1418 581 c 1,318,319
 1420 605 1420 605 1422 605 c 1,320,-1
 1420 610 l 1,321,-1
 1420 632 l 2,322,323
 1420 652 1420 652 1409 685 c 1,324,325
 1427 699 1427 699 1427 722 c 2,326,-1
 1425 738 l 1,327,328
 1436 766 1436 766 1436 797 c 2,329,-1
 1436 810 l 1,330,331
 1444 835 1444 835 1444 848 c 2,332,-1
 1425 916 l 1,333,-1
 1427 951 l 2,334,335
 1427 979 1427 979 1392 1075 c 1,336,337
 1360 1149 1360 1149 1299 1205 c 1,338,339
 1253 1274 1253 1274 1191 1295 c 0,340,341
 1051 1342 1051 1342 955 1342 c 2,342,-1
 938 1342 l 2,343,344
 888 1342 888 1342 810 1315 c 0,345,346
 766 1299 766 1299 708 1251 c 1,347,348
 659 1189 659 1189 625 1110 c 1,349,350
 616 1076 616 1076 609 991 c 1,251,-1
1619 1337 m 1,351,352
 1638 1322 1638 1322 1638 1313 c 1,353,-1
 1614 1291 l 1,354,-1
 1610 1291 l 2,355,356
 1607 1291 1607 1291 1592 1308 c 1,357,-1
 1592 1311 l 2,358,359
 1592 1314 1592 1314 1619 1337 c 1,351,352
916 1319 m 1,360,361
 1061 1319 1061 1319 1173 1278 c 1,362,363
 1259 1231 1259 1231 1273 1207 c 1,364,365
 1299 1185 1299 1185 1332 1108 c 1,366,367
 1364 1072 1364 1072 1392 956 c 1,368,-1
 1392 954 l 2,369,370
 1392 947 1392 947 1389 912 c 1,371,372
 1398 886 1398 886 1403 857 c 0,373,374
 1406 857 1406 857 1409 850 c 2,375,-1
 1409 846 l 2,376,377
 1409 830 1409 830 1398 828 c 1,378,-1
 1403 806 l 1,379,380
 1403 770 1403 770 1383 731 c 1,381,382
 1392 730 1392 730 1392 724 c 2,383,-1
 1392 718 l 2,384,385
 1392 715 1392 715 1385 711 c 1,386,-1
 1372 711 l 1,387,388
 1372 704 1372 704 1365 691 c 1,389,390
 1375 691 1375 691 1387 625 c 1,391,-1
 1387 616 l 1,392,393
 1383 583 1383 583 1383 568 c 1,394,395
 1397 552 1397 552 1407 506 c 0,396,397
 1407 504 1407 504 1409 489 c 2,398,-1
 1407 473 l 1,399,400
 1411 451 1411 451 1411 447 c 256,401,402
 1411 443 1411 443 1403 416 c 1,403,404
 1414 397 1414 397 1414 387 c 0,405,406
 1414 376 1414 376 1394 323 c 1,407,408
 1394 286 1394 286 1381 255 c 1,409,410
 1381 219 1381 219 1359 187 c 1,411,412
 1344 175 1344 175 1328 105 c 0,413,414
 1328 100 1328 100 1301 44 c 1,415,-1
 1301 41 l 2,416,417
 1301 40 1301 40 1303 33 c 1,418,419
 1291 -3 1291 -3 1264 -3 c 0,420,421
 1245 -3 1245 -3 1206 -36 c 1,422,423
 1177 -36 1177 -36 1145 -60 c 1,424,-1
 1035 -71 l 1,425,-1
 1032 -71 l 2,426,427
 1011 -71 1011 -71 966 -45 c 1,428,429
 966 -35 966 -35 927 -25 c 1,430,431
 918 -15 918 -15 918 6 c 0,432,433
 918 9 918 9 920 28 c 1,434,435
 863 42 863 42 863 63 c 1,436,437
 847 83 847 83 847 96 c 0,438,439
 847 100 847 100 852 110 c 1,440,441
 833 110 833 110 801 169 c 1,442,443
 776 169 776 169 766 191 c 0,444,445
 766 197 766 197 741 215 c 1,446,-1
 724 268 l 1,447,448
 700 279 700 279 700 326 c 0,449,450
 697 334 697 334 697 343 c 2,451,-1
 697 345 l 2,452,453
 697 348 697 348 700 348 c 1,454,-1
 697 352 l 1,455,456
 700 401 700 401 700 405 c 0,457,458
 693 449 693 449 693 460 c 2,459,-1
 695 471 l 1,460,-1
 689 504 l 1,461,462
 666 512 666 512 603 647 c 1,463,464
 587 711 587 711 587 755 c 2,465,-1
 587 764 l 2,466,467
 587 819 587 819 634 832 c 1,468,-1
 649 832 l 1,469,-1
 649 835 l 2,470,471
 649 865 649 865 645 901 c 1,472,473
 647 922 647 922 647 940 c 0,474,475
 647 961 647 961 645 991 c 0,476,477
 645 1146 645 1146 739 1238 c 0,478,479
 789 1290 789 1290 854 1311 c 0,480,481
 860 1311 860 1311 916 1319 c 1,360,361
667 1015 m 0,482,483
 667 1013 667 1013 669 1009 c 0,484,485
 664 997 664 997 664 985 c 0,486,487
 664 969 664 969 667 936 c 1,488,489
 664 906 664 906 664 899 c 0,490,491
 669 843 669 843 669 828 c 1,492,493
 722 808 722 808 722 784 c 1,494,-1
 724 784 l 1,495,496
 724 793 724 793 735 799 c 1,497,-1
 739 799 l 1,498,-1
 753 788 l 1,499,500
 783 793 783 793 792 793 c 1,501,-1
 799 784 l 1,502,-1
 799 780 l 1,503,504
 770 657 770 657 770 603 c 1,505,506
 781 580 781 580 788 550 c 1,507,508
 814 537 814 537 814 517 c 1,509,510
 843 513 843 513 843 482 c 1,511,-1
 869 484 l 1,512,-1
 900 482 l 1,513,514
 916 491 916 491 922 491 c 0,515,516
 925 491 925 491 929 484 c 1,517,518
 924 468 924 468 924 464 c 0,519,520
 929 450 929 450 929 445 c 0,521,522
 927 440 927 440 927 438 c 0,523,524
 953 421 953 421 953 405 c 2,525,-1
 953 396 l 1,526,527
 973 396 973 396 982 363 c 1,528,529
 975 336 975 336 975 328 c 0,530,531
 977 316 977 316 977 310 c 1,532,-1
 979 310 l 1,533,534
 1000 358 1000 358 1041 414 c 0,535,536
 1068 456 1068 456 1085 497 c 1,537,-1
 1092 497 l 2,538,539
 1098 497 1098 497 1098 489 c 0,540,541
 1095 464 1095 464 1065 420 c 1,542,-1
 1068 420 l 1,543,544
 1119 432 1119 432 1121 445 c 0,545,546
 1125 445 1125 445 1129 447 c 0,547,548
 1148 445 1148 445 1160 445 c 0,549,550
 1164 445 1164 445 1187 453 c 1,551,-1
 1187 456 l 1,552,-1
 1180 456 l 2,553,554
 1171 456 1171 456 1151 451 c 1,555,556
 1107 461 1107 461 1107 486 c 2,557,-1
 1107 493 l 2,558,559
 1109 506 1109 506 1114 506 c 2,560,-1
 1121 506 l 2,561,562
 1125 506 1125 506 1127 482 c 1,563,564
 1139 471 1139 471 1147 471 c 0,565,566
 1175 475 1175 475 1182 475 c 0,567,568
 1231 451 1231 451 1253 451 c 0,569,570
 1290 451 1290 451 1290 495 c 0,571,572
 1290 557 1290 557 1264 603 c 1,573,574
 1251 661 1251 661 1251 700 c 2,575,-1
 1251 705 l 2,576,577
 1251 733 1251 733 1299 780 c 1,578,579
 1316 780 1316 780 1365 846 c 0,580,581
 1368 846 1368 846 1383 854 c 1,582,583
 1378 888 1378 888 1370 912 c 1,584,585
 1372 934 1372 934 1372 947 c 2,586,-1
 1372 951 l 1,587,588
 1355 1033 1355 1033 1334 1070 c 2,589,-1
 1297 1137 l 1,590,591
 1282 1150 1282 1150 1259 1189 c 1,592,593
 1205 1245 1205 1245 1147 1264 c 0,594,595
 1027 1300 1027 1300 982 1300 c 2,596,-1
 960 1300 l 1,597,-1
 946 1297 l 2,598,599
 943 1300 943 1300 938 1300 c 0,600,601
 811 1282 811 1282 792 1251 c 1,602,603
 754 1220 754 1220 715 1172 c 0,604,605
 667 1115 667 1115 667 1015 c 0,482,483
307 1207 m 2,606,607
 307 1198 307 1198 349 1165 c 1,608,609
 351 1156 351 1156 351 1150 c 1,610,-1
 371 1152 l 1,611,612
 398 1126 398 1126 420 1126 c 1,613,614
 454 1148 454 1148 475 1192 c 1,615,-1
 475 1200 l 2,616,617
 475 1215 475 1215 435 1242 c 1,618,-1
 435 1258 l 1,619,-1
 431 1258 l 1,620,-1
 415 1256 l 1,621,622
 384 1284 384 1284 367 1284 c 0,623,624
 343 1284 343 1284 307 1216 c 1,625,-1
 307 1207 l 2,606,607
880 1260 m 1,626,627
 909 1251 909 1251 909 1234 c 2,628,-1
 909 1227 l 1,629,630
 905 1218 905 1218 858 1194 c 1,631,-1
 849 1194 l 1,632,633
 827 1203 827 1203 827 1220 c 2,634,-1
 827 1223 l 2,635,636
 827 1247 827 1247 880 1260 c 1,626,627
845 1216 m 1,637,-1
 849 1214 l 1,638,-1
 856 1214 l 1,639,-1
 889 1234 l 1,640,641
 887 1240 887 1240 876 1240 c 0,642,643
 845 1232 845 1232 845 1216 c 1,637,-1
365 1240 m 2,644,-1
 371 1240 l 1,645,646
 429 1199 429 1199 433 1189 c 1,647,648
 424 1172 424 1172 418 1170 c 2,649,-1
 413 1170 l 1,650,651
 349 1213 349 1213 349 1220 c 0,652,653
 359 1237 359 1237 365 1240 c 2,644,-1
781 1189 m 2,654,-1
 788 1189 l 2,655,656
 808 1187 808 1187 808 1170 c 2,657,-1
 808 1161 l 2,658,659
 808 1151 808 1151 779 1117 c 1,660,661
 766 1035 766 1035 724 1035 c 1,662,663
 706 1042 706 1042 706 1064 c 2,664,-1
 706 1084 l 2,665,666
 706 1138 706 1138 768 1185 c 0,667,668
 775 1189 775 1189 781 1189 c 2,654,-1
1614 1167 m 2,669,-1
 1614 1165 l 2,670,671
 1614 1152 1614 1152 1630 1141 c 1,672,-1
 1638 1141 l 1,673,674
 1652 1149 1652 1149 1652 1152 c 2,675,-1
 1652 1156 l 1,676,677
 1646 1181 1646 1181 1632 1181 c 1,678,679
 1615 1172 1615 1172 1614 1167 c 2,669,-1
724 1081 m 2,680,-1
 724 1064 l 1,681,-1
 726 1053 l 1,682,-1
 730 1053 l 2,683,684
 748 1053 748 1053 764 1128 c 1,685,686
 785 1151 785 1151 792 1163 c 1,687,-1
 792 1167 l 2,688,689
 792 1171 792 1171 786 1174 c 1,690,691
 756 1162 756 1162 733 1119 c 0,692,693
 724 1098 724 1098 724 1081 c 2,680,-1
1740 1132 m 0,694,695
 1733 1134 1733 1134 1724 1134 c 1,696,697
 1724 1116 1724 1116 1660 1090 c 1,698,699
 1701 1016 1701 1016 1711 991 c 1,700,701
 1736 1002 1736 1002 1742 1009 c 1,702,-1
 1711 1070 l 1,703,-1
 1733 1081 l 1,704,705
 1755 1046 1755 1046 1755 1040 c 1,706,707
 1761 1040 1761 1040 1786 1053 c 1,708,709
 1786 1061 1786 1061 1766 1095 c 1,710,-1
 1766 1097 l 2,711,712
 1766 1102 1766 1102 1788 1108 c 1,713,-1
 1790 1108 l 1,714,715
 1801 1081 1801 1081 1821 1048 c 1,716,717
 1846 1062 1846 1062 1850 1062 c 1,718,719
 1850 1072 1850 1072 1799 1161 c 1,720,721
 1746 1132 1746 1132 1740 1132 c 0,694,695
246 1132 m 1,722,723
 246 1126 246 1126 232 1097 c 1,724,725
 328 1057 328 1057 336 1051 c 1,726,-1
 336 1048 l 1,727,728
 329 1026 329 1026 321 1026 c 0,729,730
 303 1026 303 1026 299 1048 c 1,731,732
 288 1042 288 1042 281 1042 c 2,733,-1
 219 1068 l 1,734,-1
 206 1031 l 1,735,-1
 206 1029 l 1,736,737
 272 1008 272 1008 272 989 c 2,738,-1
 272 987 l 1,739,740
 283 993 283 993 290 993 c 0,741,742
 306 991 306 991 307 985 c 0,743,744
 302 960 302 960 296 960 c 2,745,-1
 294 960 l 1,746,-1
 191 1000 l 1,747,-1
 191 998 l 1,748,749
 177 967 177 967 177 962 c 1,750,751
 243 940 243 940 243 929 c 2,752,-1
 243 923 l 1,753,-1
 246 923 l 2,754,755
 248 923 248 923 263 927 c 1,756,-1
 292 916 l 1,757,758
 349 936 349 936 349 976 c 0,759,760
 349 981 349 981 343 993 c 1,761,762
 366 1002 366 1002 373 1024 c 0,763,764
 373 1030 373 1030 378 1037 c 1,765,766
 365 1090 365 1090 351 1090 c 0,767,768
 327 1097 327 1097 327 1115 c 1,769,770
 316 1108 316 1108 312 1108 c 2,771,-1
 248 1132 l 1,772,-1
 246 1132 l 1,722,723
1828 996 m 1,773,774
 1828 985 1828 985 1797 971 c 1,775,-1
 1793 956 l 1,776,-1
 1793 954 l 2,777,778
 1793 940 1793 940 1804 905 c 1,779,780
 1795 899 1795 899 1784 899 c 0,781,782
 1777 899 1777 899 1773 925 c 1,783,784
 1788 930 1788 930 1788 934 c 0,785,786
 1777 966 1777 966 1777 969 c 1,787,788
 1735 961 1735 961 1735 940 c 2,789,-1
 1735 927 l 1,790,791
 1746 854 1746 854 1779 854 c 1,792,-1
 1790 857 l 1,793,794
 1790 853 1790 853 1804 848 c 1,795,796
 1804 859 1804 859 1837 874 c 1,797,-1
 1841 890 l 1,798,-1
 1841 892 l 2,799,800
 1841 907 1841 907 1830 940 c 1,801,802
 1843 949 1843 949 1852 949 c 1,803,804
 1861 936 1861 936 1861 923 c 0,805,806
 1860 916 1860 916 1846 916 c 1,807,-1
 1857 877 l 1,808,809
 1901 885 1901 885 1901 910 c 0,810,811
 1888 991 1888 991 1859 991 c 2,812,-1
 1854 991 l 2,813,814
 1849 991 1849 991 1846 989 c 0,815,816
 1837 996 1837 996 1828 996 c 1,773,774
1162 991 m 0,817,818
 1181 991 1181 991 1240 971 c 1,819,-1
 1244 971 l 2,820,821
 1251 971 1251 971 1288 985 c 0,822,823
 1291 985 1291 985 1295 978 c 1,824,-1
 1295 971 l 2,825,826
 1295 961 1295 961 1235 951 c 0,827,828
 1226 951 1226 951 1180 969 c 1,829,-1
 1160 971 l 1,830,-1
 1127 965 l 1,831,-1
 1125 965 l 2,832,833
 1121 965 1121 965 1121 969 c 2,834,-1
 1121 976 l 2,835,836
 1121 987 1121 987 1162 991 c 0,817,818
973 978 m 2,837,-1
 979 978 l 2,838,839
 993 978 993 978 1050 956 c 1,840,841
 1076 953 1076 953 1076 947 c 2,842,-1
 1076 940 l 2,843,844
 1074 934 1074 934 1063 934 c 0,845,846
 1047 934 1047 934 988 958 c 0,847,848
 979 958 979 958 979 960 c 1,849,850
 959 960 959 960 929 936 c 1,851,-1
 922 936 l 2,852,853
 919 936 919 936 916 943 c 2,854,-1
 916 949 l 1,855,856
 945 978 945 978 973 978 c 2,837,-1
979 921 m 2,857,-1
 986 921 l 1,858,859
 1043 916 1043 916 1043 907 c 0,860,861
 1039 897 1039 897 1035 896 c 2,862,-1
 1021 896 l 2,863,864
 1013 896 1013 896 982 903 c 1,865,866
 946 903 946 903 916 859 c 1,867,-1
 913 859 l 2,868,869
 905 862 905 862 905 866 c 2,870,-1
 905 868 l 1,871,872
 925 921 925 921 979 921 c 2,857,-1
1220 896 m 2,873,-1
 1226 896 l 2,874,875
 1232 896 1232 896 1303 892 c 1,876,-1
 1303 890 l 1,877,-1
 1325 894 l 1,878,879
 1334 891 1334 891 1334 888 c 2,880,-1
 1334 881 l 2,881,882
 1334 874 1334 874 1312 870 c 1,883,884
 1251 877 1251 877 1233 877 c 2,885,-1
 1231 877 l 2,886,887
 1220 877 1220 877 1198 874 c 1,888,-1
 1195 879 l 1,889,-1
 1195 885 l 2,890,891
 1195 893 1195 893 1220 896 c 2,873,-1
964 870 m 2,892,-1
 973 870 l 2,893,894
 1012 870 1012 870 1103 839 c 1,895,896
 1156 807 1156 807 1156 791 c 2,897,-1
 1156 782 l 1,898,899
 1148 769 1148 769 1136 769 c 2,900,-1
 1132 769 l 2,901,902
 1120 769 1120 769 1052 799 c 1,903,904
 1033 799 1033 799 1008 802 c 1,905,906
 1008 798 1008 798 1002 795 c 2,907,-1
 979 795 l 2,908,909
 964 795 964 795 887 773 c 1,910,-1
 883 773 l 1,911,-1
 876 782 l 1,912,913
 877 798 877 798 929 854 c 0,914,915
 948 870 948 870 964 870 c 2,892,-1
618 804 m 1,916,-1
 618 802 l 1,917,918
 692 802 692 802 719 689 c 1,919,-1
 722 689 l 1,920,-1
 722 696 l 2,921,922
 722 701 722 701 719 705 c 1,923,924
 722 707 722 707 722 751 c 1,925,926
 711 751 711 751 700 793 c 1,927,928
 674 813 674 813 649 813 c 2,929,-1
 640 813 l 2,930,931
 635 813 635 813 618 804 c 1,916,-1
1378 810 m 1,932,933
 1372 795 1372 795 1297 755 c 1,934,-1
 1286 738 l 1,935,-1
 1288 738 l 1,936,937
 1303 744 1303 744 1319 744 c 2,938,-1
 1325 744 l 2,939,940
 1339 744 1339 744 1363 735 c 1,941,942
 1383 765 1383 765 1383 808 c 1,943,-1
 1378 810 l 1,932,933
607 780 m 1,944,-1
 607 749 l 2,945,946
 607 658 607 658 653 590 c 1,947,948
 670 545 670 545 697 524 c 1,949,950
 706 539 706 539 706 546 c 2,951,-1
 706 557 l 1,952,-1
 695 619 l 1,953,954
 703 671 703 671 708 683 c 1,955,956
 700 683 700 683 689 731 c 1,957,958
 655 784 655 784 627 784 c 0,959,960
 624 784 624 784 607 780 c 1,944,-1
202 782 m 1,961,-1
 202 740 l 1,962,-1
 195 731 l 1,963,-1
 202 722 l 1,964,-1
 202 683 l 1,965,-1
 224 683 l 1,966,-1
 224 724 l 1,967,-1
 228 724 l 1,968,-1
 246 685 l 2,969,970
 250 685 250 685 265 722 c 1,971,-1
 270 722 l 1,972,-1
 270 683 l 1,973,-1
 292 683 l 1,974,-1
 292 722 l 1,975,-1
 299 731 l 1,976,-1
 292 740 l 1,977,-1
 292 782 l 1,978,-1
 272 782 l 2,979,980
 268 782 268 782 250 740 c 1,981,-1
 243 740 l 1,982,983
 243 745 243 745 226 782 c 1,984,-1
 202 782 l 1,961,-1
323 782 m 1,985,-1
 323 742 l 2,986,987
 323 741 323 741 314 731 c 1,988,989
 323 728 323 728 323 716 c 2,990,-1
 323 683 l 1,991,-1
 343 683 l 1,992,-1
 343 724 l 1,993,-1
 345 724 l 2,994,995
 350 724 350 724 365 685 c 1,996,-1
 389 724 l 1,997,-1
 391 724 l 1,998,-1
 391 683 l 1,999,-1
 411 683 l 1,1000,-1
 411 722 l 1,1001,-1
 420 733 l 1,1002,1003
 411 733 411 733 411 740 c 2,1004,-1
 411 782 l 1,1005,-1
 391 782 l 2,1006,1007
 387 782 387 782 369 740 c 1,1008,-1
 367 740 l 2,1009,1010
 362 740 362 740 345 782 c 1,1011,-1
 323 782 l 1,985,-1
435 782 m 1,1012,-1
 435 780 l 2,1013,1014
 435 777 435 777 459 733 c 1,1015,1016
 435 686 435 686 435 683 c 1,1017,-1
 459 683 l 2,1018,1019
 464 683 464 683 470 702 c 1,1020,-1
 473 702 l 2,1021,1022
 478 702 478 702 484 683 c 1,1023,-1
 510 683 l 1,1024,-1
 510 685 l 1,1025,1026
 488 727 488 727 488 733 c 2,1027,-1
 510 782 l 1,1028,-1
 484 782 l 1,1029,1030
 478 762 478 762 473 762 c 2,1031,-1
 470 762 l 1,1032,1033
 464 782 464 782 459 782 c 2,1034,-1
 435 782 l 1,1012,-1
1475 782 m 1,1035,-1
 1475 742 l 1,1036,1037
 1467 732 1467 732 1467 731 c 0,1038,1039
 1475 728 1475 728 1475 716 c 2,1040,-1
 1475 683 l 1,1041,-1
 1495 683 l 1,1042,-1
 1495 724 l 1,1043,-1
 1497 724 l 2,1044,1045
 1503 724 1503 724 1517 685 c 1,1046,-1
 1541 724 l 1,1047,-1
 1544 724 l 1,1048,-1
 1544 683 l 1,1049,-1
 1563 683 l 1,1050,-1
 1563 722 l 1,1051,-1
 1572 733 l 1,1052,1053
 1563 733 1563 733 1563 740 c 2,1054,-1
 1563 782 l 1,1055,-1
 1544 782 l 2,1056,1057
 1539 782 1539 782 1522 740 c 1,1058,-1
 1519 740 l 2,1059,1060
 1515 740 1515 740 1497 782 c 1,1061,-1
 1475 782 l 1,1035,-1
1594 782 m 1,1062,-1
 1594 742 l 1,1063,-1
 1586 731 l 1,1064,1065
 1594 728 1594 728 1594 716 c 2,1066,-1
 1594 683 l 1,1067,-1
 1614 683 l 1,1068,-1
 1614 724 l 1,1069,-1
 1616 724 l 2,1070,1071
 1622 724 1622 724 1636 685 c 1,1072,-1
 1660 724 l 1,1073,-1
 1663 724 l 1,1074,-1
 1663 683 l 1,1075,-1
 1682 683 l 1,1076,-1
 1682 722 l 1,1077,-1
 1691 733 l 1,1078,1079
 1682 733 1682 733 1682 740 c 2,1080,-1
 1682 782 l 1,1081,-1
 1663 782 l 2,1082,1083
 1658 782 1658 782 1641 740 c 1,1084,-1
 1638 740 l 2,1085,1086
 1634 740 1634 740 1616 782 c 1,1087,-1
 1594 782 l 1,1062,-1
1707 782 m 1,1088,1089
 1731 735 1731 735 1731 731 c 2,1090,-1
 1707 683 l 1,1091,-1
 1731 683 l 2,1092,1093
 1736 683 1736 683 1742 702 c 1,1094,-1
 1744 702 l 2,1095,1096
 1749 702 1749 702 1755 683 c 1,1097,-1
 1784 683 l 1,1098,1099
 1760 729 1760 729 1760 733 c 2,1100,-1
 1784 782 l 1,1101,-1
 1755 782 l 1,1102,1103
 1749 762 1749 762 1744 762 c 2,1104,-1
 1742 762 l 1,1105,1106
 1736 782 1736 782 1731 782 c 2,1107,-1
 1707 782 l 1,1088,1089
1801 782 m 1,1108,1109
 1826 735 1826 735 1826 731 c 2,1110,-1
 1801 683 l 1,1111,-1
 1826 683 l 2,1112,1113
 1831 683 1831 683 1837 702 c 1,1114,-1
 1839 702 l 2,1115,1116
 1844 702 1844 702 1850 683 c 1,1117,-1
 1879 683 l 1,1118,1119
 1854 729 1854 729 1854 733 c 2,1120,-1
 1879 782 l 1,1121,-1
 1850 782 l 1,1122,1123
 1844 762 1844 762 1839 762 c 2,1124,-1
 1837 762 l 1,1125,1126
 1831 782 1831 782 1826 782 c 2,1127,-1
 1801 782 l 1,1108,1109
1021 777 m 1,1128,1129
 1082 770 1082 770 1087 755 c 1,1130,-1
 1087 749 l 2,1131,1132
 1087 746 1087 746 1081 742 c 1,1133,1134
 1046 758 1046 758 1024 758 c 2,1135,-1
 1021 758 l 1,1136,1137
 962 747 962 747 962 733 c 1,1138,1139
 957 727 957 727 955 727 c 2,1140,-1
 949 727 l 2,1141,1142
 942 729 942 729 942 740 c 0,1143,1144
 942 763 942 763 1021 777 c 1,1128,1129
649 753 m 0,1145,1146
 658 750 658 750 662 742 c 1,1147,-1
 653 669 l 1,1148,1149
 658 630 658 630 669 630 c 1,1150,-1
 678 634 l 1,1151,1152
 686 631 686 631 686 628 c 2,1153,-1
 686 621 l 2,1154,1155
 686 618 686 618 675 610 c 1,1156,-1
 667 610 l 2,1157,1158
 641 610 641 610 634 669 c 1,1159,1160
 640 710 640 710 640 727 c 2,1161,-1
 640 735 l 1,1162,-1
 638 747 l 1,1163,1164
 645 753 645 753 649 753 c 0,1145,1146
1030 749 m 256,1165,1166
 1076 749 1076 749 1112 709 c 1,1167,-1
 1112 702 l 1,1168,1169
 1082 665 1082 665 1028 665 c 1,1170,1171
 951 678 951 678 951 711 c 2,1172,-1
 951 716 l 1,1173,1174
 984 749 984 749 1030 749 c 256,1165,1166
1125 740 m 1,1175,-1
 1132 740 l 1,1176,1177
 1156 721 1156 721 1156 705 c 0,1178,1179
 1153 683 1153 683 1143 683 c 0,1180,1181
 1134 686 1134 686 1134 689 c 2,1182,-1
 1134 709 l 1,1183,-1
 1118 727 l 1,1184,-1
 1118 733 l 2,1185,1186
 1118 736 1118 736 1125 740 c 1,1175,-1
1035 729 m 1,1187,1188
 1039 722 1039 722 1039 716 c 2,1189,-1
 1039 705 l 2,1190,1191
 1039 699 1039 699 1035 685 c 1,1192,-1
 1037 685 l 1,1193,1194
 1085 690 1085 690 1085 709 c 1,1195,1196
 1058 729 1058 729 1035 729 c 1,1187,1188
1321 727 m 1,1197,1198
 1325 718 1325 718 1325 713 c 0,1199,1200
 1323 700 1323 700 1317 689 c 1,1201,-1
 1319 689 l 2,1202,1203
 1354 689 1354 689 1354 718 c 1,1204,1205
 1337 727 1337 727 1321 727 c 1,1197,1198
973 711 m 1,1206,-1
 973 707 l 1,1207,-1
 975 707 l 1,1208,-1
 975 711 l 1,1209,-1
 973 711 l 1,1206,-1
1270 705 m 1,1210,-1
 1270 696 l 2,1211,1212
 1271 691 1271 691 1275 691 c 1,1213,-1
 1275 694 l 1,1214,-1
 1273 705 l 1,1215,-1
 1270 705 l 1,1210,-1
675 696 m 0,1216,1217
 681 696 681 696 689 691 c 1,1218,1219
 684 676 684 676 684 667 c 2,1220,-1
 686 647 l 1,1221,-1
 678 643 l 1,1222,1223
 666 643 666 643 662 669 c 1,1224,1225
 667 696 667 696 675 696 c 0,1216,1217
1118 687 m 2,1226,-1
 1125 687 l 2,1227,1228
 1128 687 1128 687 1132 680 c 1,1229,-1
 1132 678 l 2,1230,1231
 1132 660 1132 660 1092 616 c 1,1232,-1
 1090 616 l 2,1233,1234
 1084 616 1084 616 1079 628 c 1,1235,-1
 1112 674 l 1,1236,1237
 1114 687 1114 687 1118 687 c 2,1226,-1
1297 669 m 2,1238,-1
 1281 669 l 1,1239,-1
 1270 672 l 1,1240,1241
 1272 628 1272 628 1306 548 c 1,1242,1243
 1308 519 1308 519 1308 502 c 2,1244,-1
 1308 493 l 2,1245,1246
 1308 474 1308 474 1299 460 c 1,1247,1248
 1309 460 1309 460 1341 431 c 1,1249,-1
 1343 431 l 1,1250,1251
 1343 435 1343 435 1354 506 c 2,1252,-1
 1367 632 l 2,1253,1254
 1366 652 1366 652 1361 652 c 1,1255,1256
 1361 617 1361 617 1323 590 c 1,1257,-1
 1319 590 l 2,1258,1259
 1316 590 1316 590 1312 597 c 1,1260,-1
 1312 601 l 1,1261,1262
 1345 632 1345 632 1345 669 c 2,1263,-1
 1345 676 l 1,1264,1265
 1318 669 1318 669 1297 669 c 2,1238,-1
1187 645 m 2,1266,-1
 1195 645 l 2,1267,1268
 1201 645 1201 645 1202 628 c 2,1269,-1
 1200 616 l 1,1270,-1
 1206 586 l 1,1271,-1
 1206 581 l 2,1272,1273
 1204 575 1204 575 1193 575 c 0,1274,1275
 1183 575 1183 575 1180 634 c 2,1276,-1
 1180 639 l 2,1277,1278
 1180 642 1180 642 1187 645 c 2,1266,-1
933 643 m 2,1279,-1
 942 643 l 1,1280,1281
 971 610 971 610 1008 610 c 2,1282,-1
 1019 610 l 2,1283,1284
 1030 610 1030 610 1068 621 c 1,1285,-1
 1070 616 l 1,1286,-1
 1070 608 l 1,1287,1288
 1056 590 1056 590 1017 590 c 1,1289,1290
 929 602 929 602 929 636 c 2,1291,-1
 929 639 l 2,1292,1293
 930 643 930 643 933 643 c 2,1279,-1
1806 628 m 1,1294,1295
 1804 602 1804 602 1804 590 c 1,1296,1297
 1809 590 1809 590 1832 570 c 0,1298,1299
 1832 567 1832 567 1799 553 c 1,1300,-1
 1795 517 l 1,1301,1302
 1863 550 1863 550 1868 550 c 2,1303,-1
 1876 550 l 1,1304,-1
 1887 539 l 2,1305,1306
 1891 539 1891 539 1896 548 c 1,1307,-1
 1912 546 l 1,1308,-1
 1920 546 l 1,1309,-1
 1920 559 l 1,1310,-1
 1923 575 l 1,1311,1312
 1900 575 1900 575 1892 588 c 1,1313,1314
 1881 582 1881 582 1881 579 c 1,1315,1316
 1865 579 1865 579 1826 614 c 1,1317,-1
 1806 628 l 1,1294,1295
226 612 m 1,1318,1319
 226 603 226 603 197 594 c 1,1320,-1
 193 579 l 1,1321,1322
 195 547 195 547 195 544 c 0,1323,1324
 188 539 188 539 182 539 c 2,1325,-1
 180 539 l 2,1326,1327
 174 539 174 539 173 561 c 1,1328,1329
 178 566 178 566 186 566 c 1,1330,1331
 185 597 185 597 182 597 c 0,1332,1333
 146 597 146 597 146 575 c 0,1334,1335
 146 509 146 509 171 509 c 0,1336,1337
 177 509 177 509 188 500 c 1,1338,1339
 188 509 188 509 217 515 c 1,1340,-1
 224 535 l 2,1341,1342
 224 540 224 540 219 566 c 1,1343,1344
 229 572 229 572 237 572 c 1,1345,1346
 241 567 241 567 243 550 c 1,1347,1348
 230 545 230 545 230 544 c 0,1349,1350
 230 542 230 542 232 515 c 1,1351,-1
 235 515 l 2,1352,1353
 270 515 270 515 270 537 c 0,1354,1355
 270 603 270 603 243 603 c 0,1356,1357
 237 603 237 603 228 612 c 1,1358,-1
 226 612 l 1,1318,1319
1132 594 m 2,1359,-1
 1138 594 l 2,1360,1361
 1141 594 1141 594 1145 588 c 1,1362,1363
 1129 531 1129 531 1118 531 c 2,1364,-1
 1114 531 l 2,1365,1366
 1111 531 1111 531 1107 539 c 1,1367,1368
 1126 592 1126 592 1132 594 c 2,1359,-1
1160 544 m 0,1369,1370
 1189 535 1189 535 1189 526 c 2,1371,-1
 1189 520 l 2,1372,1373
 1189 515 1189 515 1184 515 c 2,1374,-1
 1180 515 l 1,1375,1376
 1151 524 1151 524 1151 531 c 2,1377,-1
 1151 537 l 2,1378,1379
 1151 543 1151 543 1160 544 c 0,1369,1370
1775 425 m 1,1380,1381
 1830 413 1830 413 1830 405 c 2,1382,-1
 1830 401 l 1,1383,-1
 1841 407 l 1,1384,1385
 1877 401 1877 401 1892 401 c 1,1386,-1
 1898 427 l 1,1387,1388
 1871 434 1871 434 1865 434 c 1,1389,-1
 1865 436 l 2,1390,1391
 1868 439 1868 439 1905 453 c 1,1392,-1
 1912 484 l 1,1393,1394
 1875 473 1875 473 1868 473 c 1,1395,1396
 1868 497 1868 497 1819 504 c 1,1397,-1
 1808 504 l 2,1398,1399
 1786 504 1786 504 1775 425 c 1,1380,1381
224 480 m 1,1400,1401
 224 483 224 483 215 486 c 1,1402,1403
 215 472 215 472 164 462 c 0,1404,1405
 162 462 162 462 162 460 c 0,1406,1407
 166 434 166 434 171 434 c 0,1408,1409
 198 440 198 440 208 440 c 1,1410,1411
 216 392 216 392 230 392 c 2,1412,-1
 232 392 l 1,1413,1414
 294 396 294 396 294 420 c 2,1415,-1
 294 425 l 1,1416,-1
 279 491 l 1,1417,1418
 234 480 234 480 224 480 c 1,1400,1401
1815 471 m 0,1419,1420
 1841 471 1841 471 1841 460 c 0,1421,1422
 1840 442 1840 442 1835 442 c 0,1423,1424
 1808 445 1808 445 1808 453 c 0,1425,1426
 1809 471 1809 471 1815 471 c 0,1419,1420
259 453 m 1,1427,1428
 265 441 265 441 265 431 c 1,1429,1430
 258 425 258 425 237 425 c 1,1431,1432
 230 438 230 438 230 447 c 1,1433,1434
 249 453 249 453 259 453 c 1,1427,1428
1742 330 m 1,1435,1436
 1742 311 1742 311 1784 299 c 1,1437,1438
 1788 286 1788 286 1790 286 c 0,1439,1440
 1801 293 1801 293 1804 293 c 0,1441,1442
 1812 287 1812 287 1837 282 c 1,1443,1444
 1859 282 1859 282 1872 343 c 1,1445,-1
 1872 348 l 2,1446,1447
 1872 364 1872 364 1832 376 c 1,1448,1449
 1831 387 1831 387 1826 387 c 2,1450,-1
 1819 383 l 1,1451,-1
 1815 383 l 1,1452,-1
 1777 394 l 1,1453,1454
 1758 394 1758 394 1742 330 c 1,1435,1436
257 374 m 0,1455,1456
 251 374 251 374 243 378 c 1,1457,1458
 243 368 243 368 224 359 c 1,1459,1460
 193 352 193 352 193 343 c 0,1461,1462
 202 319 202 319 204 319 c 0,1463,1464
 239 334 239 334 246 334 c 0,1465,1466
 251 334 251 334 257 308 c 1,1467,1468
 217 293 217 293 215 293 c 1,1469,-1
 215 290 l 1,1470,1471
 221 264 221 264 226 264 c 0,1472,1473
 267 279 267 279 274 279 c 0,1474,1475
 277 277 277 277 285 277 c 1,1476,1477
 285 290 285 290 336 306 c 1,1478,-1
 336 310 l 1,1479,1480
 312 368 312 368 305 392 c 1,1481,1482
 262 374 262 374 257 374 c 0,1455,1456
1782 359 m 0,1483,1484
 1792 359 1792 359 1841 339 c 1,1485,-1
 1841 337 l 2,1486,1487
 1838 315 1838 315 1832 315 c 0,1488,1489
 1773 336 1773 336 1773 339 c 0,1490,1491
 1777 359 1777 359 1782 359 c 0,1483,1484
290 352 m 0,1492,1493
 295 346 295 346 301 326 c 1,1494,1495
 288 319 288 319 283 319 c 1,1496,1497
 275 330 275 330 272 345 c 1,1498,1499
 285 352 285 352 290 352 c 0,1492,1493
1187 317 m 2,1500,-1
 1182 319 l 1,1501,1502
 1170 313 1170 313 1140 310 c 1,1503,1504
 1131 297 1131 297 1110 297 c 0,1505,1506
 1106 297 1106 297 1096 301 c 1,1507,1508
 1084 295 1084 295 1079 295 c 1,1509,1510
 1079 290 1079 290 1083 290 c 2,1511,-1
 1121 290 l 1,1512,1513
 1259 305 1259 305 1259 328 c 1,1514,1515
 1237 330 1237 330 1226 330 c 2,1516,-1
 1224 330 l 1,1517,1518
 1194 317 1194 317 1187 317 c 2,1500,-1
1729 304 m 1,1519,-1
 1687 220 l 1,1520,1521
 1701 211 1701 211 1711 211 c 1,1522,1523
 1722 231 1722 231 1722 235 c 1,1524,-1
 1724 235 l 1,1525,1526
 1751 231 1751 231 1751 211 c 1,1527,1528
 1758 215 1758 215 1764 215 c 0,1529,1530
 1769 215 1769 215 1808 193 c 1,1531,-1
 1810 193 l 1,1532,1533
 1821 218 1821 218 1821 222 c 0,1534,1535
 1775 240 1775 240 1775 257 c 1,1536,1537
 1766 253 1766 253 1762 253 c 0,1538,1539
 1740 263 1740 263 1740 266 c 0,1540,1541
 1751 285 1751 285 1751 295 c 1,1542,1543
 1735 304 1735 304 1729 304 c 1,1519,-1
301 259 m 2,1544,1545
 297 259 297 259 288 264 c 1,1546,1547
 288 246 288 246 241 226 c 1,1548,1549
 250 206 250 206 257 200 c 1,1550,1551
 303 226 303 226 310 226 c 1,1552,1553
 299 204 299 204 277 167 c 0,1554,1555
 277 160 277 160 290 138 c 1,1556,-1
 334 163 l 2,1557,1558
 336 160 336 160 347 160 c 1,1559,1560
 347 176 347 176 387 191 c 0,1561,1562
 393 196 393 196 393 200 c 0,1563,1564
 382 219 382 219 382 222 c 1,1565,-1
 329 198 l 1,1566,-1
 329 200 l 1,1567,-1
 360 255 l 1,1568,1569
 360 265 360 265 345 284 c 1,1570,-1
 301 259 l 2,1544,1545
1233 262 m 1,1571,1572
 1235 226 1235 226 1242 226 c 2,1573,-1
 1246 226 l 2,1574,1575
 1253 229 1253 229 1253 240 c 2,1576,-1
 1253 248 l 2,1577,1578
 1253 260 1253 260 1244 264 c 1,1579,-1
 1237 264 l 1,1580,-1
 1233 262 l 1,1571,1572
1198 253 m 1,1581,1582
 1193 248 1193 248 1191 229 c 1,1583,1584
 1194 213 1194 213 1202 213 c 0,1585,1586
 1206 215 1206 215 1209 215 c 1,1587,-1
 1209 242 l 2,1588,1589
 1209 244 1209 244 1211 244 c 1,1590,1591
 1209 253 1209 253 1198 253 c 1,1581,1582
1149 242 m 1,1592,-1
 1151 220 l 1,1593,-1
 1151 207 l 2,1594,1595
 1151 203 1151 203 1158 200 c 2,1596,-1
 1162 200 l 2,1597,1598
 1167 200 1167 200 1167 204 c 2,1599,-1
 1167 233 l 1,1600,-1
 1165 244 l 1,1601,-1
 1154 244 l 1,1602,-1
 1149 242 l 1,1592,-1
1678 207 m 1,1603,-1
 1627 134 l 2,1604,1605
 1627 132 1627 132 1669 101 c 1,1606,-1
 1669 90 l 1,1607,-1
 1682 92 l 1,1608,1609
 1697 83 1697 83 1724 63 c 1,1610,-1
 1727 63 l 1,1611,1612
 1727 67 1727 67 1742 88 c 1,1613,-1
 1705 116 l 1,1614,1615
 1716 138 1716 138 1722 138 c 0,1616,1617
 1733 132 1733 132 1757 114 c 1,1618,-1
 1762 114 l 1,1619,1620
 1762 117 1762 117 1777 138 c 1,1621,1622
 1736 165 1736 165 1735 169 c 2,1623,-1
 1735 180 l 1,1624,-1
 1733 180 l 1,1625,-1
 1718 178 l 1,1626,1627
 1714 184 1714 184 1678 207 c 1,1603,-1
1229 156 m 0,1628,1629
 1229 152 1229 152 1233 152 c 2,1630,-1
 1244 152 l 1,1631,1632
 1248 176 1248 176 1248 187 c 0,1633,1634
 1246 191 1246 191 1246 193 c 1,1635,-1
 1237 193 l 2,1636,1637
 1229 193 1229 193 1229 156 c 0,1628,1629
369 145 m 1,1638,-1
 356 147 l 1,1639,1640
 356 129 356 129 329 118 c 0,1641,1642
 329 116 329 116 314 105 c 1,1643,1644
 329 81 329 81 332 81 c 2,1645,-1
 373 110 l 1,1646,-1
 387 107 l 1,1647,-1
 387 118 l 1,1648,-1
 429 152 l 1,1649,1650
 413 173 413 173 413 176 c 1,1651,1652
 411 176 411 176 369 145 c 1,1638,-1
1171 156 m 2,1653,-1
 1171 136 l 2,1654,1655
 1172 132 1172 132 1176 132 c 2,1656,-1
 1182 132 l 2,1657,1658
 1189 132 1189 132 1189 160 c 2,1659,-1
 1189 174 l 1,1660,-1
 1178 174 l 2,1661,1662
 1171 172 1171 172 1171 156 c 2,1653,-1
1682 165 m 2,1663,-1
 1685 165 l 1,1664,1665
 1698 157 1698 157 1698 154 c 0,1666,1667
 1686 134 1686 134 1680 132 c 1,1668,1669
 1667 140 1667 140 1667 143 c 2,1670,-1
 1667 145 l 1,1671,1672
 1679 164 1679 164 1682 165 c 2,1663,-1
426 110 m 1,1673,-1
 418 110 l 1,1674,-1
 413 112 l 1,1675,1676
 413 95 413 95 402 83 c 1,1677,-1
 402 74 l 2,1678,1679
 402 63 402 63 426 37 c 1,1680,-1
 426 35 l 2,1681,1682
 426 32 426 32 415 24 c 1,1683,-1
 413 24 l 2,1684,1685
 409 24 409 24 400 39 c 1,1686,-1
 400 41 l 1,1687,-1
 407 50 l 1,1688,1689
 388 72 388 72 387 72 c 0,1690,1691
 369 59 369 59 367 52 c 2,1692,-1
 367 44 l 2,1693,1694
 367 25 367 25 411 -9 c 1,1695,-1
 424 -9 l 1,1696,1697
 432 -3 432 -3 440 -3 c 2,1698,-1
 442 -3 l 1,1699,-1
 446 -5 l 1,1700,1701
 446 9 446 9 459 24 c 1,1702,-1
 459 33 l 2,1703,1704
 459 43 459 43 435 70 c 1,1705,-1
 435 72 l 2,1706,1707
 435 75 435 75 446 83 c 1,1708,-1
 448 83 l 1,1709,1710
 462 75 462 75 462 63 c 1,1711,1712
 458 63 458 63 455 57 c 0,1713,1714
 455 56 455 56 475 35 c 1,1715,1716
 495 49 495 49 495 61 c 2,1717,-1
 495 63 l 2,1718,1719
 495 82 495 82 451 116 c 1,1720,-1
 442 116 l 2,1721,1722
 434 116 434 116 426 110 c 1,1673,-1
1204 112 m 2,1723,-1
 1204 94 l 1,1724,-1
 1206 83 l 1,1725,-1
 1213 83 l 1,1726,1727
 1222 87 1222 87 1222 99 c 2,1728,-1
 1222 103 l 2,1729,1730
 1222 114 1222 114 1215 116 c 2,1731,-1
 1209 116 l 2,1732,1733
 1204 116 1204 116 1204 112 c 2,1723,-1
1557 55 m 1,1734,-1
 1557 50 l 1,1735,1736
 1561 50 1561 50 1594 17 c 1,1737,-1
 1594 6 l 1,1738,-1
 1605 6 l 2,1739,1740
 1608 6 1608 6 1643 -27 c 1,1741,-1
 1647 -27 l 1,1742,1743
 1647 -23 1647 -23 1665 -5 c 1,1744,1745
 1643 17 1643 17 1638 17 c 1,1746,-1
 1638 21 l 1,1747,-1
 1682 13 l 1,1748,-1
 1705 37 l 1,1749,1750
 1670 46 1670 46 1660 50 c 1,1751,1752
 1665 59 1665 59 1665 66 c 1,1753,1754
 1636 107 1636 107 1619 107 c 2,1755,-1
 1614 107 l 2,1756,1757
 1601 107 1601 107 1557 55 c 1,1734,-1
1160 37 m 1,1758,-1
 1165 35 l 1,1759,-1
 1171 35 l 1,1760,1761
 1176 39 1176 39 1184 68 c 0,1762,1763
 1182 72 1182 72 1182 74 c 1,1764,-1
 1171 74 l 2,1765,1766
 1165 74 1165 74 1160 37 c 1,1758,-1
1614 74 m 0,1767,1768
 1624 71 1624 71 1632 59 c 1,1769,-1
 1632 52 l 2,1770,1771
 1632 49 1632 49 1619 39 c 1,1772,1773
 1597 56 1597 56 1597 59 c 0,1774,1775
 1608 74 1608 74 1614 74 c 0,1767,1768
1200 30 m 2,1776,-1
 1200 21 l 2,1777,1778
 1200 18 1200 18 1206 15 c 2,1779,-1
 1211 15 l 2,1780,1781
 1217 15 1217 15 1220 44 c 1,1782,-1
 1213 48 l 1,1783,-1
 1209 48 l 2,1784,1785
 1203 48 1203 48 1200 30 c 2,1776,-1
475 4 m 1,1786,-1
 477 -1 l 1,1787,-1
 477 -12 l 1,1788,-1
 446 -49 l 1,1789,1790
 465 -68 465 -68 470 -69 c 1,1791,1792
 491 -41 491 -41 501 -34 c 1,1793,1794
 521 -49 521 -49 521 -51 c 2,1795,-1
 521 -53 l 1,1796,1797
 503 -74 503 -74 492 -89 c 1,1798,-1
 492 -91 l 1,1799,1800
 496 -91 496 -91 517 -109 c 1,1801,1802
 517 -104 517 -104 550 -69 c 1,1803,-1
 561 -69 l 1,1804,-1
 561 -56 l 1,1805,1806
 592 -18 592 -18 592 -14 c 2,1807,-1
 570 4 l 1,1808,-1
 567 4 l 1,1809,1810
 567 -1 567 -1 539 -31 c 1,1811,1812
 519 -16 519 -16 519 -14 c 2,1813,-1
 519 -12 l 2,1814,1815
 519 -10 519 -10 545 21 c 1,1816,-1
 545 24 l 2,1817,1818
 545 25 545 25 526 41 c 1,1819,-1
 523 41 l 1,1820,1821
 492 4 492 4 484 4 c 2,1822,-1
 475 4 l 1,1786,-1
1480 -20 m 2,1823,-1
 1480 -25 l 2,1824,1825
 1480 -33 1480 -33 1502 -60 c 1,1826,-1
 1502 -69 l 1,1827,-1
 1500 -73 l 1,1828,1829
 1518 -73 1518 -73 1526 -86 c 0,1830,1831
 1526 -93 1526 -93 1541 -102 c 1,1832,-1
 1550 -102 l 2,1833,1834
 1569 -102 1569 -102 1603 -60 c 0,1835,1836
 1605 -56 1605 -56 1605 -53 c 0,1837,1838
 1605 -44 1605 -44 1583 -18 c 1,1839,-1
 1583 -9 l 1,1840,-1
 1586 -5 l 1,1841,1842
 1566 -5 1566 -5 1552 19 c 1,1843,1844
 1542 28 1542 28 1533 28 c 1,1845,1846
 1480 -1 1480 -1 1480 -20 c 2,1823,-1
1533 -5 m 1,1847,1848
 1570 -50 1570 -50 1570 -58 c 1,1849,1850
 1558 -69 1558 -69 1557 -69 c 2,1851,-1
 1552 -69 l 2,1852,1853
 1550 -68 1550 -68 1513 -23 c 1,1854,-1
 1513 -18 l 1,1855,1856
 1525 -5 1525 -5 1533 -5 c 1,1847,1848
1385 -71 m 1,1857,-1
 1385 -75 l 1,1858,-1
 1409 -115 l 1,1859,-1
 1407 -131 l 1,1860,1861
 1425 -131 1425 -131 1440 -168 c 0,1862,1863
 1444 -168 1444 -168 1444 -175 c 1,1864,1865
 1513 -144 1513 -144 1513 -124 c 2,1866,-1
 1513 -120 l 2,1867,1868
 1513 -109 1513 -109 1486 -75 c 1,1869,1870
 1471 -36 1471 -36 1453 -36 c 0,1871,1872
 1444 -36 1444 -36 1385 -71 c 1,1857,-1
1447 -69 m 0,1873,1874
 1453 -71 1453 -71 1453 -82 c 1,1875,1876
 1444 -95 1444 -95 1433 -95 c 1,1877,-1
 1425 -80 l 1,1878,1879
 1439 -69 1439 -69 1447 -69 c 0,1873,1874
684 -75 m 1,1880,1881
 667 -124 667 -124 649 -124 c 1,1882,1883
 653 -131 653 -131 653 -137 c 0,1884,1885
 653 -142 653 -142 634 -183 c 1,1886,-1
 636 -183 l 1,1887,1888
 656 -194 656 -194 662 -194 c 1,1889,-1
 680 -155 l 1,1890,-1
 682 -155 l 2,1891,1892
 689 -155 689 -155 717 -170 c 1,1893,1894
 717 -166 717 -166 728 -146 c 1,1895,1896
 714 -141 714 -141 693 -128 c 1,1897,1898
 701 -111 701 -111 704 -111 c 0,1899,1900
 746 -133 746 -133 753 -133 c 2,1901,-1
 755 -133 l 1,1902,1903
 755 -126 755 -126 764 -111 c 1,1904,1905
 686 -73 686 -73 684 -73 c 1,1906,-1
 684 -75 l 1,1880,1881
1277 -122 m 1,1907,1908
 1297 -164 1297 -164 1297 -170 c 0,1909,1910
 1297 -174 1297 -174 1292 -181 c 1,1911,1912
 1308 -181 1308 -181 1323 -232 c 1,1913,1914
 1352 -224 1352 -224 1352 -219 c 0,1915,1916
 1336 -185 1336 -185 1336 -175 c 1,1917,1918
 1359 -166 1359 -166 1361 -166 c 0,1919,1920
 1380 -208 1380 -208 1383 -208 c 2,1921,-1
 1409 -197 l 1,1922,-1
 1389 -153 l 1,1923,-1
 1394 -137 l 1,1924,1925
 1378 -137 1378 -137 1363 -86 c 1,1926,1927
 1358 -86 1358 -86 1277 -122 c 1,1907,1908
1467 -109 m 1,1928,-1
 1471 -109 l 2,1929,1930
 1474 -109 1474 -109 1480 -120 c 1,1931,-1
 1480 -122 l 2,1932,1933
 1477 -128 1477 -128 1460 -137 c 1,1934,-1
 1451 -124 l 1,1935,-1
 1451 -120 l 2,1936,1937
 1451 -117 1451 -117 1467 -109 c 1,1928,-1
748 -172 m 0,1938,1939
 753 -180 753 -180 753 -186 c 0,1940,1941
 746 -210 746 -210 746 -214 c 2,1942,-1
 746 -219 l 2,1943,1944
 746 -240 746 -240 803 -250 c 1,1945,-1
 812 -250 l 2,1946,1947
 830 -250 830 -250 838 -210 c 1,1948,1949
 849 -205 849 -205 849 -203 c 0,1950,1951
 845 -196 845 -196 845 -190 c 0,1952,1953
 854 -158 854 -158 854 -155 c 0,1954,1955
 854 -133 854 -133 786 -122 c 0,1956,1957
 771 -122 771 -122 759 -166 c 1,1958,1959
 748 -170 748 -170 748 -172 c 0,1938,1939
1343 -124 m 2,1960,-1
 1345 -124 l 1,1961,1962
 1350 -138 1350 -138 1350 -142 c 2,1963,-1
 1325 -153 l 1,1964,1965
 1320 -146 1320 -146 1317 -135 c 1,1966,1967
 1334 -124 1334 -124 1343 -124 c 2,1960,-1
1187 -148 m 2,1968,-1
 1198 -197 l 1,1969,-1
 1191 -208 l 1,1970,-1
 1191 -210 l 1,1971,1972
 1207 -210 1207 -210 1215 -263 c 1,1973,-1
 1217 -263 l 1,1974,-1
 1295 -243 l 1,1975,1976
 1288 -222 1288 -222 1288 -219 c 1,1977,-1
 1240 -230 l 1,1978,1979
 1233 -214 1233 -214 1233 -203 c 1,1980,1981
 1236 -203 1236 -203 1240 -194 c 1,1982,1983
 1224 -194 1224 -194 1217 -146 c 0,1984,1985
 1215 -146 1215 -146 1215 -139 c 1,1986,1987
 1187 -145 1187 -145 1187 -148 c 2,1968,-1
880 -148 m 1,1988,1989
 874 -205 874 -205 863 -205 c 0,1990,1991
 860 -205 860 -205 860 -208 c 0,1992,1993
 865 -209 865 -209 869 -219 c 1,1994,-1
 863 -267 l 1,1995,-1
 865 -267 l 2,1996,1997
 866 -267 866 -267 894 -269 c 1,1998,-1
 894 -267 l 1,1999,-1
 900 -212 l 1,2000,-1
 902 -212 l 1,2001,2002
 906 -217 906 -217 933 -276 c 1,2003,2004
 956 -280 956 -280 962 -280 c 1,2005,2006
 962 -231 962 -231 979 -225 c 1,2007,2008
 975 -215 975 -215 971 -214 c 1,2009,-1
 979 -161 l 1,2010,-1
 949 -157 l 1,2011,2012
 943 -214 943 -214 938 -214 c 1,2013,2014
 912 -150 912 -150 905 -150 c 0,2015,2016
 889 -148 889 -148 880 -148 c 1,1988,1989
799 -153 m 0,2017,2018
 821 -155 821 -155 821 -161 c 0,2019,2020
 805 -221 805 -221 797 -221 c 0,2021,2022
 779 -217 779 -217 779 -212 c 0,2023,2024
 793 -153 793 -153 799 -153 c 0,2017,2018
988 -161 m 1,2025,-1
 988 -188 l 1,2026,-1
 1019 -188 l 2,2027,2028
 1024 -189 1024 -189 1024 -192 c 2,2029,-1
 1024 -205 l 2,2030,2031
 1024 -215 1024 -215 1013 -223 c 1,2032,-1
 1013 -225 l 1,2033,2034
 1019 -225 1019 -225 1024 -234 c 1,2035,-1
 1024 -283 l 1,2036,-1
 1054 -283 l 1,2037,-1
 1054 -232 l 1,2038,-1
 1063 -223 l 1,2039,-1
 1052 -210 l 1,2040,-1
 1052 -190 l 2,2041,2042
 1053 -186 1053 -186 1057 -186 c 2,2043,-1
 1085 -186 l 1,2044,-1
 1085 -161 l 1,2045,-1
 988 -161 l 1,2025,-1
EndSplineSet
Validated: 129
EndChar

StartChar: A
Encoding: 65 65 36
Width: 986
GlyphClass: 2
Flags: W
LayerCount: 2
Fore
SplineSet
436 1455 m 2,0,-1
 467 1455 l 2,1,2
 595 1455 595 1455 615 1402 c 1,3,4
 683 1172 683 1172 735 882 c 0,5,6
 746 814 746 814 767 767 c 1,7,8
 762 757 762 757 762 751 c 1,9,10
 777 751 777 751 809 573 c 1,11,-1
 872 320 l 2,12,13
 871 315 871 315 819 315 c 1,14,-1
 819 310 l 1,15,16
 882 310 882 310 882 273 c 1,17,-1
 888 252 l 1,18,-1
 877 247 l 1,19,20
 790 263 790 263 615 273 c 1,21,22
 599 308 599 308 599 320 c 1,23,24
 694 315 694 315 725 315 c 1,25,26
 725 326 725 326 714 326 c 2,27,-1
 651 326 l 2,28,29
 639 326 639 326 510 368 c 1,30,-1
 399 378 l 1,31,32
 344 378 344 378 320 320 c 1,33,34
 320 305 320 305 310 305 c 0,35,36
 187 310 187 310 53 331 c 1,37,-1
 53 336 l 1,38,-1
 163 798 l 1,39,-1
 221 798 l 1,40,41
 221 809 221 809 210 809 c 2,42,-1
 194 809 l 1,43,-1
 168 804 l 1,44,-1
 163 814 l 1,45,46
 221 1033 221 1033 273 1287 c 1,47,48
 315 1430 315 1430 357 1444 c 1,49,50
 407 1455 407 1455 436 1455 c 2,0,-1
446 851 m 1,51,52
 410 778 410 778 410 735 c 0,53,54
 410 667 410 667 473 667 c 0,55,56
 497 667 497 667 510 725 c 1,57,-1
 510 772 l 1,58,-1
 515 783 l 1,59,60
 497 783 497 783 478 846 c 1,61,-1
 452 851 l 1,62,-1
 446 851 l 1,51,52
504 840 m 1,63,-1
 504 835 l 1,64,-1
 515 835 l 1,65,-1
 515 840 l 1,66,-1
 504 840 l 1,63,-1
583 835 m 1,67,-1
 583 830 l 1,68,-1
 609 830 l 1,69,-1
 609 835 l 1,70,-1
 583 835 l 1,67,-1
620 830 m 1,71,-1
 620 825 l 1,72,-1
 667 819 l 1,73,-1
 672 830 l 1,74,-1
 620 830 l 1,71,-1
294 798 m 1,75,-1
 294 793 l 1,76,-1
 305 793 l 1,77,-1
 305 798 l 1,78,-1
 294 798 l 1,75,-1
315 793 m 1,79,-1
 315 788 l 1,80,-1
 378 788 l 1,81,-1
 378 793 l 1,82,-1
 352 798 l 1,83,-1
 315 793 l 1,79,-1
599 772 m 1,84,-1
 599 767 l 1,85,86
 601 767 601 767 620 762 c 1,87,-1
 620 772 l 1,88,-1
 599 772 l 1,84,-1
688 762 m 1,89,-1
 688 756 l 1,90,-1
 704 756 l 1,91,-1
 704 762 l 1,92,-1
 688 762 l 1,89,-1
714 762 m 1,93,-1
 714 756 l 1,94,-1
 751 756 l 1,95,-1
 751 762 l 1,96,-1
 714 762 l 1,93,-1
84 378 m 1,97,98
 84 371 84 371 100 362 c 0,99,100
 107 362 107 362 116 378 c 1,101,-1
 84 378 l 1,97,98
242 362 m 1,102,-1
 242 357 l 1,103,-1
 315 357 l 1,104,-1
 315 362 l 1,105,-1
 242 362 l 1,102,-1
236 299 m 0,106,107
 260 292 260 292 278 278 c 1,108,-1
 305 278 l 1,109,-1
 305 257 l 2,110,111
 305 247 305 247 294 247 c 2,112,-1
 289 247 l 1,113,114
 272 263 272 263 263 263 c 1,115,116
 236 247 236 247 221 247 c 2,117,-1
 215 247 l 1,118,-1
 200 257 l 1,119,-1
 163 252 l 1,120,121
 121 255 121 255 121 268 c 2,122,-1
 121 278 l 2,123,124
 121 291 121 291 168 294 c 1,125,126
 196 289 196 289 200 289 c 0,127,128
 226 299 226 299 236 299 c 0,106,107
53 294 m 2,129,-1
 79 294 l 2,130,131
 89 293 89 293 89 284 c 2,132,-1
 89 278 l 2,133,134
 89 268 89 268 79 268 c 2,135,-1
 53 268 l 2,136,137
 42 268 42 268 42 278 c 2,138,-1
 42 284 l 2,139,140
 44 294 44 294 53 294 c 2,129,-1
37 257 m 1,141,-1
 257 226 l 1,142,-1
 289 226 l 2,143,144
 299 224 299 224 299 215 c 2,145,-1
 299 194 l 2,146,147
 299 184 299 184 289 184 c 0,148,149
 105 194 105 194 68 194 c 1,150,151
 68 207 68 207 47 210 c 1,152,153
 37 205 37 205 32 205 c 1,154,-1
 26 215 l 1,155,156
 26 238 26 238 37 257 c 1,141,-1
625 247 m 1,157,158
 700 247 700 247 756 236 c 1,159,160
 777 242 777 242 798 242 c 0,161,162
 898 228 898 228 898 210 c 2,163,-1
 898 200 l 1,164,-1
 893 189 l 1,165,166
 915 189 915 189 919 79 c 0,167,168
 919 0 919 0 814 0 c 2,169,-1
 783 0 l 1,170,-1
 783 11 l 1,171,-1
 772 11 l 1,172,-1
 746 5 l 1,173,-1
 746 16 l 1,174,-1
 725 16 l 2,175,176
 669 16 669 16 646 110 c 1,177,178
 636 185 636 185 636 194 c 1,179,-1
 646 200 l 1,180,-1
 709 194 l 1,181,-1
 756 200 l 1,182,-1
 756 205 l 1,183,184
 625 205 625 205 625 226 c 2,185,-1
 625 247 l 1,157,158
79 184 m 1,186,187
 79 158 79 158 284 158 c 1,188,-1
 289 147 l 1,189,190
 267 11 267 11 194 11 c 0,191,192
 171 11 171 11 163 5 c 1,193,194
 0 5 0 5 0 58 c 2,195,-1
 0 84 l 2,196,197
 0 179 0 179 42 179 c 1,198,199
 63 184 63 184 79 184 c 1,186,187
26 137 m 1,200,201
 28 126 28 126 37 126 c 0,202,203
 156 121 156 121 184 121 c 2,204,-1
 205 121 l 1,205,-1
 205 126 l 1,206,207
 186 126 186 126 158 137 c 1,208,-1
 105 131 l 1,209,210
 79 142 79 142 79 147 c 1,211,212
 69 142 69 142 26 137 c 1,200,201
678 147 m 1,213,-1
 678 142 l 1,214,-1
 693 142 l 1,215,-1
 693 147 l 1,216,-1
 678 147 l 1,213,-1
221 126 m 1,217,-1
 221 121 l 1,218,-1
 236 121 l 1,219,-1
 236 126 l 1,220,-1
 221 126 l 1,217,-1
11 79 m 1,221,-1
 11 74 l 1,222,-1
 47 68 l 1,223,-1
 53 68 l 1,224,-1
 53 74 l 1,225,-1
 26 79 l 1,226,-1
 11 79 l 1,221,-1
89 74 m 1,227,-1
 89 68 l 1,228,-1
 100 68 l 1,229,-1
 100 74 l 1,230,-1
 89 74 l 1,227,-1
EndSplineSet
Validated: 1
EndChar

StartChar: B
Encoding: 66 66 37
Width: 1083
GlyphClass: 2
Flags: W
LayerCount: 2
Fore
SplineSet
100 1450 m 2,0,-1
 469 1450 l 2,1,2
 595 1450 595 1450 722 1334 c 1,3,4
 822 1221 822 1221 822 1081 c 2,5,-1
 822 1018 l 2,6,7
 822 916 822 916 791 828 c 1,8,9
 791 798 791 798 880 680 c 1,10,11
 917 600 917 600 917 522 c 2,12,-1
 917 380 l 2,13,14
 917 244 917 244 791 111 c 1,15,16
 656 -10 656 -10 501 -10 c 0,17,18
 45 -1 45 -1 26 22 c 1,19,20
 16 56 16 56 16 69 c 2,21,-1
 16 1118 l 2,22,23
 16 1134 16 1134 0 1239 c 1,24,25
 0 1445 0 1445 58 1445 c 1,26,27
 78 1450 78 1450 100 1450 c 2,0,-1
269 1034 m 2,28,29
 269 902 269 902 385 902 c 0,30,31
 474 902 474 902 543 1013 c 1,32,33
 548 1033 548 1033 548 1049 c 0,34,35
 548 1147 548 1147 406 1171 c 1,36,37
 269 1171 269 1171 269 1039 c 2,38,-1
 269 1034 l 2,28,29
269 485 m 2,39,-1
 269 401 l 2,40,41
 269 259 269 259 348 259 c 1,42,43
 348 254 348 254 401 248 c 1,44,-1
 411 254 l 1,45,-1
 443 254 l 2,46,47
 582 254 582 254 648 433 c 1,48,-1
 648 459 l 2,49,50
 648 540 648 540 538 607 c 1,51,52
 469 622 469 622 385 622 c 0,53,54
 269 622 269 622 269 485 c 2,39,-1
26 69 m 1,55,56
 28 59 28 59 37 59 c 2,57,-1
 47 59 l 2,58,59
 58 59 58 59 58 69 c 1,60,-1
 26 69 l 1,55,56
105 64 m 1,61,-1
 105 59 l 1,62,-1
 132 59 l 1,63,-1
 132 64 l 1,64,-1
 105 64 l 1,61,-1
411 43 m 1,65,-1
 406 32 l 1,66,-1
 437 32 l 1,67,-1
 437 37 l 1,68,69
 420 37 420 37 411 43 c 1,65,-1
511 27 m 1,70,-1
 511 22 l 1,71,-1
 527 22 l 1,72,-1
 527 27 l 1,73,-1
 511 27 l 1,70,-1
EndSplineSet
Validated: 1
EndChar

StartChar: C
Encoding: 67 67 38
Width: 1078
GlyphClass: 2
Flags: W
LayerCount: 2
Fore
SplineSet
746 1460 m 0,0,1
 893 1460 893 1460 893 1381 c 2,2,-1
 893 1371 l 1,3,4
 875 1176 875 1176 830 1176 c 1,5,6
 802 1161 802 1161 704 1161 c 2,7,-1
 567 1161 l 1,8,9
 420 1146 420 1146 420 1071 c 1,10,11
 379 973 379 973 320 872 c 1,12,13
 299 815 299 815 299 772 c 2,14,-1
 299 688 l 2,15,16
 299 544 299 544 467 378 c 1,17,18
 510 328 510 328 735 268 c 1,19,20
 877 268 877 268 877 173 c 1,21,22
 882 157 882 157 882 110 c 2,23,-1
 882 53 l 2,24,25
 882 0 882 0 819 0 c 2,26,-1
 614 0 l 2,27,28
 419 0 419 0 168 236 c 1,29,30
 74 388 74 388 74 394 c 0,31,32
 0 564 0 564 0 730 c 0,33,34
 0 941 0 941 152 1176 c 1,35,36
 373 1460 373 1460 746 1460 c 0,0,1
651 1381 m 1,37,-1
 651 1376 l 1,38,-1
 667 1376 l 1,39,-1
 667 1381 l 1,40,-1
 651 1381 l 1,37,-1
EndSplineSet
Validated: 1
EndChar

StartChar: D
Encoding: 68 68 39
Width: 1166
GlyphClass: 2
Flags: W
LayerCount: 2
Fore
SplineSet
149 1455 m 2,0,-1
 271 1455 l 2,1,2
 392 1455 392 1455 543 1412 c 1,3,-1
 543 1402 l 1,4,5
 343 1409 343 1409 319 1428 c 1,6,-1
 266 1423 l 1,7,-1
 261 1423 l 2,8,9
 196 1423 196 1423 138 1434 c 1,10,-1
 133 1434 l 1,11,-1
 133 1428 l 1,12,13
 142 1428 142 1428 160 1412 c 1,14,-1
 165 1412 l 2,15,16
 199 1412 199 1412 234 1407 c 1,17,-1
 255 1412 l 1,18,19
 333 1391 333 1391 346 1391 c 0,20,21
 351 1391 351 1391 351 1396 c 1,22,23
 416 1386 416 1386 479 1386 c 1,24,-1
 516 1391 l 1,25,26
 608 1383 608 1383 655 1349 c 0,27,28
 676 1333 676 1333 676 1327 c 2,29,-1
 676 1322 l 1,30,-1
 644 1322 l 1,31,-1
 644 1317 l 1,32,33
 736 1317 736 1317 788 1242 c 1,34,35
 885 1145 885 1145 969 955 c 1,36,37
 1011 780 1011 780 1011 715 c 0,38,39
 1011 586 1011 586 921 353 c 1,40,41
 874 261 874 261 713 114 c 1,42,43
 505 -14 505 -14 410 -14 c 0,44,45
 339 -14 339 -14 186 -35 c 1,46,47
 0 -35 0 -35 0 71 c 2,48,-1
 0 1365 l 2,49,50
 0 1375 0 1375 32 1375 c 1,51,-1
 32 1381 l 1,52,53
 5 1381 5 1381 5 1391 c 0,54,55
 5 1420 5 1420 32 1434 c 1,56,-1
 85 1428 l 1,57,-1
 85 1439 l 1,58,-1
 59 1439 l 1,59,-1
 59 1450 l 1,60,61
 121 1455 121 1455 149 1455 c 2,0,-1
112 1370 m 1,62,-1
 112 1359 l 1,63,-1
 138 1359 l 1,64,-1
 176 1365 l 1,65,-1
 176 1370 l 1,66,-1
 112 1370 l 1,62,-1
218 1365 m 2,67,-1
 208 1365 l 1,68,-1
 208 1359 l 2,69,70
 208 1343 208 1343 229 1343 c 1,71,-1
 239 1349 l 1,72,-1
 250 1343 l 1,73,74
 275 1354 275 1354 303 1354 c 2,75,-1
 341 1349 l 1,76,-1
 341 1359 l 1,77,-1
 309 1359 l 2,78,79
 286 1359 286 1359 266 1370 c 1,80,81
 237 1365 237 1365 218 1365 c 2,67,-1
410 1349 m 1,82,-1
 410 1338 l 1,83,-1
 442 1338 l 1,84,85
 442 1349 442 1349 431 1349 c 2,86,-1
 410 1349 l 1,82,-1
484 1338 m 1,87,-1
 484 1333 l 1,88,89
 500 1333 500 1333 537 1322 c 1,90,-1
 596 1322 l 1,91,92
 596 1333 596 1333 585 1333 c 2,93,-1
 548 1333 l 2,94,95
 526 1333 526 1333 490 1338 c 1,96,-1
 484 1338 l 1,87,-1
282 1104 m 0,97,98
 287 989 287 989 287 934 c 2,99,-1
 287 444 l 2,100,101
 287 268 287 268 346 268 c 2,102,-1
 351 268 l 2,103,104
 491 268 491 268 633 455 c 1,105,106
 718 583 718 583 718 662 c 2,107,-1
 718 737 l 2,108,109
 718 855 718 855 607 1013 c 0,110,111
 543 1110 543 1110 351 1157 c 1,112,113
 282 1139 282 1139 282 1104 c 0,97,98
543 135 m 1,114,-1
 543 130 l 1,115,-1
 575 130 l 1,116,-1
 575 135 l 1,117,-1
 543 135 l 1,114,-1
537 71 m 1,118,-1
 537 66 l 1,119,-1
 591 66 l 1,120,-1
 591 71 l 1,121,-1
 537 71 l 1,118,-1
EndSplineSet
Validated: 1
EndChar

StartChar: E
Encoding: 69 69 40
Width: 1008
GlyphClass: 2
Flags: W
LayerCount: 2
Fore
SplineSet
110 1460 m 2,0,-1
 625 1460 l 2,1,2
 793 1460 793 1460 793 1397 c 1,3,-1
 798 1323 l 1,4,5
 798 1187 798 1187 714 1187 c 1,6,7
 689 1182 689 1182 646 1182 c 2,8,-1
 378 1182 l 2,9,10
 272 1179 272 1179 263 1124 c 1,11,12
 252 1124 252 1124 247 1029 c 1,13,14
 247 888 247 888 326 888 c 1,15,16
 326 877 326 877 378 877 c 2,17,-1
 672 877 l 2,18,19
 793 877 793 877 793 788 c 1,20,21
 798 761 798 761 798 725 c 0,22,23
 798 604 798 604 709 604 c 1,24,25
 686 599 686 599 630 599 c 2,26,-1
 373 599 l 2,27,28
 267 599 267 599 252 525 c 0,29,30
 247 481 247 481 247 452 c 2,31,-1
 247 404 l 2,32,33
 247 263 247 263 368 263 c 2,34,-1
 683 263 l 2,35,36
 798 263 798 263 798 158 c 2,37,-1
 798 131 l 2,38,39
 798 0 798 0 693 0 c 2,40,-1
 651 0 l 1,41,42
 521 11 521 11 326 16 c 1,43,44
 290 11 290 11 268 11 c 0,45,46
 16 11 16 11 16 53 c 1,47,48
 11 62 11 62 11 74 c 1,49,50
 16 84 16 84 16 89 c 1,51,52
 5 89 5 89 5 100 c 2,53,-1
 5 714 l 2,54,55
 5 944 5 944 0 1302 c 1,56,57
 5 1325 5 1325 5 1381 c 1,58,-1
 16 1386 l 1,59,-1
 11 1397 l 1,60,61
 11 1442 11 1442 74 1449 c 1,62,63
 74 1458 74 1458 110 1460 c 2,0,-1
121 1444 m 1,64,-1
 121 1439 l 1,65,66
 129 1439 129 1439 142 1428 c 1,67,-1
 242 1428 l 1,68,-1
 242 1434 l 1,69,70
 184 1434 184 1434 126 1444 c 1,71,-1
 121 1444 l 1,64,-1
294 1428 m 1,72,-1
 294 1423 l 1,73,-1
 320 1423 l 1,74,-1
 320 1428 l 1,75,-1
 294 1428 l 1,72,-1
EndSplineSet
Validated: 1
EndChar

StartChar: F
Encoding: 70 70 41
Width: 964
GlyphClass: 2
Flags: W
LayerCount: 2
Fore
SplineSet
175 1455 m 2,0,-1
 648 1455 l 2,1,2
 802 1455 802 1455 802 1373 c 1,3,4
 807 1373 807 1373 807 1342 c 2,5,-1
 807 1265 l 1,6,7
 798 1162 798 1162 745 1162 c 1,8,9
 707 1152 707 1152 674 1152 c 2,10,-1
 411 1152 l 2,11,12
 303 1152 303 1152 303 1080 c 2,13,-1
 303 992 l 2,14,15
 303 884 303 884 411 884 c 2,16,-1
 560 884 l 2,17,18
 679 884 679 884 679 781 c 1,19,20
 684 778 684 778 684 735 c 0,21,22
 684 586 684 586 602 586 c 1,23,24
 545 581 545 581 504 581 c 2,25,-1
 427 581 l 2,26,27
 308 581 308 581 308 509 c 1,28,29
 303 504 303 504 303 468 c 2,30,-1
 303 149 l 2,31,32
 303 36 303 36 262 26 c 1,33,34
 262 0 262 0 170 0 c 2,35,-1
 108 0 l 2,36,37
 0 0 0 0 0 134 c 2,38,-1
 0 905 l 2,39,40
 0 1057 0 1057 10 1141 c 1,41,42
 0 1268 0 1268 0 1311 c 0,43,44
 0 1450 0 1450 87 1450 c 1,45,46
 127 1455 127 1455 175 1455 c 2,0,-1
745 1208 m 1,47,-1
 745 1203 l 1,48,-1
 771 1198 l 1,49,-1
 776 1208 l 1,50,-1
 745 1208 l 1,47,-1
134 41 m 1,51,-1
 134 31 l 1,52,-1
 165 31 l 1,53,-1
 165 36 l 1,54,-1
 134 41 l 1,51,-1
EndSplineSet
Validated: 1
EndChar

StartChar: G
Encoding: 71 71 42
Width: 1193
GlyphClass: 2
Flags: W
LayerCount: 2
Fore
SplineSet
690 1460 m 2,0,-1
 791 1460 l 2,1,2
 887 1460 887 1460 887 1402 c 2,3,-1
 887 1386 l 1,4,5
 872 1184 872 1184 802 1184 c 1,6,7
 792 1189 792 1189 780 1189 c 1,8,9
 763 1179 763 1179 749 1179 c 2,10,-1
 674 1179 l 2,11,12
 592 1179 592 1179 510 1157 c 1,13,-1
 488 1157 l 1,14,15
 455 1094 455 1094 403 1094 c 2,16,-1
 393 1094 l 1,17,-1
 393 1088 l 1,18,19
 425 1088 425 1088 425 1078 c 0,20,21
 414 1035 414 1035 372 1035 c 1,22,-1
 372 1030 l 1,23,24
 388 1030 388 1030 388 1025 c 0,25,26
 292 828 292 828 292 802 c 1,27,28
 287 782 287 782 287 754 c 2,29,-1
 287 706 l 2,30,31
 287 596 287 596 388 435 c 1,32,33
 550 276 550 276 658 276 c 0,34,35
 733 276 733 276 733 483 c 1,36,37
 738 483 738 483 738 520 c 0,38,39
 738 573 738 573 621 605 c 1,40,41
 589 633 589 633 589 706 c 2,42,-1
 589 749 l 2,43,44
 589 838 589 838 642 865 c 1,45,46
 679 871 679 871 701 871 c 2,47,-1
 897 871 l 2,48,49
 1003 871 1003 871 1003 775 c 2,50,-1
 1003 749 l 2,51,52
 1003 629 1003 629 998 589 c 1,53,54
 1003 472 1003 472 1003 345 c 2,55,-1
 1003 133 l 2,56,57
 1003 0 1003 0 924 0 c 2,58,-1
 685 0 l 2,59,60
 513 0 513 0 419 64 c 1,61,62
 180 176 180 176 64 441 c 1,63,64
 0 647 0 647 0 733 c 1,65,66
 32 993 32 993 74 993 c 1,67,-1
 69 1003 l 1,68,-1
 69 1009 l 1,69,70
 135 1173 135 1173 170 1173 c 2,71,-1
 202 1173 l 1,72,-1
 202 1179 l 1,73,74
 170 1179 170 1179 170 1195 c 1,75,76
 354 1391 354 1391 526 1433 c 1,77,78
 618 1460 618 1460 690 1460 c 2,0,-1
664 1195 m 1,79,-1
 664 1189 l 1,80,-1
 711 1189 l 1,81,-1
 711 1195 l 1,82,-1
 664 1195 l 1,79,-1
334 1168 m 1,83,-1
 334 1157 l 1,84,-1
 366 1157 l 1,85,-1
 366 1163 l 1,86,-1
 334 1168 l 1,83,-1
313 1104 m 1,87,-1
 313 1094 l 1,88,-1
 372 1094 l 1,89,-1
 372 1099 l 1,90,-1
 334 1104 l 1,91,-1
 313 1104 l 1,87,-1
EndSplineSet
Validated: 1
EndChar

StartChar: H
Encoding: 72 72 43
Width: 1158
GlyphClass: 2
Flags: W
LayerCount: 2
Fore
SplineSet
153 1470 m 0,0,1
 284 1470 284 1470 284 1375 c 2,2,-1
 284 1185 l 2,3,4
 284 1175 284 1175 269 1175 c 1,5,-1
 284 1154 l 1,6,-1
 284 1117 l 2,7,8
 284 1106 284 1106 253 1106 c 1,9,-1
 253 1101 l 1,10,11
 284 1101 284 1101 284 1090 c 2,12,-1
 284 1054 l 2,13,14
 284 1048 284 1048 279 1048 c 1,15,-1
 284 1038 l 1,16,-1
 284 985 l 2,17,18
 284 880 284 880 321 859 c 1,19,-1
 337 859 l 1,20,21
 457 890 457 890 616 890 c 1,22,23
 680 908 680 908 680 1027 c 2,24,-1
 680 1069 l 2,25,26
 680 1075 680 1075 685 1075 c 1,27,-1
 680 1085 l 1,28,-1
 680 1354 l 2,29,30
 680 1470 680 1470 795 1470 c 1,31,32
 806 1464 806 1464 811 1464 c 2,33,-1
 859 1464 l 1,34,-1
 859 1454 l 1,35,-1
 911 1454 l 2,36,37
 964 1454 964 1454 964 1333 c 2,38,-1
 964 105 l 2,39,40
 964 0 964 0 885 0 c 0,41,42
 685 0 685 0 685 53 c 1,43,44
 680 105 680 105 680 132 c 2,45,-1
 680 453 l 2,46,47
 680 595 680 595 579 595 c 0,48,49
 527 595 527 595 316 601 c 1,50,51
 284 562 284 562 284 474 c 2,52,-1
 284 132 l 2,53,54
 284 11 284 11 227 11 c 2,55,-1
 95 11 l 2,56,57
 0 11 0 11 0 100 c 2,58,-1
 0 1054 l 1,59,-1
 5 1064 l 1,60,61
 15 1059 15 1059 21 1059 c 0,62,63
 94 1059 94 1059 147 1043 c 0,64,65
 159 1043 159 1043 169 1048 c 1,66,67
 197 1043 197 1043 216 1043 c 2,68,-1
 274 1043 l 1,69,-1
 274 1048 l 1,70,71
 0 1069 0 1069 0 1090 c 2,72,-1
 0 1106 l 1,73,-1
 5 1117 l 1,74,75
 67 1111 67 1111 95 1111 c 2,76,-1
 237 1111 l 1,77,78
 237 1122 237 1122 227 1122 c 2,79,-1
 211 1122 l 2,80,81
 193 1122 193 1122 184 1117 c 1,82,83
 109 1133 109 1133 5 1133 c 1,84,-1
 0 1143 l 1,85,-1
 0 1359 l 2,86,87
 0 1420 0 1420 26 1449 c 1,88,89
 60 1470 60 1470 153 1470 c 0,0,1
195 1391 m 1,90,-1
 205 1391 l 2,91,92
 216 1391 216 1391 216 1401 c 1,93,-1
 205 1401 l 2,94,95
 195 1400 195 1400 195 1391 c 1,90,-1
917 1401 m 1,96,-1
 917 1391 l 1,97,-1
 943 1391 l 1,98,-1
 943 1396 l 1,99,-1
 917 1401 l 1,96,-1
21 1201 m 1,100,-1
 16 1191 l 1,101,-1
 47 1191 l 1,102,-1
 47 1196 l 1,103,104
 30 1196 30 1196 21 1201 c 1,100,-1
121 1185 m 1,105,-1
 121 1180 l 1,106,-1
 137 1180 l 1,107,-1
 137 1185 l 1,108,-1
 121 1185 l 1,105,-1
195 996 m 1,109,-1
 195 990 l 1,110,-1
 211 990 l 1,111,-1
 211 996 l 1,112,-1
 195 996 l 1,109,-1
EndSplineSet
Validated: 1
EndChar

